National Park -Regular.ufo
<glyph name="exclam" format="2">
	<advance width="190"/>
	<unicode hex="0021"/>
	<outline>
		<contour>
			<point x="130" y="212" type="curve" smooth="yes"/>
			<point x="137" y="675" type="line" smooth="yes"/>
			<point x="137" y="697"/>
			<point x="119" y="715"/>
			<point x="95" y="715" type="curve" smooth="yes"/>
			<point x="71" y="715"/>
			<point x="53" y="697"/>
			<point x="53" y="675" type="curve" smooth="yes"/>
			<point x="58" y="212" type="line" smooth="yes"/>
			<point x="58" y="190"/>
			<point x="76" y="175"/>
			<point x="94" y="175" type="curve" smooth="yes"/>
			<point x="112" y="175"/>
			<point x="130" y="190"/>
		</contour>
		<contour>
			<point x="95" y="-10" type="curve" smooth="yes"/>
			<point x="62" y="-10"/>
			<point x="40" y="12"/>
			<point x="40" y="53" type="curve" smooth="yes"/>
			<point x="40" y="93"/>
			<point x="62" y="115"/>
			<point x="95" y="115" type="curve" smooth="yes"/>
			<point x="128" y="115"/>
			<point x="150" y="93"/>
			<point x="150" y="53" type="curve" smooth="yes"/>
			<point x="150" y="12"/>
			<point x="128" y="-10"/>
		</contour>
	</outline>
</glyph>
<glyph name="quotedbl" format="2">
	<advance width="316"/>
	<unicode hex="0022"/>
	<outline>
		<contour>
			<point x="116" y="523" type="curve" smooth="yes"/>
			<point x="120" y="671" type="line" smooth="yes"/>
			<point x="121" y="693"/>
			<point x="102" y="711"/>
			<point x="80" y="711" type="curve" smooth="yes"/>
			<point x="58" y="711"/>
			<point x="39" y="693"/>
			<point x="40" y="671" type="curve" smooth="yes"/>
			<point x="44" y="523" type="line" smooth="yes"/>
			<point x="45" y="500"/>
			<point x="60" y="484"/>
			<point x="80" y="484" type="curve" smooth="yes"/>
			<point x="100" y="484"/>
			<point x="115" y="500"/>
		</contour>
		<contour>
			<point x="272" y="523" type="curve" smooth="yes"/>
			<point x="276" y="671" type="line" smooth="yes"/>
			<point x="277" y="693"/>
			<point x="258" y="711"/>
			<point x="236" y="711" type="curve" smooth="yes"/>
			<point x="214" y="711"/>
			<point x="195" y="693"/>
			<point x="196" y="671" type="curve" smooth="yes"/>
			<point x="200" y="523" type="line" smooth="yes"/>
			<point x="201" y="500"/>
			<point x="216" y="484"/>
			<point x="236" y="484" type="curve" smooth="yes"/>
			<point x="256" y="484"/>
			<point x="271" y="500"/>
		</contour>
	</outline>
</glyph>
<glyph name="numbersign" format="2">
	<advance width="660"/>
	<unicode hex="0023"/>
	<outline>
		<contour>
			<point x="165" y="23" type="curve"/>
			<point x="297" y="663" type="line"/>
			<point x="302" y="687"/>
			<point x="283" y="710"/>
			<point x="259" y="710" type="curve"/>
			<point x="240" y="710"/>
			<point x="224" y="697"/>
			<point x="221" y="679" type="curve"/>
			<point x="89" y="39" type="line"/>
			<point x="84" y="15"/>
			<point x="103" y="-8"/>
			<point x="127" y="-8" type="curve"/>
			<point x="146" y="-8"/>
			<point x="162" y="5"/>
		</contour>
		<contour>
			<point x="425" y="23" type="curve"/>
			<point x="557" y="663" type="line"/>
			<point x="562" y="687"/>
			<point x="543" y="710"/>
			<point x="519" y="710" type="curve"/>
			<point x="500" y="710"/>
			<point x="484" y="697"/>
			<point x="481" y="679" type="curve"/>
			<point x="349" y="39" type="line"/>
			<point x="344" y="15"/>
			<point x="363" y="-8"/>
			<point x="387" y="-8" type="curve"/>
			<point x="406" y="-8"/>
			<point x="422" y="5"/>
		</contour>
		<contour>
			<point x="610" y="525" type="curve"/>
			<point x="97" y="525" type="line"/>
			<point x="75" y="525"/>
			<point x="58" y="508"/>
			<point x="58" y="486" type="curve"/>
			<point x="58" y="464"/>
			<point x="75" y="447"/>
			<point x="97" y="447" type="curve"/>
			<point x="610" y="447" type="line"/>
			<point x="632" y="447"/>
			<point x="649" y="464"/>
			<point x="649" y="486" type="curve"/>
			<point x="649" y="508"/>
			<point x="632" y="525"/>
		</contour>
		<contour>
			<point x="563" y="271" type="curve"/>
			<point x="50" y="271" type="line"/>
			<point x="28" y="271"/>
			<point x="11" y="254"/>
			<point x="11" y="232" type="curve"/>
			<point x="11" y="210"/>
			<point x="28" y="193"/>
			<point x="50" y="193" type="curve"/>
			<point x="563" y="193" type="line"/>
			<point x="585" y="193"/>
			<point x="602" y="210"/>
			<point x="602" y="232" type="curve"/>
			<point x="602" y="254"/>
			<point x="585" y="271"/>
		</contour>
	</outline>
</glyph>
<glyph name="dollar" format="2">
	<advance width="620"/>
	<unicode hex="0024"/>
	<anchor x="320" y="16" name="bottom"/>
	<anchor x="309" y="690" name="top"/>
	<outline>
		<contour>
			<point x="322" y="0" type="curve" smooth="yes"/>
			<point x="457" y="0"/>
			<point x="545" y="77"/>
			<point x="545" y="196" type="curve" smooth="yes"/>
			<point x="545" y="360"/>
			<point x="406" y="381"/>
			<point x="297" y="410" type="curve" smooth="yes"/>
			<point x="231" y="428"/>
			<point x="177" y="444"/>
			<point x="177" y="520" type="curve" smooth="yes"/>
			<point x="177" y="564"/>
			<point x="209" y="628"/>
			<point x="306" y="628" type="curve" smooth="yes"/>
			<point x="406" y="628"/>
			<point x="441" y="577"/>
			<point x="449" y="522" type="curve" smooth="yes"/>
			<point x="452" y="503"/>
			<point x="467" y="489"/>
			<point x="486" y="489" type="curve" smooth="yes"/>
			<point x="509" y="489"/>
			<point x="526" y="511"/>
			<point x="523" y="536" type="curve" smooth="yes"/>
			<point x="511" y="614"/>
			<point x="447" y="700"/>
			<point x="306" y="700" type="curve" smooth="yes"/>
			<point x="161" y="700"/>
			<point x="101" y="592"/>
			<point x="101" y="523" type="curve" smooth="yes"/>
			<point x="101" y="398"/>
			<point x="185" y="357"/>
			<point x="272" y="335" type="curve" smooth="yes"/>
			<point x="366" y="311"/>
			<point x="468" y="301"/>
			<point x="468" y="194" type="curve" smooth="yes"/>
			<point x="468" y="122"/>
			<point x="411" y="72"/>
			<point x="322" y="72" type="curve" smooth="yes"/>
			<point x="173" y="72"/>
			<point x="150" y="160"/>
			<point x="150" y="201" type="curve" smooth="yes"/>
			<point x="150" y="225"/>
			<point x="134" y="242"/>
			<point x="113" y="242" type="curve" smooth="yes"/>
			<point x="91" y="242"/>
			<point x="75" y="225"/>
			<point x="75" y="201" type="curve" smooth="yes"/>
			<point x="75" y="140"/>
			<point x="118" y="0"/>
		</contour>
		<contour>
			<point x="317" y="796" type="move"/>
			<point x="317" y="-95" type="line"/>
		</contour>
	</outline>
</glyph>
<glyph name="ampersand" format="2">
	<advance width="665"/>
	<unicode hex="0026"/>
	<outline>
		<contour>
			<point x="585" y="-2" type="curve" smooth="yes"/>
			<point x="607" y="-2"/>
			<point x="625" y="16"/>
			<point x="625" y="38" type="curve" smooth="yes"/>
			<point x="625" y="50"/>
			<point x="620" y="60"/>
			<point x="612" y="68" type="curve" smooth="yes"/>
			<point x="382" y="280"/>
			<point x="217" y="449"/>
			<point x="217" y="557" type="curve" smooth="yes"/>
			<point x="217" y="606"/>
			<point x="251" y="643"/>
			<point x="302" y="643" type="curve" smooth="yes"/>
			<point x="347" y="643"/>
			<point x="379" y="614"/>
			<point x="387" y="572" type="curve" smooth="yes"/>
			<point x="391" y="554"/>
			<point x="407" y="541"/>
			<point x="426" y="541" type="curve" smooth="yes"/>
			<point x="449" y="541"/>
			<point x="466" y="559"/>
			<point x="466" y="581" type="curve" smooth="yes"/>
			<point x="466" y="621"/>
			<point x="416" y="718"/>
			<point x="301" y="718" type="curve" smooth="yes"/>
			<point x="205" y="718"/>
			<point x="137" y="652"/>
			<point x="137" y="565" type="curve" smooth="yes"/>
			<point x="137" y="419"/>
			<point x="327" y="220"/>
			<point x="559" y="8" type="curve" smooth="yes"/>
			<point x="566" y="2"/>
			<point x="575" y="-2"/>
		</contour>
		<contour>
			<point x="474" y="141" type="curve"/>
			<point x="530" y="92" type="line"/>
			<point x="560" y="136"/>
			<point x="577" y="193"/>
			<point x="577" y="261" type="curve" smooth="yes"/>
			<point x="577" y="371"/>
			<point x="548" y="404"/>
			<point x="500" y="404" type="curve" smooth="yes"/>
			<point x="474" y="404"/>
			<point x="456" y="388"/>
			<point x="456" y="367" type="curve" smooth="yes"/>
			<point x="456" y="351"/>
			<point x="465" y="339"/>
			<point x="486" y="328" type="curve" smooth="yes"/>
			<point x="498" y="322"/>
			<point x="503" y="308"/>
			<point x="503" y="255" type="curve" smooth="yes"/>
			<point x="503" y="209"/>
			<point x="493" y="171"/>
		</contour>
		<contour>
			<point x="528" y="92" type="curve"/>
			<point x="472" y="141" type="line"/>
			<point x="440" y="91"/>
			<point x="383" y="63"/>
			<point x="310" y="63" type="curve" smooth="yes"/>
			<point x="199" y="63"/>
			<point x="128" y="127"/>
			<point x="128" y="225" type="curve" smooth="yes"/>
			<point x="128" y="304"/>
			<point x="169" y="358"/>
			<point x="239" y="369" type="curve"/>
			<point x="227" y="448" type="line"/>
			<point x="115" y="431"/>
			<point x="50" y="347"/>
			<point x="50" y="225" type="curve" smooth="yes"/>
			<point x="50" y="73"/>
			<point x="154" y="-14"/>
			<point x="303" y="-14" type="curve" smooth="yes"/>
			<point x="401" y="-14"/>
			<point x="480" y="23"/>
		</contour>
	</outline>
</glyph>
<glyph name="quotesingle" format="2">
	<advance width="160"/>
	<unicode hex="0027"/>
	<outline>
		<contour>
			<point x="116" y="523" type="curve" smooth="yes"/>
			<point x="120" y="671" type="line" smooth="yes"/>
			<point x="121" y="693"/>
			<point x="102" y="711"/>
			<point x="80" y="711" type="curve" smooth="yes"/>
			<point x="58" y="711"/>
			<point x="39" y="693"/>
			<point x="40" y="671" type="curve" smooth="yes"/>
			<point x="44" y="523" type="line" smooth="yes"/>
			<point x="45" y="500"/>
			<point x="60" y="484"/>
			<point x="80" y="484" type="curve" smooth="yes"/>
			<point x="100" y="484"/>
			<point x="115" y="500"/>
		</contour>
	</outline>
</glyph>
<glyph name="parenleft" format="2">
	<advance width="312"/>
	<unicode hex="0028"/>
	<guideline x="244" y="796" angle="0"/>
	<outline>
		<contour>
			<point x="215" y="785" type="curve" smooth="yes"/>
			<point x="109" y="660"/>
			<point x="30" y="486"/>
			<point x="30" y="307" type="curve" smooth="yes"/>
			<point x="30" y="128"/>
			<point x="109" y="-46"/>
			<point x="215" y="-171" type="curve" smooth="yes"/>
			<point x="222" y="-179"/>
			<point x="232" y="-184"/>
			<point x="244" y="-184" type="curve" smooth="yes"/>
			<point x="265" y="-184"/>
			<point x="282" y="-167"/>
			<point x="282" y="-146" type="curve" smooth="yes"/>
			<point x="282" y="-137"/>
			<point x="279" y="-128"/>
			<point x="273" y="-121" type="curve" smooth="yes"/>
			<point x="176" y="-7"/>
			<point x="110" y="146"/>
			<point x="110" y="307" type="curve" smooth="yes"/>
			<point x="110" y="468"/>
			<point x="176" y="621"/>
			<point x="273" y="735" type="curve" smooth="yes"/>
			<point x="279" y="742"/>
			<point x="282" y="751"/>
			<point x="282" y="760" type="curve" smooth="yes"/>
			<point x="282" y="781"/>
			<point x="265" y="798"/>
			<point x="244" y="798" type="curve" smooth="yes"/>
			<point x="232" y="798"/>
			<point x="222" y="793"/>
		</contour>
	</outline>
</glyph>
<glyph name="asterisk" format="2">
	<advance width="456"/>
	<unicode hex="002A"/>
	<outline>
		<contour>
			<point x="46" y="603" type="curve" smooth="yes"/>
			<point x="39" y="582"/>
			<point x="50" y="558"/>
			<point x="71" y="553" type="curve" smooth="yes"/>
			<point x="175" y="526" type="line"/>
			<point x="107" y="443" type="line" smooth="yes"/>
			<point x="93" y="425"/>
			<point x="98" y="399"/>
			<point x="116" y="387" type="curve" smooth="yes"/>
			<point x="134" y="374"/>
			<point x="160" y="377"/>
			<point x="171" y="396" type="curve" smooth="yes"/>
			<point x="228" y="495" type="line"/>
			<point x="285" y="396" type="line" smooth="yes"/>
			<point x="296" y="377"/>
			<point x="322" y="374"/>
			<point x="340" y="387" type="curve" smooth="yes"/>
			<point x="358" y="399"/>
			<point x="363" y="425"/>
			<point x="349" y="443" type="curve" smooth="yes"/>
			<point x="281" y="526" type="line"/>
			<point x="384" y="553" type="line" smooth="yes"/>
			<point x="405" y="558"/>
			<point x="416" y="582"/>
			<point x="409" y="603" type="curve" smooth="yes"/>
			<point x="403" y="624"/>
			<point x="380" y="637"/>
			<point x="359" y="629" type="curve" smooth="yes"/>
			<point x="262" y="591" type="line"/>
			<point x="268" y="695" type="line" smooth="yes"/>
			<point x="269" y="717"/>
			<point x="250" y="735"/>
			<point x="228" y="735" type="curve" smooth="yes"/>
			<point x="206" y="735"/>
			<point x="187" y="717"/>
			<point x="188" y="695" type="curve" smooth="yes"/>
			<point x="194" y="591" type="line"/>
			<point x="96" y="629" type="line" smooth="yes"/>
			<point x="75" y="637"/>
			<point x="52" y="624"/>
		</contour>
	</outline>
</glyph>
<glyph name="plus" format="2">
	<advance width="515"/>
	<unicode hex="002B"/>
	<outline>
		<contour>
			<point x="262" y="582" type="move"/>
			<point x="262" y="135" type="line"/>
		</contour>
		<contour>
			<point x="44" y="359" type="move"/>
			<point x="471" y="359" type="line"/>
		</contour>
	</outline>
</glyph>
<glyph name="comma" format="2">
	<advance width="641"/>
	<unicode hex="002C"/>
	<outline>
		<contour>
			<point x="130" y="113" type="curve" smooth="yes"/>
			<point x="176" y="113"/>
			<point x="191" y="81"/>
			<point x="191" y="47" type="curve" smooth="yes"/>
			<point x="191" y="-6"/>
			<point x="145" y="-88"/>
			<point x="125" y="-128" type="curve" smooth="yes"/>
			<point x="115" y="-149"/>
			<point x="98" y="-158"/>
			<point x="80" y="-158" type="curve" smooth="yes"/>
			<point x="58" y="-158"/>
			<point x="40" y="-144"/>
			<point x="40" y="-123" type="curve" smooth="yes"/>
			<point x="40" y="-114"/>
			<point x="42" y="-104"/>
			<point x="49" y="-94" type="curve" smooth="yes"/>
			<point x="79" y="-54"/>
			<point x="107" y="-16"/>
			<point x="107" y="-9" type="curve" smooth="yes"/>
			<point x="107" y="-5"/>
			<point x="106" y="-4"/>
			<point x="101" y="-2" type="curve" smooth="yes"/>
			<point x="84" y="4"/>
			<point x="71" y="23"/>
			<point x="71" y="51" type="curve" smooth="yes"/>
			<point x="71" y="87"/>
			<point x="95" y="113"/>
		</contour>
		<contour>
			<point x="271" y="-153" type="curve" smooth="yes"/>
			<point x="287" y="-153"/>
			<point x="302" y="-142"/>
			<point x="311" y="-124" type="curve" smooth="yes"/>
			<point x="389" y="25" type="line" smooth="yes"/>
			<point x="397" y="39"/>
			<point x="400" y="49"/>
			<point x="400" y="55" type="curve" smooth="yes"/>
			<point x="400" y="81"/>
			<point x="378" y="100"/>
			<point x="350" y="100" type="curve" smooth="yes"/>
			<point x="326" y="100"/>
			<point x="309" y="90"/>
			<point x="301" y="71" type="curve" smooth="yes"/>
			<point x="236" y="-95" type="line" smooth="yes"/>
			<point x="233" y="-102"/>
			<point x="232" y="-108"/>
			<point x="232" y="-113" type="curve" smooth="yes"/>
			<point x="232" y="-137"/>
			<point x="249" y="-153"/>
		</contour>
		<contour>
			<point x="540" y="113" type="curve" smooth="yes"/>
			<point x="586" y="113"/>
			<point x="601" y="81"/>
			<point x="601" y="47" type="curve" smooth="yes"/>
			<point x="601" y="-30"/>
			<point x="564" y="-91"/>
			<point x="539" y="-128" type="curve" smooth="yes"/>
			<point x="526" y="-148"/>
			<point x="508" y="-158"/>
			<point x="490" y="-158" type="curve" smooth="yes"/>
			<point x="468" y="-158"/>
			<point x="450" y="-144"/>
			<point x="450" y="-123" type="curve" smooth="yes"/>
			<point x="450" y="-114"/>
			<point x="451" y="-104"/>
			<point x="459" y="-94" type="curve" smooth="yes"/>
			<point x="493" y="-54"/>
			<point x="517" y="-27"/>
			<point x="517" y="-9" type="curve" smooth="yes"/>
			<point x="517" y="-5"/>
			<point x="516" y="-4"/>
			<point x="511" y="-2" type="curve" smooth="yes"/>
			<point x="494" y="4"/>
			<point x="481" y="23"/>
			<point x="481" y="51" type="curve" smooth="yes"/>
			<point x="481" y="87"/>
			<point x="505" y="113"/>
		</contour>
	</outline>
</glyph>
<glyph name="hyphen" format="2">
	<advance width="418"/>
	<unicode hex="002D"/>
	<outline>
		<contour>
			<point x="339" y="258" type="move"/>
			<point x="79" y="258" type="line"/>
		</contour>
	</outline>
</glyph>
<glyph name="period" format="2">
	<advance width="220"/>
	<unicode hex="002E"/>
	<outline>
		<contour>
			<point x="110" y="-10" type="curve" smooth="yes"/>
			<point x="77" y="-10"/>
			<point x="55" y="12"/>
			<point x="55" y="53" type="curve" smooth="yes"/>
			<point x="55" y="93"/>
			<point x="77" y="115"/>
			<point x="110" y="115" type="curve" smooth="yes"/>
			<point x="143" y="115"/>
			<point x="165" y="93"/>
			<point x="165" y="53" type="curve" smooth="yes"/>
			<point x="165" y="12"/>
			<point x="143" y="-10"/>
		</contour>
	</outline>
</glyph>
<glyph name="slash" format="2">
	<advance width="396"/>
	<unicode hex="002F"/>
	<outline>
		<contour>
			<point x="316" y="687" type="move"/>
			<point x="80" y="-125" type="line"/>
		</contour>
	</outline>
</glyph>
<glyph name="zero" format="2">
	<advance width="666"/>
	<unicode hex="0030"/>
	<outline>
		<contour>
			<point x="330" y="715" type="curve" smooth="yes"/>
			<point x="146" y="715"/>
			<point x="60" y="505"/>
			<point x="60" y="351" type="curve" smooth="yes"/>
			<point x="60" y="195"/>
			<point x="136" y="-15"/>
			<point x="330" y="-15" type="curve" smooth="yes"/>
			<point x="522" y="-15"/>
			<point x="606" y="193"/>
			<point x="606" y="353" type="curve" smooth="yes"/>
			<point x="606" y="513"/>
			<point x="533" y="715"/>
		</contour>
		<contour>
			<point x="330" y="635" type="curve" smooth="yes"/>
			<point x="474" y="635"/>
			<point x="526" y="494"/>
			<point x="526" y="353" type="curve" smooth="yes"/>
			<point x="526" y="213"/>
			<point x="465" y="65"/>
			<point x="330" y="65" type="curve" smooth="yes"/>
			<point x="195" y="65"/>
			<point x="140" y="214"/>
			<point x="140" y="351" type="curve" smooth="yes"/>
			<point x="140" y="484"/>
			<point x="203" y="635"/>
		</contour>
	</outline>
</glyph>
<glyph name="one" format="2">
	<advance width="346"/>
	<unicode hex="0031"/>
	<outline>
		<contour>
			<point x="226" y="-5" type="curve" smooth="yes"/>
			<point x="248" y="-5"/>
			<point x="266" y="13"/>
			<point x="266" y="35" type="curve" smooth="yes"/>
			<point x="266" y="661" type="line" smooth="yes"/>
			<point x="266" y="687"/>
			<point x="247" y="706"/>
			<point x="221" y="706" type="curve" smooth="yes"/>
			<point x="198" y="706"/>
			<point x="183" y="700"/>
			<point x="172" y="687" type="curve" smooth="yes"/>
			<point x="70" y="568" type="line" smooth="yes"/>
			<point x="64" y="561"/>
			<point x="60" y="552"/>
			<point x="60" y="542" type="curve" smooth="yes"/>
			<point x="60" y="520"/>
			<point x="78" y="502"/>
			<point x="100" y="502" type="curve" smooth="yes"/>
			<point x="112" y="502"/>
			<point x="123" y="507"/>
			<point x="130" y="516" type="curve" smooth="yes"/>
			<point x="199" y="596" type="line"/>
			<point x="186" y="602" type="line"/>
			<point x="186" y="35" type="line" smooth="yes"/>
			<point x="186" y="13"/>
			<point x="204" y="-5"/>
		</contour>
	</outline>
</glyph>
<glyph name="three" format="2">
	<advance width="631"/>
	<unicode hex="0033"/>
	<outline>
		<contour>
			<point x="313" y="-15" type="curve" smooth="yes"/>
			<point x="437" y="-15"/>
			<point x="571" y="67"/>
			<point x="571" y="232" type="curve" smooth="yes"/>
			<point x="571" y="391"/>
			<point x="430" y="463"/>
			<point x="332" y="460" type="curve"/>
			<point x="294" y="451" type="line"/>
			<point x="286" y="426" type="line"/>
			<point x="483" y="593" type="line" smooth="yes"/>
			<point x="503" y="610"/>
			<point x="511" y="624"/>
			<point x="511" y="647" type="curve" smooth="yes"/>
			<point x="511" y="655" type="line" smooth="yes"/>
			<point x="511" y="680"/>
			<point x="491" y="700"/>
			<point x="466" y="700" type="curve" smooth="yes"/>
			<point x="133" y="700" type="line" smooth="yes"/>
			<point x="111" y="700"/>
			<point x="93" y="682"/>
			<point x="93" y="660" type="curve" smooth="yes"/>
			<point x="93" y="638"/>
			<point x="111" y="623"/>
			<point x="133" y="623" type="curve" smooth="yes"/>
			<point x="479" y="623" type="line"/>
			<point x="433" y="656" type="line"/>
			<point x="210" y="459" type="line" smooth="yes"/>
			<point x="198" y="449"/>
			<point x="189" y="435"/>
			<point x="189" y="416" type="curve" smooth="yes"/>
			<point x="189" y="397"/>
			<point x="203" y="375"/>
			<point x="233" y="375" type="curve" smooth="yes"/>
			<point x="249" y="375"/>
			<point x="271" y="383"/>
			<point x="321" y="383" type="curve" smooth="yes"/>
			<point x="380" y="383"/>
			<point x="491" y="348"/>
			<point x="491" y="232" type="curve" smooth="yes"/>
			<point x="491" y="117"/>
			<point x="410" y="65"/>
			<point x="313" y="65" type="curve" smooth="yes"/>
			<point x="194" y="65"/>
			<point x="150" y="150"/>
			<point x="140" y="195" type="curve" smooth="yes"/>
			<point x="135" y="217"/>
			<point x="122" y="235"/>
			<point x="100" y="235" type="curve" smooth="yes"/>
			<point x="78" y="235"/>
			<point x="57" y="217"/>
			<point x="60" y="195" type="curve" smooth="yes"/>
			<point x="70" y="117"/>
			<point x="140" y="-15"/>
		</contour>
	</outline>
</glyph>
<glyph name="four" format="2">
	<advance width="673"/>
	<unicode hex="0034"/>
	<outline>
		<contour>
			<point x="573" y="281" type="curve" smooth="yes"/>
			<point x="141" y="281" type="line"/>
			<point x="150" y="270" type="line"/>
			<point x="463" y="636" type="line"/>
			<point x="424" y="659" type="line"/>
			<point x="424" y="35" type="line" smooth="yes"/>
			<point x="424" y="13"/>
			<point x="442" y="-5"/>
			<point x="464" y="-5" type="curve" smooth="yes"/>
			<point x="487" y="-5"/>
			<point x="505" y="13"/>
			<point x="505" y="35" type="curve" smooth="yes"/>
			<point x="505" y="659" type="line" smooth="yes"/>
			<point x="505" y="684"/>
			<point x="485" y="704"/>
			<point x="460" y="704" type="curve" smooth="yes"/>
			<point x="454" y="704" type="line" smooth="yes"/>
			<point x="429" y="704"/>
			<point x="408" y="692"/>
			<point x="393" y="674" type="curve" smooth="yes"/>
			<point x="82" y="310" type="line" smooth="yes"/>
			<point x="69" y="294"/>
			<point x="60" y="276"/>
			<point x="60" y="249" type="curve" smooth="yes"/>
			<point x="60" y="246" type="line" smooth="yes"/>
			<point x="60" y="221"/>
			<point x="80" y="201"/>
			<point x="105" y="201" type="curve" smooth="yes"/>
			<point x="573" y="201" type="line" smooth="yes"/>
			<point x="595" y="201"/>
			<point x="613" y="219"/>
			<point x="613" y="241" type="curve" smooth="yes"/>
			<point x="613" y="263"/>
			<point x="595" y="281"/>
		</contour>
	</outline>
</glyph>
<glyph name="five" format="2">
	<advance width="635"/>
	<unicode hex="0035"/>
	<outline>
		<contour>
			<point x="163" y="442" type="curve"/>
			<point x="180" y="442" type="line"/>
			<point x="208" y="653" type="line"/>
			<point x="173" y="620" type="line"/>
			<point x="469" y="620" type="line" smooth="yes"/>
			<point x="491" y="620"/>
			<point x="509" y="638"/>
			<point x="509" y="660" type="curve" smooth="yes"/>
			<point x="509" y="682"/>
			<point x="491" y="700"/>
			<point x="469" y="700" type="curve" smooth="yes"/>
			<point x="173" y="700" type="line" smooth="yes"/>
			<point x="151" y="700"/>
			<point x="131" y="682"/>
			<point x="128" y="661" type="curve" smooth="yes"/>
			<point x="92" y="404" type="line" smooth="yes"/>
			<point x="88" y="377"/>
			<point x="111" y="354"/>
			<point x="137" y="354" type="curve" smooth="yes"/>
			<point x="160" y="354"/>
			<point x="170" y="364"/>
			<point x="182" y="373" type="curve" smooth="yes"/>
			<point x="194" y="382"/>
			<point x="246" y="417"/>
			<point x="329" y="417" type="curve" smooth="yes"/>
			<point x="432" y="417"/>
			<point x="495" y="347"/>
			<point x="495" y="249" type="curve" smooth="yes"/>
			<point x="495" y="146"/>
			<point x="433" y="65"/>
			<point x="319" y="65" type="curve" smooth="yes"/>
			<point x="202" y="65"/>
			<point x="151" y="152"/>
			<point x="141" y="195" type="curve" smooth="yes"/>
			<point x="136" y="217"/>
			<point x="122" y="235"/>
			<point x="100" y="235" type="curve" smooth="yes"/>
			<point x="78" y="235"/>
			<point x="57" y="217"/>
			<point x="60" y="195" type="curve" smooth="yes"/>
			<point x="70" y="118"/>
			<point x="147" y="-15"/>
			<point x="319" y="-15" type="curve" smooth="yes"/>
			<point x="476" y="-15"/>
			<point x="575" y="112"/>
			<point x="575" y="249" type="curve" smooth="yes"/>
			<point x="575" y="395"/>
			<point x="477" y="497"/>
			<point x="329" y="497" type="curve" smooth="yes"/>
			<point x="258" y="497"/>
			<point x="204" y="475"/>
		</contour>
	</outline>
</glyph>
<glyph name="six" format="2">
	<advance width="627"/>
	<unicode hex="0036"/>
	<outline>
		<contour>
			<point x="60" y="352" type="curve" smooth="yes"/>
			<point x="60" y="82"/>
			<point x="198" y="-15"/>
			<point x="330" y="-15" type="curve" smooth="yes"/>
			<point x="476" y="-15"/>
			<point x="567" y="100"/>
			<point x="567" y="219" type="curve" smooth="yes"/>
			<point x="567" y="360"/>
			<point x="460" y="444"/>
			<point x="338" y="444" type="curve" smooth="yes"/>
			<point x="235" y="444"/>
			<point x="155" y="387"/>
			<point x="122" y="336" type="curve"/>
			<point x="141" y="317" type="line"/>
			<point x="129" y="582"/>
			<point x="253" y="635"/>
			<point x="328" y="635" type="curve" smooth="yes"/>
			<point x="402" y="635"/>
			<point x="449" y="605"/>
			<point x="470" y="546" type="curve" smooth="yes"/>
			<point x="476" y="531"/>
			<point x="491" y="520"/>
			<point x="508" y="520" type="curve" smooth="yes"/>
			<point x="530" y="520"/>
			<point x="548" y="538"/>
			<point x="548" y="560" type="curve" smooth="yes"/>
			<point x="548" y="565"/>
			<point x="547" y="569"/>
			<point x="546" y="574" type="curve"/>
			<point x="514" y="662"/>
			<point x="428" y="715"/>
			<point x="328" y="715" type="curve" smooth="yes"/>
			<point x="238" y="715"/>
			<point x="60" y="646"/>
		</contour>
		<contour>
			<point x="161" y="243" type="curve" smooth="yes"/>
			<point x="161" y="316"/>
			<point x="250" y="364"/>
			<point x="338" y="364" type="curve" smooth="yes"/>
			<point x="427" y="364"/>
			<point x="487" y="316"/>
			<point x="487" y="219" type="curve" smooth="yes"/>
			<point x="487" y="135"/>
			<point x="434" y="65"/>
			<point x="330" y="65" type="curve" smooth="yes"/>
			<point x="247" y="65"/>
			<point x="161" y="128"/>
		</contour>
	</outline>
</glyph>
<glyph name="eight" format="2">
	<advance width="615"/>
	<unicode hex="0038"/>
	<outline>
		<contour>
			<point x="231" y="344" type="curve"/>
			<point x="210" y="417" type="line"/>
			<point x="143" y="383"/>
			<point x="60" y="318"/>
			<point x="60" y="216" type="curve" smooth="yes"/>
			<point x="60" y="66"/>
			<point x="178" y="-15"/>
			<point x="320" y="-15" type="curve" smooth="yes"/>
			<point x="434" y="-15"/>
			<point x="555" y="68"/>
			<point x="555" y="198" type="curve" smooth="yes"/>
			<point x="555" y="352"/>
			<point x="416" y="396"/>
			<point x="313" y="410" type="curve" smooth="yes"/>
			<point x="224" y="422"/>
			<point x="162" y="432"/>
			<point x="162" y="524" type="curve" smooth="yes"/>
			<point x="162" y="599"/>
			<point x="227" y="635"/>
			<point x="308" y="635" type="curve" smooth="yes"/>
			<point x="383" y="635"/>
			<point x="461" y="604"/>
			<point x="461" y="530" type="curve" smooth="yes"/>
			<point x="461" y="472"/>
			<point x="425" y="425"/>
			<point x="374" y="394" type="curve"/>
			<point x="407" y="329" type="line"/>
			<point x="470" y="368"/>
			<point x="541" y="436"/>
			<point x="541" y="530" type="curve" smooth="yes"/>
			<point x="541" y="667"/>
			<point x="412" y="715"/>
			<point x="308" y="715" type="curve" smooth="yes"/>
			<point x="203" y="715"/>
			<point x="82" y="652"/>
			<point x="82" y="524" type="curve" smooth="yes"/>
			<point x="82" y="363"/>
			<point x="213" y="343"/>
			<point x="303" y="331" type="curve" smooth="yes"/>
			<point x="390" y="319"/>
			<point x="475" y="288"/>
			<point x="475" y="198" type="curve" smooth="yes"/>
			<point x="475" y="114"/>
			<point x="402" y="65"/>
			<point x="320" y="65" type="curve" smooth="yes"/>
			<point x="217" y="65"/>
			<point x="140" y="119"/>
			<point x="140" y="216" type="curve" smooth="yes"/>
			<point x="140" y="280"/>
			<point x="186" y="317"/>
		</contour>
	</outline>
</glyph>
<glyph name="nine" format="2">
	<advance width="608"/>
	<unicode hex="0039"/>
	<outline>
		<contour>
			<point x="548" y="348" type="curve" smooth="yes"/>
			<point x="548" y="618"/>
			<point x="440" y="715"/>
			<point x="298" y="715" type="curve" smooth="yes"/>
			<point x="146" y="715"/>
			<point x="60" y="600"/>
			<point x="60" y="471" type="curve" smooth="yes"/>
			<point x="60" y="320"/>
			<point x="162" y="236"/>
			<point x="290" y="236" type="curve" smooth="yes"/>
			<point x="383" y="236"/>
			<point x="453" y="293"/>
			<point x="486" y="354" type="curve"/>
			<point x="467" y="373" type="line"/>
			<point x="479" y="128"/>
			<point x="385" y="65"/>
			<point x="300" y="65" type="curve" smooth="yes"/>
			<point x="225" y="65"/>
			<point x="178" y="95"/>
			<point x="157" y="154" type="curve" smooth="yes"/>
			<point x="151" y="169"/>
			<point x="136" y="180"/>
			<point x="119" y="180" type="curve" smooth="yes"/>
			<point x="97" y="180"/>
			<point x="79" y="162"/>
			<point x="79" y="140" type="curve" smooth="yes"/>
			<point x="79" y="135"/>
			<point x="79" y="131"/>
			<point x="81" y="126" type="curve" smooth="yes"/>
			<point x="113" y="38"/>
			<point x="199" y="-15"/>
			<point x="300" y="-15" type="curve" smooth="yes"/>
			<point x="400" y="-15"/>
			<point x="548" y="54"/>
		</contour>
		<contour>
			<point x="447" y="467" type="curve" smooth="yes"/>
			<point x="447" y="364"/>
			<point x="368" y="316"/>
			<point x="290" y="316" type="curve" smooth="yes"/>
			<point x="195" y="316"/>
			<point x="140" y="364"/>
			<point x="140" y="471" type="curve" smooth="yes"/>
			<point x="140" y="565"/>
			<point x="188" y="635"/>
			<point x="298" y="635" type="curve" smooth="yes"/>
			<point x="391" y="635"/>
			<point x="447" y="572"/>
		</contour>
	</outline>
</glyph>
<glyph name="colon" format="2">
	<advance width="214"/>
	<unicode hex="003A"/>
	<outline>
		<contour>
			<point x="110" y="-10" type="curve" smooth="yes"/>
			<point x="77" y="-10"/>
			<point x="55" y="12"/>
			<point x="55" y="53" type="curve" smooth="yes"/>
			<point x="55" y="93"/>
			<point x="77" y="115"/>
			<point x="110" y="115" type="curve" smooth="yes"/>
			<point x="143" y="115"/>
			<point x="165" y="93"/>
			<point x="165" y="53" type="curve" smooth="yes"/>
			<point x="165" y="12"/>
			<point x="143" y="-10"/>
		</contour>
		<contour>
			<point x="110" y="400" type="curve" smooth="yes"/>
			<point x="77" y="400"/>
			<point x="55" y="422"/>
			<point x="55" y="463" type="curve" smooth="yes"/>
			<point x="55" y="503"/>
			<point x="77" y="525"/>
			<point x="110" y="525" type="curve" smooth="yes"/>
			<point x="143" y="525"/>
			<point x="165" y="503"/>
			<point x="165" y="463" type="curve" smooth="yes"/>
			<point x="165" y="422"/>
			<point x="143" y="400"/>
		</contour>
	</outline>
</glyph>
<glyph name="less" format="2">
	<advance width="560"/>
	<unicode hex="003C"/>
	<outline>
		<contour>
			<point x="498" y="142" type="curve" smooth="yes"/>
			<point x="84" y="377" type="line"/>
			<point x="84" y="322" type="line"/>
			<point x="498" y="557" type="line" smooth="yes"/>
			<point x="511" y="564"/>
			<point x="520" y="576"/>
			<point x="520" y="593" type="curve" smooth="yes"/>
			<point x="520" y="614"/>
			<point x="503" y="631"/>
			<point x="482" y="631" type="curve" smooth="yes"/>
			<point x="476" y="631"/>
			<point x="471" y="630"/>
			<point x="466" y="627" type="curve" smooth="yes"/>
			<point x="68" y="393" type="line" smooth="yes"/>
			<point x="49" y="382"/>
			<point x="40" y="370"/>
			<point x="40" y="350" type="curve" smooth="yes"/>
			<point x="40" y="329"/>
			<point x="53" y="315"/>
			<point x="68" y="306" type="curve" smooth="yes"/>
			<point x="466" y="72" type="line" smooth="yes"/>
			<point x="471" y="69"/>
			<point x="476" y="68"/>
			<point x="482" y="68" type="curve" smooth="yes"/>
			<point x="503" y="68"/>
			<point x="520" y="87"/>
			<point x="520" y="108" type="curve" smooth="yes"/>
			<point x="520" y="123"/>
			<point x="511" y="135"/>
		</contour>
	</outline>
</glyph>
<glyph name="greater" format="2">
	<advance width="560"/>
	<unicode hex="003E"/>
	<outline>
		<contour>
			<point x="476" y="377" type="line"/>
			<point x="62" y="142" type="line" smooth="yes"/>
			<point x="49" y="135"/>
			<point x="40" y="123"/>
			<point x="40" y="108" type="curve" smooth="yes"/>
			<point x="40" y="87"/>
			<point x="57" y="68"/>
			<point x="78" y="68" type="curve" smooth="yes"/>
			<point x="84" y="68"/>
			<point x="89" y="69"/>
			<point x="94" y="72" type="curve" smooth="yes"/>
			<point x="492" y="306" type="line" smooth="yes"/>
			<point x="507" y="315"/>
			<point x="520" y="329"/>
			<point x="520" y="350" type="curve" smooth="yes"/>
			<point x="520" y="370"/>
			<point x="511" y="382"/>
			<point x="492" y="393" type="curve" smooth="yes"/>
			<point x="94" y="627" type="line" smooth="yes"/>
			<point x="89" y="630"/>
			<point x="84" y="631"/>
			<point x="78" y="631" type="curve" smooth="yes"/>
			<point x="57" y="631"/>
			<point x="40" y="614"/>
			<point x="40" y="593" type="curve" smooth="yes"/>
			<point x="40" y="576"/>
			<point x="49" y="564"/>
			<point x="62" y="557" type="curve" smooth="yes"/>
			<point x="476" y="322" type="line"/>
		</contour>
	</outline>
</glyph>
<glyph name="question" format="2">
	<advance width="457"/>
	<unicode hex="003F"/>
	<outline>
		<contour>
			<point x="247" y="212" type="curve" smooth="yes"/>
			<point x="247" y="256"/>
			<point x="253" y="279"/>
			<point x="321" y="334" type="curve" smooth="yes"/>
			<point x="363" y="368"/>
			<point x="427" y="422"/>
			<point x="427" y="525" type="curve" smooth="yes"/>
			<point x="427" y="640"/>
			<point x="344" y="715"/>
			<point x="225" y="715" type="curve" smooth="yes"/>
			<point x="110" y="715"/>
			<point x="30" y="638"/>
			<point x="30" y="528" type="curve" smooth="yes"/>
			<point x="30" y="506"/>
			<point x="48" y="488"/>
			<point x="70" y="488" type="curve" smooth="yes"/>
			<point x="92" y="488"/>
			<point x="110" y="506"/>
			<point x="110" y="528" type="curve" smooth="yes"/>
			<point x="110" y="599"/>
			<point x="151" y="639"/>
			<point x="225" y="639" type="curve" smooth="yes"/>
			<point x="303" y="639"/>
			<point x="347" y="601"/>
			<point x="347" y="526" type="curve" smooth="yes"/>
			<point x="347" y="457"/>
			<point x="309" y="418"/>
			<point x="254" y="374" type="curve" smooth="yes"/>
			<point x="176" y="311"/>
			<point x="167" y="282"/>
			<point x="167" y="212" type="curve" smooth="yes"/>
			<point x="167" y="190"/>
			<point x="185" y="172"/>
			<point x="207" y="172" type="curve" smooth="yes"/>
			<point x="229" y="172"/>
			<point x="247" y="190"/>
		</contour>
		<contour>
			<point x="208" y="-10" type="curve" smooth="yes"/>
			<point x="175" y="-10"/>
			<point x="153" y="12"/>
			<point x="153" y="53" type="curve" smooth="yes"/>
			<point x="153" y="93"/>
			<point x="175" y="115"/>
			<point x="208" y="115" type="curve" smooth="yes"/>
			<point x="241" y="115"/>
			<point x="263" y="93"/>
			<point x="263" y="53" type="curve" smooth="yes"/>
			<point x="263" y="12"/>
			<point x="241" y="-10"/>
		</contour>
	</outline>
</glyph>
<glyph name="at" format="2">
	<advance width="923"/>
	<unicode hex="0040"/>
	<outline>
		<contour>
			<point x="342" y="325" type="curve" smooth="yes"/>
			<point x="369" y="406"/>
			<point x="431" y="435"/>
			<point x="479" y="434" type="curve" smooth="yes"/>
			<point x="560" y="432"/>
			<point x="574" y="344"/>
			<point x="547" y="250" type="curve" smooth="yes"/>
			<point x="527" y="180"/>
			<point x="467" y="156"/>
			<point x="425" y="156" type="curve" smooth="yes"/>
			<point x="344" y="156"/>
			<point x="314" y="242"/>
		</contour>
		<contour>
			<point x="574" y="179" type="curve"/>
			<point x="599" y="407" type="line"/>
			<point x="593" y="450"/>
			<point x="561" y="501"/>
			<point x="474" y="501" type="curve" smooth="yes"/>
			<point x="389" y="501"/>
			<point x="300" y="444"/>
			<point x="269" y="325" type="curve" smooth="yes"/>
			<point x="243" y="225"/>
			<point x="279" y="89"/>
			<point x="414" y="89" type="curve" smooth="yes"/>
			<point x="473" y="89"/>
			<point x="538" y="108"/>
		</contour>
		<contour>
			<point x="628" y="455" type="move"/>
			<point x="588" y="235" type="line" smooth="yes"/>
			<point x="581" y="195"/>
			<point x="599" y="130"/>
			<point x="689" y="130" type="curve" smooth="yes"/>
			<point x="779" y="130"/>
			<point x="826" y="213"/>
			<point x="826" y="344" type="curve" smooth="yes"/>
			<point x="826" y="475"/>
			<point x="716" y="675"/>
			<point x="474" y="675" type="curve" smooth="yes"/>
			<point x="252" y="675"/>
			<point x="97" y="514"/>
			<point x="97" y="283" type="curve" smooth="yes"/>
			<point x="97" y="52"/>
			<point x="277" y="-78"/>
			<point x="470" y="-78" type="curve" smooth="yes"/>
			<point x="583" y="-78"/>
			<point x="643" y="-52"/>
			<point x="669" y="-39" type="curve" smooth="yes"/>
		</contour>
	</outline>
</glyph>
<glyph name="A" format="2">
	<advance width="628"/>
	<unicode hex="0041"/>
	<anchor x="314" y="0" name="bottom"/>
	<anchor x="529" y="0" name="ogonek"/>
	<anchor x="314" y="700" name="top"/>
	<outline>
		<contour>
			<point x="134" y="207" type="line"/>
			<point x="488" y="207" type="line"/>
			<point x="488" y="283" type="line"/>
			<point x="134" y="283" type="line"/>
		</contour>
		<contour>
			<point x="71" y="-10" type="curve" smooth="yes"/>
			<point x="88" y="-10"/>
			<point x="104" y="1"/>
			<point x="109" y="16" type="curve" smooth="yes"/>
			<point x="325" y="620" type="line"/>
			<point x="304" y="620" type="line"/>
			<point x="519" y="16" type="line" smooth="yes"/>
			<point x="524" y="1"/>
			<point x="540" y="-10"/>
			<point x="557" y="-10" type="curve" smooth="yes"/>
			<point x="590" y="-10"/>
			<point x="604" y="24"/>
			<point x="595" y="47" type="curve" smooth="yes"/>
			<point x="363" y="664" type="line" smooth="yes"/>
			<point x="351" y="695"/>
			<point x="333" y="710"/>
			<point x="314" y="710" type="curve" smooth="yes"/>
			<point x="295" y="710"/>
			<point x="277" y="695"/>
			<point x="265" y="664" type="curve" smooth="yes"/>
			<point x="33" y="47" type="line" smooth="yes"/>
			<point x="24" y="24"/>
			<point x="38" y="-10"/>
		</contour>
	</outline>
</glyph>
<glyph name="B" format="2">
	<advance width="609"/>
	<unicode hex="0042"/>
	<anchor x="292" y="0" name="bottom"/>
	<anchor x="292" y="350" name="center"/>
	<anchor x="292" y="700" name="top"/>
	<outline>
		<contour>
			<point x="121" y="0" type="curve" smooth="yes"/>
			<point x="358" y="0" type="line" smooth="yes"/>
			<point x="457" y="0"/>
			<point x="549" y="82"/>
			<point x="549" y="204" type="curve" smooth="yes"/>
			<point x="549" y="295"/>
			<point x="498" y="368"/>
			<point x="415" y="393" type="curve"/>
			<point x="414" y="370" type="line"/>
			<point x="483" y="405"/>
			<point x="519" y="461"/>
			<point x="519" y="529" type="curve" smooth="yes"/>
			<point x="519" y="629"/>
			<point x="445" y="700"/>
			<point x="331" y="700" type="curve" smooth="yes"/>
			<point x="121" y="700" type="line" smooth="yes"/>
			<point x="98" y="700"/>
			<point x="80" y="682"/>
			<point x="80" y="659" type="curve" smooth="yes"/>
			<point x="80" y="41" type="line" smooth="yes"/>
			<point x="80" y="18"/>
			<point x="98" y="0"/>
		</contour>
		<contour>
			<point x="334" y="77" type="curve" smooth="yes"/>
			<point x="162" y="77" type="line"/>
			<point x="162" y="342" type="line"/>
			<point x="338" y="342" type="line" smooth="yes"/>
			<point x="415" y="342"/>
			<point x="467" y="289"/>
			<point x="467" y="212" type="curve" smooth="yes"/>
			<point x="467" y="132"/>
			<point x="411" y="77"/>
		</contour>
		<contour>
			<point x="331" y="418" type="curve" smooth="yes"/>
			<point x="162" y="418" type="line"/>
			<point x="162" y="624" type="line"/>
			<point x="334" y="624" type="line" smooth="yes"/>
			<point x="397" y="624"/>
			<point x="438" y="583"/>
			<point x="438" y="519" type="curve" smooth="yes"/>
			<point x="438" y="456"/>
			<point x="401" y="418"/>
		</contour>
	</outline>
</glyph>
<glyph name="C" format="2">
	<advance width="613"/>
	<unicode hex="0043"/>
	<anchor x="333" y="0" name="bottom"/>
	<anchor x="331" y="700" name="top"/>
	<outline>
		<contour>
			<point x="333" y="-15" type="curve" smooth="yes"/>
			<point x="448" y="-15"/>
			<point x="539" y="63"/>
			<point x="566" y="180" type="curve" smooth="yes"/>
			<point x="573" y="213"/>
			<point x="557" y="237"/>
			<point x="532" y="237" type="curve" smooth="yes"/>
			<point x="512" y="237"/>
			<point x="498" y="229"/>
			<point x="492" y="201" type="curve" smooth="yes"/>
			<point x="473" y="115"/>
			<point x="418" y="60"/>
			<point x="340" y="60" type="curve" smooth="yes"/>
			<point x="221" y="60"/>
			<point x="142" y="176"/>
			<point x="142" y="350" type="curve" smooth="yes"/>
			<point x="142" y="523"/>
			<point x="222" y="640"/>
			<point x="336" y="640" type="curve" smooth="yes"/>
			<point x="412" y="640"/>
			<point x="458" y="591"/>
			<point x="470" y="543" type="curve" smooth="yes"/>
			<point x="476" y="521"/>
			<point x="490" y="510"/>
			<point x="510" y="510" type="curve" smooth="yes"/>
			<point x="535" y="510"/>
			<point x="551" y="528"/>
			<point x="551" y="549" type="curve" smooth="yes"/>
			<point x="551" y="633"/>
			<point x="430" y="715"/>
			<point x="331" y="715" type="curve" smooth="yes"/>
			<point x="168" y="715"/>
			<point x="60" y="574"/>
			<point x="60" y="348" type="curve" smooth="yes"/>
			<point x="60" y="131"/>
			<point x="167" y="-15"/>
		</contour>
	</outline>
</glyph>
<glyph name="D" format="2">
	<advance width="639"/>
	<unicode hex="0044"/>
	<anchor x="304" y="0" name="bottom"/>
	<anchor x="324" y="350" name="center"/>
	<anchor x="304" y="700" name="top"/>
	<outline>
		<contour>
			<point x="151" y="0" type="line"/>
			<point x="296" y="0" type="line" smooth="yes"/>
			<point x="482" y="0"/>
			<point x="587" y="124"/>
			<point x="587" y="354" type="curve" smooth="yes"/>
			<point x="587" y="540"/>
			<point x="497" y="700"/>
			<point x="313" y="700" type="curve" smooth="yes"/>
			<point x="151" y="700" type="line"/>
			<point x="151" y="624" type="line"/>
			<point x="313" y="624" type="line" smooth="yes"/>
			<point x="444" y="624"/>
			<point x="505" y="507"/>
			<point x="505" y="354" type="curve" smooth="yes"/>
			<point x="505" y="166"/>
			<point x="438" y="76"/>
			<point x="293" y="76" type="curve" smooth="yes"/>
			<point x="151" y="76" type="line"/>
		</contour>
		<contour>
			<point x="121" y="0" type="curve" smooth="yes"/>
			<point x="162" y="0" type="line"/>
			<point x="162" y="700" type="line"/>
			<point x="121" y="700" type="line" smooth="yes"/>
			<point x="98" y="700"/>
			<point x="80" y="682"/>
			<point x="80" y="659" type="curve" smooth="yes"/>
			<point x="80" y="41" type="line" smooth="yes"/>
			<point x="80" y="18"/>
			<point x="98" y="0"/>
		</contour>
	</outline>
</glyph>
<glyph name="I" format="2">
	<advance width="242"/>
	<unicode hex="0049"/>
	<anchor x="121" y="0" name="bottom"/>
	<anchor x="81" y="0" name="ogonek"/>
	<anchor x="121" y="700" name="top"/>
	<anchor x="20" y="700" name="topleft"/>
	<outline>
		<contour>
			<point x="121" y="-10" type="curve" smooth="yes"/>
			<point x="144" y="-10"/>
			<point x="162" y="8"/>
			<point x="162" y="31" type="curve" smooth="yes"/>
			<point x="162" y="664" type="line" smooth="yes"/>
			<point x="162" y="687"/>
			<point x="144" y="705"/>
			<point x="121" y="705" type="curve" smooth="yes"/>
			<point x="98" y="705"/>
			<point x="80" y="687"/>
			<point x="80" y="664" type="curve" smooth="yes"/>
			<point x="80" y="31" type="line" smooth="yes"/>
			<point x="80" y="8"/>
			<point x="98" y="-10"/>
		</contour>
	</outline>
</glyph>
<glyph name="J" format="2">
	<advance width="500"/>
	<unicode hex="004A"/>
	<anchor x="250" y="0" name="bottom"/>
	<anchor x="380" y="700" name="top"/>
	<outline>
		<contour>
			<point x="232" y="-14" type="curve" smooth="yes"/>
			<point x="373" y="-14"/>
			<point x="420" y="94"/>
			<point x="420" y="192" type="curve" smooth="yes"/>
			<point x="420" y="664" type="line" smooth="yes"/>
			<point x="420" y="687"/>
			<point x="402" y="705"/>
			<point x="379" y="705" type="curve" smooth="yes"/>
			<point x="356" y="705"/>
			<point x="338" y="687"/>
			<point x="338" y="664" type="curve" smooth="yes"/>
			<point x="338" y="192" type="line" smooth="yes"/>
			<point x="338" y="120"/>
			<point x="315" y="65"/>
			<point x="232" y="65" type="curve" smooth="yes"/>
			<point x="140" y="65"/>
			<point x="117" y="133"/>
			<point x="117" y="186" type="curve" smooth="yes"/>
			<point x="117" y="203" type="line" smooth="yes"/>
			<point x="117" y="226"/>
			<point x="99" y="244"/>
			<point x="76" y="244" type="curve" smooth="yes"/>
			<point x="53" y="244"/>
			<point x="35" y="226"/>
			<point x="35" y="203" type="curve" smooth="yes"/>
			<point x="35" y="186" type="line" smooth="yes"/>
			<point x="35" y="115"/>
			<point x="79" y="-14"/>
		</contour>
	</outline>
</glyph>
<glyph name="K" format="2">
	<advance width="631"/>
	<unicode hex="004B"/>
	<anchor x="307" y="0" name="bottom"/>
	<anchor x="307" y="700" name="top"/>
	<outline>
		<contour>
			<point x="121" y="-5" type="curve" smooth="yes"/>
			<point x="144" y="-5"/>
			<point x="162" y="13"/>
			<point x="162" y="36" type="curve" smooth="yes"/>
			<point x="162" y="664" type="line" smooth="yes"/>
			<point x="162" y="687"/>
			<point x="144" y="705"/>
			<point x="121" y="705" type="curve" smooth="yes"/>
			<point x="98" y="705"/>
			<point x="80" y="687"/>
			<point x="80" y="664" type="curve" smooth="yes"/>
			<point x="80" y="36" type="line" smooth="yes"/>
			<point x="80" y="13"/>
			<point x="98" y="-5"/>
		</contour>
		<contour>
			<point x="125" y="216" type="line"/>
			<point x="531" y="630" type="line" smooth="yes"/>
			<point x="539" y="638"/>
			<point x="543" y="648"/>
			<point x="543" y="659" type="curve" smooth="yes"/>
			<point x="543" y="681"/>
			<point x="525" y="700"/>
			<point x="502" y="700" type="curve" smooth="yes"/>
			<point x="491" y="700"/>
			<point x="481" y="695"/>
			<point x="474" y="688" type="curve" smooth="yes"/>
			<point x="125" y="332" type="line"/>
		</contour>
		<contour>
			<point x="530" y="-7" type="curve" smooth="yes"/>
			<point x="553" y="-7"/>
			<point x="571" y="12"/>
			<point x="571" y="34" type="curve" smooth="yes"/>
			<point x="571" y="43"/>
			<point x="568" y="51"/>
			<point x="563" y="58" type="curve" smooth="yes"/>
			<point x="312" y="421" type="line"/>
			<point x="255" y="361" type="line"/>
			<point x="497" y="11" type="line" smooth="yes"/>
			<point x="504" y="0"/>
			<point x="516" y="-7"/>
		</contour>
	</outline>
</glyph>
<glyph name="M" format="2">
	<advance width="832"/>
	<unicode hex="004D"/>
	<outline>
		<contour>
			<point x="411" y="-10" type="curve" smooth="yes"/>
			<point x="430" y="-10"/>
			<point x="446" y="5"/>
			<point x="460" y="36" type="curve" smooth="yes"/>
			<point x="707" y="593" type="line"/>
			<point x="678" y="613" type="line"/>
			<point x="670" y="31" type="line" smooth="yes"/>
			<point x="670" y="8"/>
			<point x="688" y="-10"/>
			<point x="711" y="-10" type="curve" smooth="yes"/>
			<point x="734" y="-10"/>
			<point x="752" y="8"/>
			<point x="752" y="31" type="curve" smooth="yes"/>
			<point x="752" y="669" type="line" smooth="yes"/>
			<point x="752" y="692"/>
			<point x="734" y="710"/>
			<point x="704" y="710" type="curve" smooth="yes"/>
			<point x="687" y="710"/>
			<point x="671" y="699"/>
			<point x="664" y="684" type="curve" smooth="yes"/>
			<point x="396" y="80" type="line"/>
			<point x="426" y="80" type="line"/>
			<point x="168" y="684" type="line" smooth="yes"/>
			<point x="162" y="699"/>
			<point x="145" y="710"/>
			<point x="128" y="710" type="curve" smooth="yes"/>
			<point x="98" y="710"/>
			<point x="80" y="692"/>
			<point x="80" y="669" type="curve" smooth="yes"/>
			<point x="80" y="31" type="line" smooth="yes"/>
			<point x="80" y="8"/>
			<point x="98" y="-10"/>
			<point x="121" y="-10" type="curve" smooth="yes"/>
			<point x="144" y="-10"/>
			<point x="162" y="8"/>
			<point x="162" y="31" type="curve" smooth="yes"/>
			<point x="154" y="613" type="line"/>
			<point x="125" y="593" type="line"/>
			<point x="362" y="36" type="line" smooth="yes"/>
			<point x="375" y="5"/>
			<point x="392" y="-10"/>
		</contour>
	</outline>
</glyph>
<glyph name="N" format="2">
	<advance width="657"/>
	<unicode hex="004E"/>
	<anchor x="329" y="0" name="bottom"/>
	<anchor x="329" y="700" name="top"/>
	<outline>
		<contour>
			<point x="121" y="-4" type="curve" smooth="yes"/>
			<point x="144" y="-4"/>
			<point x="162" y="14"/>
			<point x="162" y="37" type="curve" smooth="yes"/>
			<point x="158" y="608" type="line"/>
			<point x="105" y="636" type="line"/>
			<point x="480" y="31" type="line" smooth="yes"/>
			<point x="493" y="10"/>
			<point x="504" y="-5"/>
			<point x="536" y="-5" type="curve" smooth="yes"/>
			<point x="559" y="-5"/>
			<point x="577" y="13"/>
			<point x="577" y="36" type="curve" smooth="yes"/>
			<point x="577" y="664" type="line" smooth="yes"/>
			<point x="577" y="687"/>
			<point x="559" y="705"/>
			<point x="536" y="705" type="curve" smooth="yes"/>
			<point x="513" y="705"/>
			<point x="495" y="687"/>
			<point x="495" y="664" type="curve" smooth="yes"/>
			<point x="500" y="71" type="line"/>
			<point x="515" y="122" type="line"/>
			<point x="177" y="669" type="line" smooth="yes"/>
			<point x="164" y="690"/>
			<point x="153" y="705"/>
			<point x="121" y="705" type="curve" smooth="yes"/>
			<point x="98" y="705"/>
			<point x="80" y="687"/>
			<point x="80" y="664" type="curve" smooth="yes"/>
			<point x="80" y="37" type="line" smooth="yes"/>
			<point x="80" y="14"/>
			<point x="98" y="-4"/>
		</contour>
	</outline>
</glyph>
<glyph name="O" format="2">
	<advance width="676"/>
	<unicode hex="004F"/>
	<anchor x="338" y="0" name="bottom"/>
	<anchor x="338" y="350" name="center"/>
	<anchor x="426" y="0" name="ogonek"/>
	<anchor x="338" y="700" name="top"/>
	<anchor x="14" y="700" name="topleft"/>
	<anchor x="662" y="700" name="topright"/>
	<outline>
		<contour>
			<point x="338" y="-15" type="curve" smooth="yes"/>
			<point x="514" y="-15"/>
			<point x="622" y="129"/>
			<point x="622" y="350" type="curve" smooth="yes"/>
			<point x="622" y="571"/>
			<point x="504" y="715"/>
			<point x="338" y="715" type="curve" smooth="yes"/>
			<point x="172" y="715"/>
			<point x="54" y="571"/>
			<point x="54" y="350" type="curve" smooth="yes"/>
			<point x="54" y="129"/>
			<point x="162" y="-15"/>
		</contour>
		<contour>
			<point x="338" y="60" type="curve" smooth="yes"/>
			<point x="212" y="60"/>
			<point x="136" y="178"/>
			<point x="136" y="350" type="curve" smooth="yes"/>
			<point x="136" y="521"/>
			<point x="212" y="640"/>
			<point x="338" y="640" type="curve" smooth="yes"/>
			<point x="464" y="640"/>
			<point x="540" y="521"/>
			<point x="540" y="350" type="curve" smooth="yes"/>
			<point x="540" y="178"/>
			<point x="464" y="60"/>
		</contour>
	</outline>
</glyph>
<glyph name="Q" format="2">
	<advance width="682"/>
	<unicode hex="0051"/>
	<outline>
		<contour>
			<point x="345" y="58" type="curve" smooth="yes"/>
			<point x="214" y="58"/>
			<point x="138" y="179"/>
			<point x="138" y="350" type="curve" smooth="yes"/>
			<point x="138" y="521"/>
			<point x="214" y="643"/>
			<point x="345" y="643" type="curve" smooth="yes"/>
			<point x="477" y="643"/>
			<point x="553" y="521"/>
			<point x="553" y="350" type="curve" smooth="yes"/>
			<point x="553" y="179"/>
			<point x="477" y="58"/>
		</contour>
		<contour>
			<point x="345" y="-14" type="curve" smooth="yes"/>
			<point x="527" y="-14"/>
			<point x="630" y="130"/>
			<point x="630" y="350" type="curve" smooth="yes"/>
			<point x="630" y="571"/>
			<point x="527" y="715"/>
			<point x="345" y="715" type="curve" smooth="yes"/>
			<point x="174" y="715"/>
			<point x="56" y="571"/>
			<point x="56" y="350" type="curve" smooth="yes"/>
			<point x="56" y="130"/>
			<point x="164" y="-14"/>
		</contour>
		<contour>
			<point x="580" y="-50" type="curve" smooth="yes"/>
			<point x="603" y="-50"/>
			<point x="645" y="-41"/>
			<point x="645" y="-6" type="curve" smooth="yes"/>
			<point x="645" y="15"/>
			<point x="628" y="33"/>
			<point x="606" y="33" type="curve" smooth="yes"/>
			<point x="590" y="33"/>
			<point x="594" y="26"/>
			<point x="580" y="26" type="curve" smooth="yes"/>
			<point x="556" y="26"/>
			<point x="537" y="48"/>
			<point x="518" y="80" type="curve"/>
			<point x="467" y="24" type="line"/>
			<point x="495" y="-18"/>
			<point x="528" y="-50"/>
		</contour>
		<contour>
			<point x="442" y="56" type="curve"/>
			<point x="490" y="110" type="line"/>
			<point x="468" y="147"/>
			<point x="452" y="176"/>
			<point x="435" y="196" type="curve" smooth="yes"/>
			<point x="418" y="217"/>
			<point x="400" y="228"/>
			<point x="377" y="228" type="curve" smooth="yes"/>
			<point x="353" y="228"/>
			<point x="331" y="215"/>
			<point x="331" y="189" type="curve" smooth="yes"/>
			<point x="331" y="166"/>
			<point x="350" y="150"/>
			<point x="374" y="150" type="curve" smooth="yes"/>
			<point x="390" y="150"/>
			<point x="399" y="136"/>
		</contour>
	</outline>
</glyph>
<glyph name="R" format="2">
	<advance width="629"/>
	<unicode hex="0052"/>
	<anchor x="316" y="0" name="bottom"/>
	<anchor x="305" y="700" name="top"/>
	<outline>
		<contour>
			<point x="121" y="-10" type="curve" smooth="yes"/>
			<point x="144" y="-10"/>
			<point x="162" y="8"/>
			<point x="162" y="31" type="curve" smooth="yes"/>
			<point x="162" y="700" type="line"/>
			<point x="121" y="700" type="line" smooth="yes"/>
			<point x="98" y="700"/>
			<point x="80" y="682"/>
			<point x="80" y="659" type="curve" smooth="yes"/>
			<point x="80" y="31" type="line" smooth="yes"/>
			<point x="80" y="8"/>
			<point x="98" y="-10"/>
		</contour>
		<contour>
			<point x="125" y="328" type="line"/>
			<point x="374" y="328" type="line" smooth="yes"/>
			<point x="484" y="328"/>
			<point x="570" y="404"/>
			<point x="570" y="513" type="curve" smooth="yes"/>
			<point x="570" y="623"/>
			<point x="483" y="700"/>
			<point x="367" y="700" type="curve" smooth="yes"/>
			<point x="121" y="700" type="line"/>
			<point x="121" y="622" type="line"/>
			<point x="373" y="622" type="line" smooth="yes"/>
			<point x="442" y="622"/>
			<point x="489" y="578"/>
			<point x="489" y="513" type="curve" smooth="yes"/>
			<point x="489" y="450"/>
			<point x="446" y="406"/>
			<point x="382" y="406" type="curve" smooth="yes"/>
			<point x="125" y="406" type="line"/>
		</contour>
		<contour>
			<point x="538" y="-10" type="curve" smooth="yes"/>
			<point x="561" y="-10"/>
			<point x="579" y="9"/>
			<point x="579" y="31" type="curve" smooth="yes"/>
			<point x="579" y="38"/>
			<point x="578" y="44"/>
			<point x="575" y="49" type="curve" smooth="yes"/>
			<point x="427" y="354" type="line"/>
			<point x="341" y="354" type="line"/>
			<point x="502" y="13" type="line" smooth="yes"/>
			<point x="509" y="-1"/>
			<point x="523" y="-10"/>
		</contour>
	</outline>
</glyph>
<glyph name="S" format="2">
	<advance width="596"/>
	<unicode hex="0053"/>
	<anchor x="310" y="0" name="bottom"/>
	<anchor x="298" y="700" name="top"/>
	<outline>
		<contour>
			<point x="312" y="-15" type="curve" smooth="yes"/>
			<point x="457" y="-15"/>
			<point x="551" y="65"/>
			<point x="551" y="188" type="curve" smooth="yes"/>
			<point x="551" y="358"/>
			<point x="401" y="380"/>
			<point x="286" y="410" type="curve" smooth="yes"/>
			<point x="214" y="429"/>
			<point x="156" y="445"/>
			<point x="156" y="524" type="curve" smooth="yes"/>
			<point x="156" y="569"/>
			<point x="190" y="635"/>
			<point x="296" y="635" type="curve" smooth="yes"/>
			<point x="401" y="635"/>
			<point x="439" y="582"/>
			<point x="448" y="526" type="curve" smooth="yes"/>
			<point x="451" y="507"/>
			<point x="468" y="492"/>
			<point x="488" y="492" type="curve" smooth="yes"/>
			<point x="513" y="492"/>
			<point x="532" y="515"/>
			<point x="528" y="540" type="curve" smooth="yes"/>
			<point x="515" y="621"/>
			<point x="446" y="710"/>
			<point x="296" y="710" type="curve" smooth="yes"/>
			<point x="138" y="710"/>
			<point x="74" y="598"/>
			<point x="74" y="527" type="curve" smooth="yes"/>
			<point x="74" y="398"/>
			<point x="164" y="355"/>
			<point x="258" y="332" type="curve" smooth="yes"/>
			<point x="361" y="307"/>
			<point x="469" y="297"/>
			<point x="469" y="186" type="curve" smooth="yes"/>
			<point x="469" y="112"/>
			<point x="407" y="60"/>
			<point x="312" y="60" type="curve" smooth="yes"/>
			<point x="151" y="60"/>
			<point x="127" y="152"/>
			<point x="127" y="193" type="curve" smooth="yes"/>
			<point x="127" y="218"/>
			<point x="109" y="236"/>
			<point x="86" y="236" type="curve" smooth="yes"/>
			<point x="63" y="236"/>
			<point x="45" y="218"/>
			<point x="45" y="193" type="curve" smooth="yes"/>
			<point x="45" y="131"/>
			<point x="92" y="-15"/>
		</contour>
	</outline>
</glyph>
<glyph name="T" format="2">
	<advance width="605"/>
	<unicode hex="0054"/>
	<anchor x="304" y="0" name="bottom"/>
	<anchor x="303" y="350" name="center"/>
	<anchor x="303" y="700" name="top"/>
	<outline>
		<contour>
			<point x="305" y="-10" type="curve" smooth="yes"/>
			<point x="328" y="-10"/>
			<point x="346" y="8"/>
			<point x="346" y="31" type="curve" smooth="yes"/>
			<point x="346" y="624" type="line"/>
			<point x="517" y="624" type="line" smooth="yes"/>
			<point x="538" y="624"/>
			<point x="555" y="641"/>
			<point x="555" y="662" type="curve" smooth="yes"/>
			<point x="555" y="683"/>
			<point x="538" y="700"/>
			<point x="517" y="700" type="curve" smooth="yes"/>
			<point x="88" y="700" type="line" smooth="yes"/>
			<point x="67" y="700"/>
			<point x="50" y="683"/>
			<point x="50" y="662" type="curve" smooth="yes"/>
			<point x="50" y="641"/>
			<point x="67" y="624"/>
			<point x="88" y="624" type="curve" smooth="yes"/>
			<point x="264" y="624" type="line"/>
			<point x="264" y="31" type="line" smooth="yes"/>
			<point x="264" y="8"/>
			<point x="282" y="-10"/>
		</contour>
	</outline>
</glyph>
<glyph name="V" format="2">
	<advance width="594"/>
	<unicode hex="0056"/>
	<outline>
		<contour>
			<point x="297" y="-15" type="curve" smooth="yes"/>
			<point x="316" y="-15"/>
			<point x="335" y="0"/>
			<point x="346" y="31" type="curve" smooth="yes"/>
			<point x="562" y="663" type="line" smooth="yes"/>
			<point x="563" y="667"/>
			<point x="564" y="671"/>
			<point x="564" y="676" type="curve" smooth="yes"/>
			<point x="564" y="698"/>
			<point x="545" y="715"/>
			<point x="523" y="715" type="curve" smooth="yes"/>
			<point x="506" y="715"/>
			<point x="491" y="704"/>
			<point x="486" y="689" type="curve" smooth="yes"/>
			<point x="282" y="85" type="line"/>
			<point x="312" y="85" type="line"/>
			<point x="108" y="689" type="line" smooth="yes"/>
			<point x="103" y="704"/>
			<point x="88" y="715"/>
			<point x="71" y="715" type="curve" smooth="yes"/>
			<point x="49" y="715"/>
			<point x="30" y="698"/>
			<point x="30" y="676" type="curve" smooth="yes"/>
			<point x="30" y="671"/>
			<point x="31" y="667"/>
			<point x="32" y="663" type="curve" smooth="yes"/>
			<point x="248" y="31" type="line" smooth="yes"/>
			<point x="259" y="0"/>
			<point x="278" y="-15"/>
		</contour>
	</outline>
</glyph>
<glyph name="W" format="2">
	<advance width="841"/>
	<unicode hex="0057"/>
	<anchor x="421" y="0" name="bottom"/>
	<anchor x="421" y="700" name="top"/>
	<outline>
		<contour>
			<point x="227" y="-15" type="curve" smooth="yes"/>
			<point x="246" y="-15"/>
			<point x="267" y="0"/>
			<point x="276" y="31" type="curve" smooth="yes"/>
			<point x="430" y="573" type="line"/>
			<point x="410" y="573" type="line"/>
			<point x="565" y="31" type="line" smooth="yes"/>
			<point x="574" y="0"/>
			<point x="595" y="-15"/>
			<point x="614" y="-15" type="curve" smooth="yes"/>
			<point x="633" y="-15"/>
			<point x="656" y="0"/>
			<point x="663" y="31" type="curve" smooth="yes"/>
			<point x="809" y="663" type="line" smooth="yes"/>
			<point x="810" y="667"/>
			<point x="811" y="671"/>
			<point x="811" y="676" type="curve" smooth="yes"/>
			<point x="811" y="698"/>
			<point x="792" y="715"/>
			<point x="770" y="715" type="curve" smooth="yes"/>
			<point x="753" y="715"/>
			<point x="736" y="704"/>
			<point x="733" y="689" type="curve" smooth="yes"/>
			<point x="603" y="99" type="line"/>
			<point x="625" y="100" type="line"/>
			<point x="462" y="679" type="line" smooth="yes"/>
			<point x="456" y="700"/>
			<point x="439" y="715"/>
			<point x="420" y="715" type="curve" smooth="yes"/>
			<point x="402" y="715"/>
			<point x="385" y="700"/>
			<point x="379" y="679" type="curve" smooth="yes"/>
			<point x="216" y="100" type="line"/>
			<point x="238" y="99" type="line"/>
			<point x="108" y="689" type="line" smooth="yes"/>
			<point x="105" y="704"/>
			<point x="88" y="715"/>
			<point x="71" y="715" type="curve" smooth="yes"/>
			<point x="49" y="715"/>
			<point x="30" y="698"/>
			<point x="30" y="676" type="curve" smooth="yes"/>
			<point x="30" y="671"/>
			<point x="31" y="667"/>
			<point x="32" y="663" type="curve" smooth="yes"/>
			<point x="178" y="31" type="line" smooth="yes"/>
			<point x="185" y="0"/>
			<point x="208" y="-15"/>
		</contour>
	</outline>
</glyph>
<glyph name="Y" format="2">
	<advance width="596"/>
	<unicode hex="0059"/>
	<anchor x="291" y="0" name="bottom"/>
	<anchor x="298" y="700" name="top"/>
	<anchor x="20" y="700" name="topleft"/>
	<outline>
		<contour>
			<point x="291" y="-10" type="curve" smooth="yes"/>
			<point x="314" y="-10"/>
			<point x="332" y="8"/>
			<point x="332" y="31" type="curve" smooth="yes"/>
			<point x="332" y="341" type="line"/>
			<point x="558" y="646" type="line" smooth="yes"/>
			<point x="563" y="652"/>
			<point x="566" y="660"/>
			<point x="566" y="669" type="curve" smooth="yes"/>
			<point x="566" y="691"/>
			<point x="549" y="708"/>
			<point x="527" y="708" type="curve" smooth="yes"/>
			<point x="514" y="708"/>
			<point x="503" y="702"/>
			<point x="496" y="692" type="curve" smooth="yes"/>
			<point x="265" y="382" type="line"/>
			<point x="318" y="381" type="line"/>
			<point x="101" y="691" type="line" smooth="yes"/>
			<point x="94" y="701"/>
			<point x="82" y="708"/>
			<point x="69" y="708" type="curve" smooth="yes"/>
			<point x="47" y="708"/>
			<point x="30" y="691"/>
			<point x="30" y="669" type="curve" smooth="yes"/>
			<point x="30" y="661"/>
			<point x="33" y="653"/>
			<point x="37" y="647" type="curve" smooth="yes"/>
			<point x="250" y="341" type="line"/>
			<point x="250" y="31" type="line" smooth="yes"/>
			<point x="250" y="8"/>
			<point x="268" y="-10"/>
		</contour>
	</outline>
</glyph>
<glyph name="Z" format="2">
	<advance width="586"/>
	<unicode hex="005A"/>
	<anchor x="293" y="0" name="bottom"/>
	<anchor x="293" y="350" name="center"/>
	<anchor x="293" y="700" name="top"/>
	<outline>
		<contour>
			<point x="107" y="0" type="curve" smooth="yes"/>
			<point x="502" y="0" type="line" smooth="yes"/>
			<point x="524" y="0"/>
			<point x="541" y="17"/>
			<point x="541" y="39" type="curve" smooth="yes"/>
			<point x="541" y="61"/>
			<point x="524" y="78"/>
			<point x="502" y="78" type="curve" smooth="yes"/>
			<point x="106" y="78" type="line"/>
			<point x="126" y="40" type="line"/>
			<point x="506" y="614" type="line" smooth="yes"/>
			<point x="518" y="633"/>
			<point x="525" y="649"/>
			<point x="525" y="662" type="curve" smooth="yes"/>
			<point x="525" y="686"/>
			<point x="510" y="700"/>
			<point x="463" y="700" type="curve" smooth="yes"/>
			<point x="95" y="700" type="line" smooth="yes"/>
			<point x="73" y="700"/>
			<point x="56" y="683"/>
			<point x="56" y="661" type="curve" smooth="yes"/>
			<point x="56" y="639"/>
			<point x="73" y="622"/>
			<point x="95" y="622" type="curve" smooth="yes"/>
			<point x="465" y="622" type="line"/>
			<point x="442" y="659" type="line"/>
			<point x="64" y="86" type="line"/>
			<point x="52" y="67"/>
			<point x="45" y="51"/>
			<point x="45" y="38" type="curve" smooth="yes"/>
			<point x="45" y="14"/>
			<point x="60" y="0"/>
		</contour>
	</outline>
</glyph>
<glyph name="backslash" format="2">
	<advance width="396"/>
	<unicode hex="005C"/>
	<outline>
		<contour>
			<point x="42" y="676" type="curve" smooth="yes"/>
			<point x="278" y="-136" type="line" smooth="yes"/>
			<point x="282" y="-153"/>
			<point x="298" y="-165"/>
			<point x="316" y="-165" type="curve" smooth="yes"/>
			<point x="342" y="-165"/>
			<point x="362" y="-139"/>
			<point x="354" y="-114" type="curve" smooth="yes"/>
			<point x="118" y="698" type="line" smooth="yes"/>
			<point x="114" y="715"/>
			<point x="98" y="727"/>
			<point x="80" y="727" type="curve" smooth="yes"/>
			<point x="54" y="727"/>
			<point x="34" y="701"/>
		</contour>
	</outline>
</glyph>
<glyph name="asciicircum" format="2">
	<advance width="420"/>
	<unicode hex="005E"/>
	<outline>
		<contour>
			<point x="87" y="427" type="move"/>
			<point x="196" y="637" type="line" smooth="yes"/>
			<point x="203" y="651"/>
			<point x="217" y="651"/>
			<point x="224" y="637" type="curve" smooth="yes"/>
			<point x="333" y="427" type="line"/>
		</contour>
	</outline>
</glyph>
<glyph name="a" format="2">
	<advance width="526"/>
	<unicode hex="0061"/>
	<anchor x="263" y="0" name="bottom"/>
	<anchor x="414" y="0" name="ogonek"/>
	<anchor x="268" y="515" name="top"/>
	<outline>
		<contour>
			<point x="212" y="-15" type="curve" smooth="yes"/>
			<point x="273" y="-16"/>
			<point x="340" y="0"/>
			<point x="378" y="63" type="curve"/>
			<point x="381" y="63" type="line"/>
			<point x="381" y="49" type="line" smooth="yes"/>
			<point x="381" y="19"/>
			<point x="408" y="-8"/>
			<point x="440" y="-8" type="curve" smooth="yes"/>
			<point x="478" y="-8"/>
			<point x="496" y="9"/>
			<point x="496" y="32" type="curve" smooth="yes"/>
			<point x="496" y="53"/>
			<point x="480" y="72"/>
			<point x="461" y="72" type="curve" smooth="yes"/>
			<point x="454" y="72"/>
			<point x="454" y="83"/>
			<point x="454" y="102" type="curve" smooth="yes"/>
			<point x="454" y="335" type="line" smooth="yes"/>
			<point x="454" y="435"/>
			<point x="417" y="530"/>
			<point x="266" y="530" type="curve" smooth="yes"/>
			<point x="156" y="530"/>
			<point x="100" y="462"/>
			<point x="83" y="424" type="curve" smooth="yes"/>
			<point x="72" y="400"/>
			<point x="82" y="368"/>
			<point x="117" y="368" type="curve" smooth="yes"/>
			<point x="136" y="368"/>
			<point x="146" y="377"/>
			<point x="156" y="395" type="curve" smooth="yes"/>
			<point x="169" y="418"/>
			<point x="201" y="453"/>
			<point x="267" y="453" type="curve" smooth="yes"/>
			<point x="347" y="453"/>
			<point x="372" y="411"/>
			<point x="372" y="369" type="curve" smooth="yes"/>
			<point x="372" y="322"/>
			<point x="331" y="305"/>
			<point x="236" y="304" type="curve" smooth="yes"/>
			<point x="103" y="303"/>
			<point x="40" y="220"/>
			<point x="40" y="138" type="curve" smooth="yes"/>
			<point x="40" y="58"/>
			<point x="100" y="-13"/>
		</contour>
		<contour>
			<point x="225" y="62" type="curve" smooth="yes"/>
			<point x="144" y="61"/>
			<point x="120" y="109"/>
			<point x="120" y="143" type="curve" smooth="yes"/>
			<point x="120" y="184"/>
			<point x="155" y="229"/>
			<point x="237" y="229" type="curve" smooth="yes"/>
			<point x="300" y="229"/>
			<point x="350" y="248"/>
			<point x="371" y="265" type="curve"/>
			<point x="374" y="270"/>
			<point x="374" y="266"/>
			<point x="374" y="265" type="curve" smooth="yes"/>
			<point x="374" y="197" type="line" smooth="yes"/>
			<point x="374" y="127"/>
			<point x="305" y="63"/>
		</contour>
	</outline>
</glyph>
<glyph name="c" format="2">
	<advance width="504"/>
	<unicode hex="0063"/>
	<anchor x="265" y="0" name="bottom"/>
	<anchor x="266" y="515" name="top"/>
	<outline>
		<contour>
			<point x="270" y="-15" type="curve" smooth="yes"/>
			<point x="372" y="-15"/>
			<point x="449" y="55"/>
			<point x="467" y="146" type="curve" smooth="yes"/>
			<point x="474" y="180"/>
			<point x="456" y="201"/>
			<point x="432" y="201" type="curve" smooth="yes"/>
			<point x="411" y="201"/>
			<point x="397" y="185"/>
			<point x="394" y="165" type="curve" smooth="yes"/>
			<point x="384" y="107"/>
			<point x="337" y="62"/>
			<point x="270" y="62" type="curve" smooth="yes"/>
			<point x="177" y="62"/>
			<point x="120" y="141"/>
			<point x="120" y="259" type="curve" smooth="yes"/>
			<point x="120" y="369"/>
			<point x="170" y="453"/>
			<point x="270" y="453" type="curve" smooth="yes"/>
			<point x="333" y="453"/>
			<point x="364" y="419"/>
			<point x="376" y="397" type="curve" smooth="yes"/>
			<point x="388" y="375"/>
			<point x="397" y="355"/>
			<point x="419" y="355" type="curve" smooth="yes"/>
			<point x="445" y="355"/>
			<point x="458" y="375"/>
			<point x="454" y="402" type="curve" smooth="yes"/>
			<point x="444" y="470"/>
			<point x="370" y="530"/>
			<point x="270" y="530" type="curve" smooth="yes"/>
			<point x="133" y="530"/>
			<point x="40" y="412"/>
			<point x="40" y="259" type="curve" smooth="yes"/>
			<point x="40" y="103"/>
			<point x="126" y="-15"/>
		</contour>
	</outline>
</glyph>
<glyph name="d" format="2">
	<advance width="570"/>
	<unicode hex="0064"/>
	<anchor x="285" y="0" name="bottom"/>
	<anchor x="285" y="258" name="center"/>
	<anchor x="515" y="720" name="top"/>
	<outline>
		<contour>
			<point x="253" y="-15" type="curve" smooth="yes"/>
			<point x="325" y="-15"/>
			<point x="393" y="20"/>
			<point x="436" y="84" type="curve"/>
			<point x="420" y="102" type="line"/>
			<point x="420" y="31" type="line" smooth="yes"/>
			<point x="420" y="8"/>
			<point x="438" y="-10"/>
			<point x="460" y="-10" type="curve" smooth="yes"/>
			<point x="482" y="-10"/>
			<point x="500" y="8"/>
			<point x="500" y="31" type="curve" smooth="yes"/>
			<point x="500" y="690" type="line" smooth="yes"/>
			<point x="500" y="712"/>
			<point x="482" y="730"/>
			<point x="460" y="730" type="curve" smooth="yes"/>
			<point x="438" y="730"/>
			<point x="420" y="712"/>
			<point x="420" y="690" type="curve" smooth="yes"/>
			<point x="420" y="427" type="line"/>
			<point x="437" y="443" type="line"/>
			<point x="417" y="491"/>
			<point x="344" y="530"/>
			<point x="263" y="530" type="curve" smooth="yes"/>
			<point x="124" y="530"/>
			<point x="40" y="402"/>
			<point x="40" y="258" type="curve" smooth="yes"/>
			<point x="40" y="114"/>
			<point x="115" y="-15"/>
		</contour>
		<contour>
			<point x="275" y="62" type="curve" smooth="yes"/>
			<point x="176" y="61"/>
			<point x="120" y="138"/>
			<point x="120" y="258" type="curve" smooth="yes"/>
			<point x="120" y="381"/>
			<point x="177" y="453"/>
			<point x="273" y="453" type="curve" smooth="yes"/>
			<point x="362" y="453"/>
			<point x="420" y="376"/>
			<point x="420" y="258" type="curve" smooth="yes"/>
			<point x="420" y="130"/>
			<point x="369" y="63"/>
		</contour>
	</outline>
</glyph>
<glyph name="f" format="2">
	<advance width="325"/>
	<unicode hex="0066"/>
	<anchor x="163" y="0" name="bottom"/>
	<anchor x="163" y="720" name="top"/>
	<outline>
		<contour>
			<point x="87" y="579" type="curve" smooth="yes"/>
			<point x="87" y="30" type="line"/>
			<point x="87" y="8"/>
			<point x="105" y="-10"/>
			<point x="127" y="-10" type="curve" smooth="yes"/>
			<point x="149" y="-10"/>
			<point x="167" y="8"/>
			<point x="167" y="30" type="curve" smooth="yes"/>
			<point x="167" y="579" type="line" smooth="yes"/>
			<point x="167" y="635"/>
			<point x="182" y="655"/>
			<point x="203" y="655" type="curve" smooth="yes"/>
			<point x="210" y="655"/>
			<point x="219" y="654"/>
			<point x="229" y="645" type="curve" smooth="yes"/>
			<point x="235" y="640"/>
			<point x="245" y="635"/>
			<point x="257" y="635" type="curve" smooth="yes"/>
			<point x="279" y="635"/>
			<point x="295" y="653"/>
			<point x="295" y="674" type="curve" smooth="yes"/>
			<point x="295" y="709"/>
			<point x="248" y="735"/>
			<point x="204" y="735" type="curve" smooth="yes"/>
			<point x="148" y="735"/>
			<point x="87" y="694"/>
		</contour>
		<contour>
			<point x="60" y="442" type="curve" smooth="yes"/>
			<point x="251" y="442" type="line" smooth="yes"/>
			<point x="273" y="442"/>
			<point x="291" y="458"/>
			<point x="291" y="478" type="curve" smooth="yes"/>
			<point x="291" y="498"/>
			<point x="273" y="515"/>
			<point x="251" y="515" type="curve" smooth="yes"/>
			<point x="60" y="515" type="line" smooth="yes"/>
			<point x="38" y="515"/>
			<point x="20" y="499"/>
			<point x="20" y="478" type="curve" smooth="yes"/>
			<point x="20" y="458"/>
			<point x="38" y="442"/>
		</contour>
	</outline>
</glyph>
<glyph name="g" format="2">
	<advance width="562"/>
	<unicode hex="0067"/>
	<anchor x="281" y="-170" name="bottom"/>
	<anchor x="281" y="515" name="top"/>
	<outline>
		<contour>
			<point x="268" y="-180" type="curve" smooth="yes"/>
			<point x="410" y="-180"/>
			<point x="492" y="-95"/>
			<point x="492" y="52" type="curve" smooth="yes"/>
			<point x="492" y="485" type="line" smooth="yes"/>
			<point x="492" y="507"/>
			<point x="474" y="525"/>
			<point x="452" y="525" type="curve" smooth="yes"/>
			<point x="429" y="525"/>
			<point x="412" y="507"/>
			<point x="412" y="485" type="curve" smooth="yes"/>
			<point x="412" y="450" type="line"/>
			<point x="389" y="496"/>
			<point x="339" y="530"/>
			<point x="263" y="530" type="curve" smooth="yes"/>
			<point x="127" y="530"/>
			<point x="40" y="403"/>
			<point x="40" y="255" type="curve" smooth="yes"/>
			<point x="40" y="122"/>
			<point x="113" y="-6"/>
			<point x="259" y="-6" type="curve" smooth="yes"/>
			<point x="329" y="-6"/>
			<point x="378" y="23"/>
			<point x="411" y="79" type="curve"/>
			<point x="415" y="79" type="line"/>
			<point x="415" y="55" type="line" smooth="yes"/>
			<point x="415" y="-25"/>
			<point x="372" y="-106"/>
			<point x="268" y="-106" type="curve" smooth="yes"/>
			<point x="197" y="-106"/>
			<point x="163" y="-73"/>
			<point x="151" y="-61" type="curve" smooth="yes"/>
			<point x="136" y="-45"/>
			<point x="134" y="-32"/>
			<point x="109" y="-32" type="curve" smooth="yes"/>
			<point x="90" y="-32"/>
			<point x="72" y="-50"/>
			<point x="72" y="-72" type="curve" smooth="yes"/>
			<point x="72" y="-118"/>
			<point x="151" y="-180"/>
		</contour>
		<contour>
			<point x="267" y="71" type="curve" smooth="yes"/>
			<point x="182" y="71"/>
			<point x="120" y="160"/>
			<point x="120" y="259" type="curve" smooth="yes"/>
			<point x="120" y="368"/>
			<point x="182" y="453"/>
			<point x="270" y="453" type="curve" smooth="yes"/>
			<point x="355" y="453"/>
			<point x="412" y="392"/>
			<point x="412" y="264" type="curve" smooth="yes"/>
			<point x="412" y="120"/>
			<point x="329" y="71"/>
		</contour>
	</outline>
</glyph>
<glyph name="h" format="2">
	<advance width="545"/>
	<unicode hex="0068"/>
	<anchor x="273" y="0" name="bottom"/>
	<anchor x="273" y="360" name="center"/>
	<anchor x="273" y="720" name="top"/>
	<outline>
		<contour>
			<point x="150" y="30" type="curve" smooth="yes"/>
			<point x="150" y="690" type="line" smooth="yes"/>
			<point x="150" y="712"/>
			<point x="132" y="730"/>
			<point x="110" y="730" type="curve" smooth="yes"/>
			<point x="87" y="730"/>
			<point x="70" y="712"/>
			<point x="70" y="690" type="curve" smooth="yes"/>
			<point x="70" y="30" type="line" smooth="yes"/>
			<point x="70" y="8"/>
			<point x="87" y="-10"/>
			<point x="110" y="-10" type="curve" smooth="yes"/>
			<point x="132" y="-10"/>
			<point x="150" y="8"/>
		</contour>
		<contour>
			<point x="139" y="449" type="curve"/>
			<point x="139" y="333" type="line"/>
			<point x="150" y="343" type="line"/>
			<point x="150" y="403"/>
			<point x="215" y="451"/>
			<point x="288" y="451" type="curve" smooth="yes"/>
			<point x="352" y="451"/>
			<point x="405" y="412"/>
			<point x="405" y="344" type="curve" smooth="yes"/>
			<point x="405" y="30" type="line" smooth="yes"/>
			<point x="405" y="8"/>
			<point x="423" y="-10"/>
			<point x="445" y="-10" type="curve" smooth="yes"/>
			<point x="467" y="-10"/>
			<point x="485" y="8"/>
			<point x="485" y="30" type="curve" smooth="yes"/>
			<point x="485" y="344" type="line" smooth="yes"/>
			<point x="485" y="468"/>
			<point x="385" y="530"/>
			<point x="295" y="530" type="curve" smooth="yes"/>
			<point x="230" y="530"/>
			<point x="180" y="498"/>
		</contour>
	</outline>
</glyph>
<glyph name="i" format="2">
	<advance width="238"/>
	<unicode hex="0069"/>
	<anchor x="114" y="0" name="bottom"/>
	<outline>
		<contour>
			<point x="114" y="-10" type="curve" smooth="yes"/>
			<point x="136" y="-10"/>
			<point x="154" y="8"/>
			<point x="154" y="30" type="curve" smooth="yes"/>
			<point x="154" y="485" type="line" smooth="yes"/>
			<point x="154" y="507"/>
			<point x="136" y="525"/>
			<point x="114" y="525" type="curve" smooth="yes"/>
			<point x="91" y="525"/>
			<point x="74" y="507"/>
			<point x="74" y="485" type="curve" smooth="yes"/>
			<point x="74" y="30" type="line" smooth="yes"/>
			<point x="74" y="8"/>
			<point x="91" y="-10"/>
		</contour>
		<component base="dotaccentcomb" xOffset="29"/>
	</outline>
</glyph>
<glyph name="l" format="2">
	<advance width="220"/>
	<unicode hex="006C"/>
	<anchor x="110" y="0" name="bottom"/>
	<anchor x="110" y="360" name="center"/>
	<anchor x="110" y="720" name="top"/>
	<anchor x="150" y="720" name="topright"/>
	<outline>
		<contour>
			<point x="110" y="-10" type="curve" smooth="yes"/>
			<point x="132" y="-10"/>
			<point x="150" y="8"/>
			<point x="150" y="30" type="curve" smooth="yes"/>
			<point x="150" y="690" type="line" smooth="yes"/>
			<point x="150" y="712"/>
			<point x="132" y="730"/>
			<point x="110" y="730" type="curve" smooth="yes"/>
			<point x="87" y="730"/>
			<point x="70" y="712"/>
			<point x="70" y="690" type="curve" smooth="yes"/>
			<point x="70" y="30" type="line" smooth="yes"/>
			<point x="70" y="8"/>
			<point x="87" y="-10"/>
		</contour>
	</outline>
</glyph>
<glyph name="n" format="2">
	<advance width="550"/>
	<unicode hex="006E"/>
	<anchor x="275" y="0" name="bottom"/>
	<anchor x="275" y="515" name="top"/>
	<outline>
		<contour>
			<point x="150" y="30" type="curve" smooth="yes"/>
			<point x="150" y="485" type="line" smooth="yes"/>
			<point x="150" y="507"/>
			<point x="132" y="525"/>
			<point x="110" y="525" type="curve" smooth="yes"/>
			<point x="88" y="525"/>
			<point x="70" y="507"/>
			<point x="70" y="485" type="curve" smooth="yes"/>
			<point x="70" y="30" type="line" smooth="yes"/>
			<point x="70" y="8"/>
			<point x="88" y="-10"/>
			<point x="110" y="-10" type="curve" smooth="yes"/>
			<point x="132" y="-10"/>
			<point x="150" y="8"/>
		</contour>
		<contour>
			<point x="139" y="449" type="curve"/>
			<point x="139" y="353" type="line"/>
			<point x="150" y="353" type="line"/>
			<point x="150" y="404"/>
			<point x="217" y="454"/>
			<point x="283" y="454" type="curve" smooth="yes"/>
			<point x="362" y="454"/>
			<point x="409" y="413"/>
			<point x="409" y="340" type="curve" smooth="yes"/>
			<point x="409" y="30" type="line" smooth="yes"/>
			<point x="409" y="8"/>
			<point x="427" y="-10"/>
			<point x="449" y="-10" type="curve" smooth="yes"/>
			<point x="471" y="-10"/>
			<point x="489" y="8"/>
			<point x="489" y="30" type="curve" smooth="yes"/>
			<point x="490" y="342" type="line" smooth="yes"/>
			<point x="490" y="455"/>
			<point x="413" y="530"/>
			<point x="297" y="530" type="curve" smooth="yes"/>
			<point x="238" y="530"/>
			<point x="176" y="503"/>
		</contour>
	</outline>
</glyph>
<glyph name="o" format="2">
	<advance width="546"/>
	<unicode hex="006F"/>
	<anchor x="273" y="0" name="bottom"/>
	<anchor x="273" y="258" name="center"/>
	<anchor x="309" y="10" name="ogonek"/>
	<anchor x="273" y="515" name="top"/>
	<anchor x="526" y="515" name="topright"/>
	<outline>
		<contour>
			<point x="426" y="259" type="curve"/>
			<point x="426" y="136"/>
			<point x="373" y="62"/>
			<point x="273" y="62" type="curve" smooth="yes"/>
			<point x="173" y="62"/>
			<point x="120" y="136"/>
			<point x="120" y="259" type="curve" smooth="yes"/>
			<point x="120" y="378"/>
			<point x="173" y="453"/>
			<point x="273" y="453" type="curve" smooth="yes"/>
			<point x="373" y="453"/>
			<point x="426" y="378"/>
		</contour>
		<contour>
			<point x="506" y="259" type="curve" smooth="yes"/>
			<point x="506" y="413"/>
			<point x="416" y="530"/>
			<point x="273" y="530" type="curve" smooth="yes"/>
			<point x="130" y="530"/>
			<point x="40" y="413"/>
			<point x="40" y="259" type="curve" smooth="yes"/>
			<point x="40" y="101"/>
			<point x="130" y="-15"/>
			<point x="273" y="-15" type="curve" smooth="yes"/>
			<point x="416" y="-15"/>
			<point x="506" y="101"/>
		</contour>
	</outline>
</glyph>
<glyph name="p" format="2">
	<advance width="570"/>
	<unicode hex="0070"/>
	<outline>
		<contour>
			<point x="110" y="-180" type="curve" smooth="yes"/>
			<point x="132" y="-180"/>
			<point x="150" y="-162"/>
			<point x="150" y="-140" type="curve" smooth="yes"/>
			<point x="150" y="88" type="line"/>
			<point x="133" y="72" type="line"/>
			<point x="175" y="19"/>
			<point x="238" y="-15"/>
			<point x="312" y="-15" type="curve" smooth="yes"/>
			<point x="451" y="-15"/>
			<point x="530" y="113"/>
			<point x="530" y="257" type="curve" smooth="yes"/>
			<point x="530" y="415"/>
			<point x="451" y="530"/>
			<point x="313" y="530" type="curve" smooth="yes"/>
			<point x="241" y="530"/>
			<point x="177" y="495"/>
			<point x="134" y="441" type="curve"/>
			<point x="150" y="423" type="line"/>
			<point x="150" y="484" type="line" smooth="yes"/>
			<point x="150" y="507"/>
			<point x="132" y="525"/>
			<point x="110" y="525" type="curve" smooth="yes"/>
			<point x="88" y="525"/>
			<point x="70" y="507"/>
			<point x="70" y="484" type="curve" smooth="yes"/>
			<point x="70" y="-140" type="line" smooth="yes"/>
			<point x="70" y="-162"/>
			<point x="88" y="-180"/>
		</contour>
		<contour>
			<point x="297" y="62" type="curve" smooth="yes"/>
			<point x="204" y="62"/>
			<point x="150" y="134"/>
			<point x="150" y="257" type="curve" smooth="yes"/>
			<point x="150" y="385"/>
			<point x="201" y="452"/>
			<point x="295" y="453" type="curve" smooth="yes"/>
			<point x="396" y="454"/>
			<point x="450" y="382"/>
			<point x="450" y="257" type="curve" smooth="yes"/>
			<point x="450" y="134"/>
			<point x="393" y="62"/>
		</contour>
	</outline>
</glyph>
<glyph name="q" format="2">
	<advance width="570"/>
	<unicode hex="0071"/>
	<outline>
		<contour>
			<point x="254" y="-15" type="curve" smooth="yes"/>
			<point x="325" y="-15"/>
			<point x="392" y="20"/>
			<point x="437" y="78" type="curve"/>
			<point x="420" y="94" type="line"/>
			<point x="420" y="-140" type="line" smooth="yes"/>
			<point x="420" y="-162"/>
			<point x="438" y="-180"/>
			<point x="460" y="-180" type="curve" smooth="yes"/>
			<point x="482" y="-180"/>
			<point x="500" y="-162"/>
			<point x="500" y="-140" type="curve" smooth="yes"/>
			<point x="500" y="484" type="line" smooth="yes"/>
			<point x="500" y="507"/>
			<point x="482" y="525"/>
			<point x="460" y="525" type="curve" smooth="yes"/>
			<point x="438" y="525"/>
			<point x="420" y="507"/>
			<point x="420" y="484" type="curve" smooth="yes"/>
			<point x="420" y="423" type="line"/>
			<point x="436" y="441" type="line"/>
			<point x="393" y="495"/>
			<point x="339" y="530"/>
			<point x="267" y="530" type="curve" smooth="yes"/>
			<point x="129" y="529"/>
			<point x="40" y="401"/>
			<point x="40" y="257" type="curve" smooth="yes"/>
			<point x="40" y="113"/>
			<point x="115" y="-15"/>
		</contour>
		<contour>
			<point x="273" y="62" type="curve" smooth="yes"/>
			<point x="177" y="62"/>
			<point x="120" y="134"/>
			<point x="120" y="257" type="curve" smooth="yes"/>
			<point x="120" y="382"/>
			<point x="174" y="454"/>
			<point x="275" y="453" type="curve" smooth="yes"/>
			<point x="369" y="452"/>
			<point x="420" y="385"/>
			<point x="420" y="257" type="curve" smooth="yes"/>
			<point x="420" y="129"/>
			<point x="369" y="62"/>
		</contour>
	</outline>
</glyph>
<glyph name="s" format="2">
	<advance width="479"/>
	<unicode hex="0073"/>
	<anchor x="240" y="0" name="bottom"/>
	<anchor x="240" y="515" name="top"/>
	<outline>
		<contour>
			<point x="243" y="-16" type="curve" smooth="yes"/>
			<point x="398" y="-16"/>
			<point x="435" y="82"/>
			<point x="434" y="149" type="curve" smooth="yes"/>
			<point x="432" y="251"/>
			<point x="337" y="280"/>
			<point x="254" y="300" type="curve" smooth="yes"/>
			<point x="187" y="317"/>
			<point x="128" y="331"/>
			<point x="128" y="386" type="curve" smooth="yes"/>
			<point x="128" y="416"/>
			<point x="160" y="454"/>
			<point x="241" y="454" type="curve" smooth="yes"/>
			<point x="325" y="454"/>
			<point x="340" y="415"/>
			<point x="348" y="391" type="curve" smooth="yes"/>
			<point x="353" y="375"/>
			<point x="368" y="363"/>
			<point x="386" y="363" type="curve" smooth="yes"/>
			<point x="409" y="363"/>
			<point x="426" y="381"/>
			<point x="426" y="402" type="curve" smooth="yes"/>
			<point x="426" y="437"/>
			<point x="379" y="530"/>
			<point x="241" y="530" type="curve" smooth="yes"/>
			<point x="111" y="530"/>
			<point x="51" y="448"/>
			<point x="51" y="374" type="curve" smooth="yes"/>
			<point x="51" y="275"/>
			<point x="145" y="247"/>
			<point x="231" y="227" type="curve" smooth="yes"/>
			<point x="297" y="211"/>
			<point x="357" y="195"/>
			<point x="357" y="137" type="curve" smooth="yes"/>
			<point x="357" y="88"/>
			<point x="315" y="59"/>
			<point x="254" y="59" type="curve" smooth="yes"/>
			<point x="171" y="59"/>
			<point x="124" y="84"/>
			<point x="119" y="140" type="curve" smooth="yes"/>
			<point x="117" y="161"/>
			<point x="101" y="177"/>
			<point x="80" y="177" type="curve" smooth="yes"/>
			<point x="56" y="177"/>
			<point x="38" y="156"/>
			<point x="40" y="134" type="curve" smooth="yes"/>
			<point x="47" y="46"/>
			<point x="139" y="-16"/>
		</contour>
	</outline>
</glyph>
<glyph name="t" format="2">
	<advance width="351"/>
	<unicode hex="0074"/>
	<anchor x="176" y="0" name="bottom"/>
	<anchor x="176" y="258" name="center"/>
	<anchor x="176" y="515" name="top"/>
	<anchor x="177" y="720" name="topright"/>
	<outline>
		<contour>
			<point x="206" y="-9" type="curve" smooth="yes"/>
			<point x="255" y="-9"/>
			<point x="295" y="15"/>
			<point x="295" y="54" type="curve" smooth="yes"/>
			<point x="295" y="73"/>
			<point x="279" y="91"/>
			<point x="257" y="91" type="curve" smooth="yes"/>
			<point x="245" y="91"/>
			<point x="235" y="86"/>
			<point x="229" y="81" type="curve" smooth="yes"/>
			<point x="219" y="72"/>
			<point x="210" y="71"/>
			<point x="203" y="71" type="curve" smooth="yes"/>
			<point x="182" y="71"/>
			<point x="177" y="91"/>
			<point x="177" y="117" type="curve" smooth="yes"/>
			<point x="177" y="585" type="line" smooth="yes"/>
			<point x="177" y="607"/>
			<point x="159" y="625"/>
			<point x="137" y="625" type="curve" smooth="yes"/>
			<point x="115" y="625"/>
			<point x="97" y="607"/>
			<point x="97" y="585" type="curve" smooth="yes"/>
			<point x="97" y="117" type="line" smooth="yes"/>
			<point x="97" y="30"/>
			<point x="144" y="-9"/>
		</contour>
		<contour>
			<point x="70" y="442" type="curve" smooth="yes"/>
			<point x="271" y="442" type="line" smooth="yes"/>
			<point x="293" y="442"/>
			<point x="311" y="458"/>
			<point x="311" y="479" type="curve" smooth="yes"/>
			<point x="311" y="499"/>
			<point x="293" y="515"/>
			<point x="271" y="515" type="curve" smooth="yes"/>
			<point x="70" y="515" type="line" smooth="yes"/>
			<point x="48" y="515"/>
			<point x="30" y="499"/>
			<point x="30" y="479" type="curve" smooth="yes"/>
			<point x="30" y="458"/>
			<point x="48" y="442"/>
		</contour>
	</outline>
</glyph>
<glyph name="v" format="2">
	<advance width="502"/>
	<unicode hex="0076"/>
	<outline>
		<contour>
			<point x="33" y="471" type="curve" smooth="yes"/>
			<point x="212" y="19" type="line"/>
			<point x="220" y="-2"/>
			<point x="237" y="-11"/>
			<point x="253" y="-11" type="curve" smooth="yes"/>
			<point x="271" y="-11"/>
			<point x="288" y="0"/>
			<point x="296" y="20" type="curve" smooth="yes"/>
			<point x="469" y="471" type="line" smooth="yes"/>
			<point x="479" y="496"/>
			<point x="464" y="526"/>
			<point x="435" y="526" type="curve" smooth="yes"/>
			<point x="418" y="526"/>
			<point x="404" y="516"/>
			<point x="398" y="501" type="curve" smooth="yes"/>
			<point x="225" y="40" type="line"/>
			<point x="279" y="58" type="line"/>
			<point x="107" y="501" type="line" smooth="yes"/>
			<point x="101" y="516"/>
			<point x="87" y="526"/>
			<point x="70" y="526" type="curve" smooth="yes"/>
			<point x="41" y="526"/>
			<point x="23" y="496"/>
		</contour>
	</outline>
</glyph>
<glyph name="w" format="2">
	<advance width="698"/>
	<unicode hex="0077"/>
	<anchor x="349" y="0" name="bottom"/>
	<anchor x="349" y="515" name="top"/>
	<outline>
		<contour>
			<point x="32" y="472" type="curve" smooth="yes"/>
			<point x="172" y="22" type="line"/>
			<point x="178" y="1"/>
			<point x="196" y="-10"/>
			<point x="214" y="-10" type="curve" smooth="yes"/>
			<point x="232" y="-10"/>
			<point x="249" y="1"/>
			<point x="256" y="23" type="curve" smooth="yes"/>
			<point x="357" y="369" type="line"/>
			<point x="345" y="369" type="line"/>
			<point x="446" y="23" type="line" smooth="yes"/>
			<point x="453" y="1"/>
			<point x="470" y="-10"/>
			<point x="487" y="-10" type="curve" smooth="yes"/>
			<point x="504" y="-10"/>
			<point x="521" y="1"/>
			<point x="527" y="22" type="curve" smooth="yes"/>
			<point x="666" y="472" type="line" smooth="yes"/>
			<point x="667" y="476"/>
			<point x="668" y="481"/>
			<point x="668" y="486" type="curve" smooth="yes"/>
			<point x="668" y="506"/>
			<point x="655" y="525"/>
			<point x="631" y="525" type="curve" smooth="yes"/>
			<point x="613" y="525"/>
			<point x="598" y="514"/>
			<point x="593" y="498" type="curve" smooth="yes"/>
			<point x="484" y="118" type="line"/>
			<point x="495" y="118" type="line"/>
			<point x="393" y="474" type="line" smooth="yes"/>
			<point x="387" y="497"/>
			<point x="370" y="509"/>
			<point x="353" y="509" type="curve" smooth="yes"/>
			<point x="336" y="509"/>
			<point x="319" y="497"/>
			<point x="312" y="474" type="curve" smooth="yes"/>
			<point x="208" y="110" type="line"/>
			<point x="220" y="110" type="line"/>
			<point x="108" y="498" type="line" smooth="yes"/>
			<point x="103" y="514"/>
			<point x="88" y="525"/>
			<point x="70" y="525" type="curve" smooth="yes"/>
			<point x="45" y="525"/>
			<point x="30" y="505"/>
			<point x="30" y="485" type="curve" smooth="yes"/>
			<point x="30" y="480"/>
			<point x="31" y="476"/>
		</contour>
	</outline>
</glyph>
<glyph name="x" format="2">
	<advance width="476"/>
	<unicode hex="0078"/>
	<outline>
		<contour>
			<point x="438" y="64" type="curve" smooth="yes"/>
			<point x="105" y="499" type="line" smooth="yes"/>
			<point x="97" y="509"/>
			<point x="86" y="515"/>
			<point x="73" y="515" type="curve" smooth="yes"/>
			<point x="51" y="515"/>
			<point x="33" y="497"/>
			<point x="33" y="475" type="curve" smooth="yes"/>
			<point x="33" y="466"/>
			<point x="36" y="458"/>
			<point x="41" y="451" type="curve" smooth="yes"/>
			<point x="374" y="16" type="line" smooth="yes"/>
			<point x="381" y="7"/>
			<point x="393" y="0"/>
			<point x="406" y="0" type="curve" smooth="yes"/>
			<point x="428" y="0"/>
			<point x="446" y="18"/>
			<point x="446" y="40" type="curve" smooth="yes"/>
			<point x="446" y="49"/>
			<point x="443" y="57"/>
		</contour>
		<contour>
			<point x="102" y="16" type="curve" smooth="yes"/>
			<point x="430" y="451" type="line" smooth="yes"/>
			<point x="435" y="457"/>
			<point x="438" y="466"/>
			<point x="438" y="475" type="curve" smooth="yes"/>
			<point x="438" y="497"/>
			<point x="420" y="515"/>
			<point x="398" y="515" type="curve" smooth="yes"/>
			<point x="385" y="515"/>
			<point x="374" y="509"/>
			<point x="366" y="499" type="curve" smooth="yes"/>
			<point x="38" y="64" type="line" smooth="yes"/>
			<point x="33" y="58"/>
			<point x="30" y="49"/>
			<point x="30" y="40" type="curve" smooth="yes"/>
			<point x="30" y="18"/>
			<point x="48" y="0"/>
			<point x="70" y="0" type="curve" smooth="yes"/>
			<point x="83" y="0"/>
			<point x="94" y="6"/>
		</contour>
	</outline>
</glyph>
<glyph name="y" format="2">
	<advance width="490"/>
	<unicode hex="0079"/>
	<anchor x="250" y="0" name="bottom"/>
	<anchor x="250" y="515" name="top"/>
	<outline>
		<contour>
			<point x="42" y="460" type="curve" smooth="yes"/>
			<point x="212" y="13" type="line"/>
			<point x="257" y="118" type="line"/>
			<point x="116" y="488" type="line" smooth="yes"/>
			<point x="110" y="503"/>
			<point x="96" y="514"/>
			<point x="79" y="514" type="curve" smooth="yes"/>
			<point x="50" y="514"/>
			<point x="32" y="485"/>
		</contour>
		<contour>
			<point x="386" y="488" type="curve" smooth="yes"/>
			<point x="175" y="-57" type="line"/>
			<point x="163" y="-88"/>
			<point x="155" y="-107"/>
			<point x="129" y="-107" type="curve" smooth="yes"/>
			<point x="118" y="-107"/>
			<point x="104" y="-103"/>
			<point x="94" y="-92" type="curve" smooth="yes"/>
			<point x="88" y="-86"/>
			<point x="80" y="-81"/>
			<point x="68" y="-81" type="curve" smooth="yes"/>
			<point x="46" y="-81"/>
			<point x="30" y="-99"/>
			<point x="30" y="-118" type="curve" smooth="yes"/>
			<point x="30" y="-158"/>
			<point x="75" y="-185"/>
			<point x="131" y="-185" type="curve" smooth="yes"/>
			<point x="186" y="-185"/>
			<point x="220" y="-159"/>
			<point x="252" y="-75" type="curve" smooth="yes"/>
			<point x="457" y="460" type="line" smooth="yes"/>
			<point x="467" y="485"/>
			<point x="449" y="514"/>
			<point x="420" y="514" type="curve" smooth="yes"/>
			<point x="403" y="514"/>
			<point x="392" y="503"/>
		</contour>
	</outline>
</glyph>
<glyph name="braceleft" format="2">
	<advance width="330"/>
	<unicode hex="007B"/>
	<outline>
		<contour>
			<point x="250" y="756" type="move"/>
			<point x="232" y="756" type="line" smooth="yes"/>
			<point x="183" y="756"/>
			<point x="139" y="705"/>
			<point x="139" y="649" type="curve" smooth="yes"/>
			<point x="139" y="432" type="line" smooth="yes"/>
			<point x="139" y="379"/>
			<point x="109" y="351"/>
			<point x="88" y="334" type="curve" smooth="yes"/>
			<point x="78" y="325"/>
			<point x="78" y="313"/>
			<point x="87" y="305" type="curve" smooth="yes"/>
			<point x="108" y="286"/>
			<point x="139" y="256"/>
			<point x="139" y="200" type="curve" smooth="yes"/>
			<point x="139" y="-38" type="line" smooth="yes"/>
			<point x="139" y="-94"/>
			<point x="183" y="-145"/>
			<point x="232" y="-145" type="curve" smooth="yes"/>
			<point x="250" y="-145" type="line"/>
		</contour>
	</outline>
</glyph>
<glyph name="bar" format="2">
	<advance width="156"/>
	<unicode hex="007C"/>
	<outline>
		<contour>
			<point x="78" y="796" type="move"/>
			<point x="78" y="-185" type="line"/>
		</contour>
	</outline>
</glyph>
<glyph name="asciitilde" format="2">
	<advance width="548"/>
	<unicode hex="007E"/>
	<outline>
		<contour>
			<point x="384" y="312" type="curve" smooth="yes"/>
			<point x="432" y="312"/>
			<point x="482" y="336"/>
			<point x="505" y="395" type="curve" smooth="yes"/>
			<point x="507" y="399"/>
			<point x="508" y="403"/>
			<point x="508" y="408" type="curve" smooth="yes"/>
			<point x="508" y="428"/>
			<point x="492" y="444"/>
			<point x="472" y="444" type="curve" smooth="yes"/>
			<point x="457" y="444"/>
			<point x="444" y="435"/>
			<point x="439" y="421" type="curve" smooth="yes"/>
			<point x="430" y="400"/>
			<point x="410" y="384"/>
			<point x="383" y="384" type="curve" smooth="yes"/>
			<point x="346" y="384"/>
			<point x="315" y="399"/>
			<point x="278" y="416" type="curve" smooth="yes"/>
			<point x="245" y="432"/>
			<point x="205" y="450"/>
			<point x="163" y="450" type="curve" smooth="yes"/>
			<point x="115" y="450"/>
			<point x="66" y="426"/>
			<point x="43" y="367" type="curve" smooth="yes"/>
			<point x="41" y="363"/>
			<point x="40" y="359"/>
			<point x="40" y="354" type="curve" smooth="yes"/>
			<point x="40" y="334"/>
			<point x="56" y="318"/>
			<point x="76" y="318" type="curve" smooth="yes"/>
			<point x="91" y="318"/>
			<point x="104" y="327"/>
			<point x="109" y="341" type="curve" smooth="yes"/>
			<point x="118" y="362"/>
			<point x="138" y="378"/>
			<point x="165" y="378" type="curve" smooth="yes"/>
			<point x="189" y="378"/>
			<point x="214" y="367"/>
			<point x="248" y="351" type="curve" smooth="yes"/>
			<point x="284" y="334"/>
			<point x="331" y="312"/>
		</contour>
	</outline>
</glyph>
<glyph name="exclamdown" format="2">
	<advance width="190"/>
	<unicode hex="00A1"/>
	<outline>
		<contour>
			<point x="137" y="-145" type="curve" smooth="yes"/>
			<point x="130" y="308" type="line"/>
			<point x="130" y="330"/>
			<point x="112" y="345"/>
			<point x="94" y="345" type="curve" smooth="yes"/>
			<point x="76" y="345"/>
			<point x="58" y="330"/>
			<point x="58" y="308" type="curve" smooth="yes"/>
			<point x="53" y="-145" type="line" smooth="yes"/>
			<point x="53" y="-167"/>
			<point x="71" y="-185"/>
			<point x="95" y="-185" type="curve" smooth="yes"/>
			<point x="119" y="-185"/>
			<point x="137" y="-167"/>
		</contour>
		<contour>
			<point x="95" y="405" type="curve" smooth="yes"/>
			<point x="62" y="405"/>
			<point x="40" y="427"/>
			<point x="40" y="468" type="curve" smooth="yes"/>
			<point x="40" y="508"/>
			<point x="62" y="530"/>
			<point x="95" y="530" type="curve" smooth="yes"/>
			<point x="128" y="530"/>
			<point x="150" y="508"/>
			<point x="150" y="468" type="curve" smooth="yes"/>
			<point x="150" y="427"/>
			<point x="128" y="405"/>
		</contour>
	</outline>
</glyph>
<glyph name="sterling" format="2">
	<advance width="620"/>
	<unicode hex="00A3"/>
	<outline>
		<contour>
			<point x="233" y="397" type="curve" smooth="yes"/>
			<point x="233" y="429" type="line" smooth="yes"/>
			<point x="233" y="541"/>
			<point x="251" y="631"/>
			<point x="368" y="631" type="curve" smooth="yes"/>
			<point x="431" y="631"/>
			<point x="463" y="614"/>
			<point x="484" y="563" type="curve" smooth="yes"/>
			<point x="491" y="546"/>
			<point x="504" y="529"/>
			<point x="524" y="529" type="curve" smooth="yes"/>
			<point x="546" y="529"/>
			<point x="568" y="547"/>
			<point x="565" y="568" type="curve" smooth="yes"/>
			<point x="554" y="647"/>
			<point x="471" y="705"/>
			<point x="368" y="705" type="curve" smooth="yes"/>
			<point x="200" y="705"/>
			<point x="150" y="596"/>
			<point x="150" y="402" type="curve" smooth="yes"/>
			<point x="150" y="215"/>
			<point x="119" y="121"/>
			<point x="68" y="70" type="curve" smooth="yes"/>
			<point x="60" y="62"/>
			<point x="55" y="52"/>
			<point x="55" y="40" type="curve" smooth="yes"/>
			<point x="55" y="18"/>
			<point x="73" y="0"/>
			<point x="95" y="0" type="curve" smooth="yes"/>
			<point x="516" y="0" type="line" smooth="yes"/>
			<point x="538" y="0"/>
			<point x="556" y="18"/>
			<point x="556" y="40" type="curve" smooth="yes"/>
			<point x="556" y="62"/>
			<point x="538" y="80"/>
			<point x="516" y="80" type="curve" smooth="yes"/>
			<point x="170" y="80" type="line"/>
			<point x="212" y="158"/>
			<point x="233" y="259"/>
		</contour>
		<contour>
			<point x="413" y="419" type="curve" smooth="yes"/>
			<point x="95" y="419" type="line" smooth="yes"/>
			<point x="73" y="419"/>
			<point x="55" y="401"/>
			<point x="55" y="379" type="curve" smooth="yes"/>
			<point x="55" y="357"/>
			<point x="73" y="339"/>
			<point x="95" y="339" type="curve" smooth="yes"/>
			<point x="413" y="339" type="line" smooth="yes"/>
			<point x="435" y="339"/>
			<point x="453" y="357"/>
			<point x="453" y="379" type="curve" smooth="yes"/>
			<point x="453" y="401"/>
			<point x="435" y="419"/>
		</contour>
	</outline>
</glyph>
<glyph name="yen" format="2">
	<advance width="623"/>
	<unicode hex="00A5"/>
	<outline>
		<contour>
			<point x="308" y="-10" type="curve" smooth="yes"/>
			<point x="331" y="-10"/>
			<point x="349" y="8"/>
			<point x="349" y="31" type="curve" smooth="yes"/>
			<point x="349" y="341" type="line"/>
			<point x="575" y="646" type="line" smooth="yes"/>
			<point x="580" y="652"/>
			<point x="583" y="660"/>
			<point x="583" y="669" type="curve" smooth="yes"/>
			<point x="583" y="691"/>
			<point x="566" y="708"/>
			<point x="544" y="708" type="curve" smooth="yes"/>
			<point x="531" y="708"/>
			<point x="520" y="702"/>
			<point x="513" y="692" type="curve" smooth="yes"/>
			<point x="282" y="382" type="line"/>
			<point x="335" y="381" type="line"/>
			<point x="118" y="691" type="line" smooth="yes"/>
			<point x="111" y="701"/>
			<point x="99" y="708"/>
			<point x="86" y="708" type="curve" smooth="yes"/>
			<point x="64" y="708"/>
			<point x="47" y="691"/>
			<point x="47" y="669" type="curve" smooth="yes"/>
			<point x="47" y="661"/>
			<point x="50" y="653"/>
			<point x="54" y="647" type="curve" smooth="yes"/>
			<point x="267" y="341" type="line"/>
			<point x="267" y="31" type="line" smooth="yes"/>
			<point x="267" y="8"/>
			<point x="285" y="-10"/>
		</contour>
		<contour>
			<point x="44" y="197" type="move"/>
			<point x="572" y="197" type="line"/>
		</contour>
		<contour>
			<point x="44" y="344" type="move"/>
			<point x="572" y="344" type="line"/>
		</contour>
	</outline>
</glyph>
<glyph name="brokenbar" format="2">
	<advance width="156"/>
	<unicode hex="00A6"/>
	<outline>
		<contour>
			<point x="78" y="232" type="move"/>
			<point x="78" y="-183" type="line"/>
		</contour>
		<contour>
			<point x="78" y="796" type="move"/>
			<point x="78" y="381" type="line"/>
		</contour>
	</outline>
</glyph>
<glyph name="section" format="2">
	<advance width="515"/>
	<unicode hex="00A7"/>
	<outline>
		<contour>
			<point x="269" y="369" type="curve" smooth="yes"/>
			<point x="330" y="369"/>
			<point x="378" y="339"/>
			<point x="378" y="288" type="curve" smooth="yes"/>
			<point x="378" y="237"/>
			<point x="330" y="190"/>
			<point x="260" y="190" type="curve" smooth="yes"/>
			<point x="198" y="190"/>
			<point x="148" y="225"/>
			<point x="148" y="275" type="curve" smooth="yes"/>
			<point x="148" y="327"/>
			<point x="198" y="369"/>
		</contour>
		<contour>
			<point x="60" y="27" type="curve" smooth="yes"/>
			<point x="64" y="-21"/>
			<point x="102" y="-125"/>
			<point x="267" y="-125" type="curve" smooth="yes"/>
			<point x="414" y="-125"/>
			<point x="454" y="-27"/>
			<point x="454" y="36" type="curve" smooth="yes"/>
			<point x="454" y="101"/>
			<point x="408" y="152"/>
			<point x="329" y="174" type="curve"/>
			<point x="316" y="156" type="line"/>
			<point x="404" y="156"/>
			<point x="455" y="206"/>
			<point x="455" y="291" type="curve" smooth="yes"/>
			<point x="455" y="480"/>
			<point x="149" y="413"/>
			<point x="149" y="530" type="curve" smooth="yes"/>
			<point x="149" y="568"/>
			<point x="181" y="605"/>
			<point x="257" y="605" type="curve" smooth="yes"/>
			<point x="346" y="605"/>
			<point x="361" y="567"/>
			<point x="369" y="543" type="curve" smooth="yes"/>
			<point x="374" y="527"/>
			<point x="389" y="515"/>
			<point x="407" y="515" type="curve" smooth="yes"/>
			<point x="430" y="515"/>
			<point x="447" y="533"/>
			<point x="447" y="555" type="curve" smooth="yes"/>
			<point x="447" y="559"/>
			<point x="446" y="563"/>
			<point x="445" y="567" type="curve" smooth="yes"/>
			<point x="437" y="597"/>
			<point x="400" y="682"/>
			<point x="257" y="682" type="curve" smooth="yes"/>
			<point x="132" y="682"/>
			<point x="72" y="597"/>
			<point x="72" y="520" type="curve" smooth="yes"/>
			<point x="72" y="462"/>
			<point x="113" y="420"/>
			<point x="203" y="389" type="curve"/>
			<point x="206" y="404" type="line"/>
			<point x="120" y="404"/>
			<point x="71" y="351"/>
			<point x="71" y="262" type="curve" smooth="yes"/>
			<point x="71" y="92"/>
			<point x="377" y="137"/>
			<point x="377" y="36" type="curve" smooth="yes"/>
			<point x="377" y="-10"/>
			<point x="353" y="-48"/>
			<point x="267" y="-48" type="curve" smooth="yes"/>
			<point x="165" y="-48"/>
			<point x="144" y="-4"/>
			<point x="140" y="33" type="curve" smooth="yes"/>
			<point x="138" y="54"/>
			<point x="121" y="70"/>
			<point x="100" y="70" type="curve" smooth="yes"/>
			<point x="76" y="70"/>
			<point x="58" y="49"/>
		</contour>
	</outline>
</glyph>
<glyph name="copyright" format="2">
	<advance width="801"/>
	<unicode hex="00A9"/>
	<outline>
		<contour>
			<point x="400" y="0" type="curve" smooth="yes"/>
			<point x="585" y="0"/>
			<point x="741" y="160"/>
			<point x="741" y="355" type="curve" smooth="yes"/>
			<point x="741" y="550"/>
			<point x="585" y="703"/>
			<point x="400" y="703" type="curve" smooth="yes"/>
			<point x="211" y="703"/>
			<point x="60" y="548"/>
			<point x="60" y="353" type="curve" smooth="yes"/>
			<point x="60" y="158"/>
			<point x="211" y="0"/>
		</contour>
		<contour>
			<point x="400" y="45" type="curve" smooth="yes"/>
			<point x="232" y="45"/>
			<point x="104" y="179"/>
			<point x="104" y="353" type="curve" smooth="yes"/>
			<point x="104" y="527"/>
			<point x="232" y="658"/>
			<point x="400" y="658" type="curve" smooth="yes"/>
			<point x="565" y="658"/>
			<point x="693" y="527"/>
			<point x="693" y="353" type="curve" smooth="yes"/>
			<point x="693" y="179"/>
			<point x="565" y="45"/>
		</contour>
		<contour>
			<point x="556" y="472" type="curve" smooth="yes"/>
			<point x="547" y="530"/>
			<point x="486" y="579"/>
			<point x="402" y="579" type="curve" smooth="yes"/>
			<point x="287" y="579"/>
			<point x="209" y="481"/>
			<point x="209" y="353" type="curve" smooth="yes"/>
			<point x="209" y="222"/>
			<point x="282" y="124"/>
			<point x="402" y="124" type="curve" smooth="yes"/>
			<point x="487" y="124"/>
			<point x="551" y="182"/>
			<point x="567" y="258" type="curve"/>
			<point x="573" y="287"/>
			<point x="557" y="304"/>
			<point x="538" y="304" type="curve" smooth="yes"/>
			<point x="520" y="304"/>
			<point x="508" y="291"/>
			<point x="505" y="274" type="curve" smooth="yes"/>
			<point x="497" y="226"/>
			<point x="458" y="188"/>
			<point x="402" y="188" type="curve" smooth="yes"/>
			<point x="324" y="188"/>
			<point x="277" y="254"/>
			<point x="277" y="353" type="curve" smooth="yes"/>
			<point x="277" y="445"/>
			<point x="319" y="515"/>
			<point x="402" y="515" type="curve" smooth="yes"/>
			<point x="454" y="515"/>
			<point x="481" y="487"/>
			<point x="491" y="468" type="curve" smooth="yes"/>
			<point x="500" y="450"/>
			<point x="508" y="433"/>
			<point x="527" y="433" type="curve" smooth="yes"/>
			<point x="548" y="433"/>
			<point x="559" y="450"/>
		</contour>
	</outline>
</glyph>
<glyph name="ordfeminine" format="2">
	<advance width="384"/>
	<unicode hex="00AA"/>
	<anchor x="189" y="24" name="bottom"/>
	<anchor x="339" y="31" name="ogonek"/>
	<anchor x="189" y="378" name="top"/>
	<outline>
		<contour>
			<point x="154" y="315" type="curve" smooth="yes"/>
			<point x="196" y="314"/>
			<point x="243" y="325"/>
			<point x="271" y="372" type="curve"/>
			<point x="265" y="372" type="line"/>
			<point x="265" y="364" type="line" smooth="yes"/>
			<point x="265" y="340"/>
			<point x="283" y="320"/>
			<point x="308" y="320" type="curve" smooth="yes"/>
			<point x="313" y="320" type="line" smooth="yes"/>
			<point x="339" y="320"/>
			<point x="354" y="334"/>
			<point x="354" y="352" type="curve" smooth="yes"/>
			<point x="354" y="369"/>
			<point x="341" y="385"/>
			<point x="325" y="385" type="curve"/>
			<point x="325" y="385"/>
			<point x="325" y="387"/>
			<point x="325" y="400" type="curve" smooth="yes"/>
			<point x="325" y="561" type="line" smooth="yes"/>
			<point x="325" y="630"/>
			<point x="299" y="700"/>
			<point x="191" y="700" type="curve" smooth="yes"/>
			<point x="112" y="700"/>
			<point x="73" y="651"/>
			<point x="60" y="624" type="curve" smooth="yes"/>
			<point x="51" y="605"/>
			<point x="60" y="578"/>
			<point x="88" y="578" type="curve" smooth="yes"/>
			<point x="103" y="578"/>
			<point x="112" y="587"/>
			<point x="119" y="600" type="curve" smooth="yes"/>
			<point x="128" y="615"/>
			<point x="148" y="637"/>
			<point x="191" y="637" type="curve" smooth="yes"/>
			<point x="243" y="637"/>
			<point x="259" y="612"/>
			<point x="259" y="584" type="curve" smooth="yes"/>
			<point x="259" y="555"/>
			<point x="234" y="545"/>
			<point x="170" y="544" type="curve" smooth="yes"/>
			<point x="76" y="544"/>
			<point x="30" y="484"/>
			<point x="30" y="425" type="curve" smooth="yes"/>
			<point x="30" y="368"/>
			<point x="74" y="316"/>
		</contour>
		<contour>
			<point x="95" y="429" type="curve" smooth="yes"/>
			<point x="95" y="455"/>
			<point x="116" y="483"/>
			<point x="171" y="483" type="curve" smooth="yes"/>
			<point x="215" y="483"/>
			<point x="253" y="502"/>
			<point x="267" y="517" type="curve" smooth="yes"/>
			<point x="271" y="522"/>
			<point x="260" y="521"/>
			<point x="260" y="520" type="curve" smooth="yes"/>
			<point x="260" y="505" type="line"/>
			<point x="260" y="447" type="line" smooth="yes"/>
			<point x="260" y="401"/>
			<point x="217" y="379"/>
			<point x="163" y="378" type="curve" smooth="yes"/>
			<point x="110" y="377"/>
			<point x="95" y="406"/>
		</contour>
	</outline>
</glyph>
<glyph name="registered" format="2">
	<advance width="761"/>
	<unicode hex="00AE"/>
	<outline>
		<contour>
			<point x="304" y="161" type="curve" smooth="yes"/>
			<point x="304" y="305" type="line"/>
			<point x="412" y="305" type="line" smooth="yes"/>
			<point x="489" y="305"/>
			<point x="549" y="358"/>
			<point x="549" y="434" type="curve" smooth="yes"/>
			<point x="549" y="511"/>
			<point x="489" y="565"/>
			<point x="407" y="565" type="curve" smooth="yes"/>
			<point x="265" y="565" type="line" smooth="yes"/>
			<point x="249" y="565"/>
			<point x="236" y="553"/>
			<point x="236" y="537" type="curve" smooth="yes"/>
			<point x="236" y="161" type="line" smooth="yes"/>
			<point x="236" y="145"/>
			<point x="249" y="130"/>
			<point x="270" y="130" type="curve" smooth="yes"/>
			<point x="291" y="130"/>
			<point x="304" y="145"/>
		</contour>
		<contour>
			<point x="415" y="365" type="curve" smooth="yes"/>
			<point x="301" y="365" type="line"/>
			<point x="301" y="505" type="line"/>
			<point x="410" y="505" type="line" smooth="yes"/>
			<point x="454" y="505"/>
			<point x="484" y="476"/>
			<point x="484" y="434" type="curve" smooth="yes"/>
			<point x="484" y="393"/>
			<point x="457" y="365"/>
		</contour>
		<contour>
			<point x="481" y="151" type="line"/>
			<point x="488" y="137"/>
			<point x="497" y="131"/>
			<point x="508" y="131" type="curve" smooth="yes"/>
			<point x="527" y="131"/>
			<point x="544" y="143"/>
			<point x="544" y="160" type="curve" smooth="yes"/>
			<point x="544" y="165"/>
			<point x="543" y="170"/>
			<point x="540" y="176" type="curve" smooth="yes"/>
			<point x="450" y="347" type="line"/>
			<point x="390" y="322" type="line"/>
		</contour>
		<contour>
			<point x="384" y="0" type="curve" smooth="yes"/>
			<point x="569" y="0"/>
			<point x="721" y="160"/>
			<point x="721" y="355" type="curve" smooth="yes"/>
			<point x="721" y="550"/>
			<point x="569" y="703"/>
			<point x="384" y="703" type="curve" smooth="yes"/>
			<point x="196" y="703"/>
			<point x="40" y="548"/>
			<point x="40" y="353" type="curve" smooth="yes"/>
			<point x="40" y="158"/>
			<point x="196" y="0"/>
		</contour>
		<contour>
			<point x="384" y="45" type="curve" smooth="yes"/>
			<point x="216" y="45"/>
			<point x="88" y="179"/>
			<point x="88" y="353" type="curve" smooth="yes"/>
			<point x="88" y="527"/>
			<point x="216" y="658"/>
			<point x="384" y="658" type="curve" smooth="yes"/>
			<point x="549" y="658"/>
			<point x="677" y="527"/>
			<point x="677" y="353" type="curve" smooth="yes"/>
			<point x="677" y="179"/>
			<point x="549" y="45"/>
		</contour>
	</outline>
</glyph>
<glyph name="degree" format="2">
	<advance width="323"/>
	<unicode hex="00B0"/>
	<outline>
		<contour>
			<point x="161" y="451" type="curve" smooth="yes"/>
			<point x="234" y="451"/>
			<point x="293" y="511"/>
			<point x="293" y="583" type="curve" smooth="yes"/>
			<point x="293" y="656"/>
			<point x="234" y="715"/>
			<point x="161" y="715" type="curve" smooth="yes"/>
			<point x="89" y="715"/>
			<point x="30" y="656"/>
			<point x="30" y="583" type="curve" smooth="yes"/>
			<point x="30" y="511"/>
			<point x="89" y="451"/>
		</contour>
		<contour>
			<point x="161" y="518" type="curve" smooth="yes"/>
			<point x="126" y="518"/>
			<point x="100" y="548"/>
			<point x="100" y="583" type="curve" smooth="yes"/>
			<point x="100" y="620"/>
			<point x="126" y="648"/>
			<point x="161" y="648" type="curve" smooth="yes"/>
			<point x="198" y="648"/>
			<point x="223" y="620"/>
			<point x="223" y="583" type="curve" smooth="yes"/>
			<point x="223" y="548"/>
			<point x="198" y="518"/>
		</contour>
	</outline>
</glyph>
<glyph name="plusminus" format="2">
	<advance width="535"/>
	<unicode hex="00B1"/>
	<outline>
		<contour>
			<point x="307" y="245" type="curve" smooth="yes"/>
			<point x="307" y="622" type="line" smooth="yes"/>
			<point x="307" y="643"/>
			<point x="290" y="661"/>
			<point x="268" y="661" type="curve" smooth="yes"/>
			<point x="246" y="661"/>
			<point x="229" y="643"/>
			<point x="229" y="622" type="curve" smooth="yes"/>
			<point x="229" y="245" type="line" smooth="yes"/>
			<point x="229" y="224"/>
			<point x="246" y="206"/>
			<point x="268" y="206" type="curve" smooth="yes"/>
			<point x="290" y="206"/>
			<point x="307" y="224"/>
		</contour>
		<contour>
			<point x="451" y="473" type="curve" smooth="yes"/>
			<point x="84" y="473" type="line" smooth="yes"/>
			<point x="63" y="473"/>
			<point x="45" y="456"/>
			<point x="45" y="434" type="curve" smooth="yes"/>
			<point x="45" y="412"/>
			<point x="63" y="395"/>
			<point x="84" y="395" type="curve" smooth="yes"/>
			<point x="451" y="395" type="line" smooth="yes"/>
			<point x="472" y="395"/>
			<point x="490" y="412"/>
			<point x="490" y="434" type="curve" smooth="yes"/>
			<point x="490" y="456"/>
			<point x="472" y="473"/>
		</contour>
		<contour>
			<point x="84" y="69" type="curve" smooth="yes"/>
			<point x="451" y="69" type="line" smooth="yes"/>
			<point x="472" y="69"/>
			<point x="490" y="86"/>
			<point x="490" y="108" type="curve" smooth="yes"/>
			<point x="490" y="130"/>
			<point x="472" y="147"/>
			<point x="451" y="147" type="curve" smooth="yes"/>
			<point x="84" y="147" type="line" smooth="yes"/>
			<point x="63" y="147"/>
			<point x="45" y="130"/>
			<point x="45" y="108" type="curve" smooth="yes"/>
			<point x="45" y="86"/>
			<point x="63" y="69"/>
		</contour>
	</outline>
</glyph>
<glyph name="questiondown" format="2">
	<advance width="457"/>
	<unicode hex="00BF"/>
	<outline>
		<contour>
			<point x="210" y="308" type="curve" smooth="yes"/>
			<point x="210" y="264"/>
			<point x="204" y="242"/>
			<point x="136" y="186" type="curve" smooth="yes"/>
			<point x="94" y="152"/>
			<point x="30" y="98"/>
			<point x="30" y="-5" type="curve" smooth="yes"/>
			<point x="30" y="-120"/>
			<point x="113" y="-195"/>
			<point x="232" y="-195" type="curve" smooth="yes"/>
			<point x="347" y="-195"/>
			<point x="427" y="-118"/>
			<point x="427" y="-8" type="curve" smooth="yes"/>
			<point x="427" y="14"/>
			<point x="409" y="32"/>
			<point x="387" y="32" type="curve" smooth="yes"/>
			<point x="365" y="32"/>
			<point x="347" y="14"/>
			<point x="347" y="-8" type="curve" smooth="yes"/>
			<point x="347" y="-79"/>
			<point x="306" y="-119"/>
			<point x="232" y="-119" type="curve" smooth="yes"/>
			<point x="154" y="-119"/>
			<point x="110" y="-81"/>
			<point x="110" y="-6" type="curve" smooth="yes"/>
			<point x="110" y="63"/>
			<point x="148" y="102"/>
			<point x="203" y="146" type="curve" smooth="yes"/>
			<point x="281" y="209"/>
			<point x="290" y="238"/>
			<point x="290" y="308" type="curve" smooth="yes"/>
			<point x="290" y="330"/>
			<point x="272" y="348"/>
			<point x="250" y="348" type="curve" smooth="yes"/>
			<point x="228" y="348"/>
			<point x="210" y="330"/>
		</contour>
		<contour>
			<point x="253" y="405" type="curve" smooth="yes"/>
			<point x="220" y="405"/>
			<point x="198" y="427"/>
			<point x="198" y="468" type="curve" smooth="yes"/>
			<point x="198" y="508"/>
			<point x="220" y="530"/>
			<point x="253" y="530" type="curve" smooth="yes"/>
			<point x="286" y="530"/>
			<point x="308" y="508"/>
			<point x="308" y="468" type="curve" smooth="yes"/>
			<point x="308" y="427"/>
			<point x="286" y="405"/>
		</contour>
	</outline>
</glyph>
<glyph name="AE" format="2">
	<advance width="858"/>
	<unicode hex="00C6"/>
	<anchor x="434" y="0" name="bottom"/>
	<anchor x="434" y="700" name="top"/>
	<outline>
		<contour>
			<point x="733" y="700" type="curve" smooth="yes"/>
			<point x="351" y="700" type="line" smooth="yes"/>
			<point x="332" y="700"/>
			<point x="316" y="686"/>
			<point x="302" y="654" type="curve" smooth="yes"/>
			<point x="33" y="52" type="line" smooth="yes"/>
			<point x="31" y="47"/>
			<point x="30" y="42"/>
			<point x="30" y="36" type="curve" smooth="yes"/>
			<point x="30" y="14"/>
			<point x="49" y="-5"/>
			<point x="71" y="-5" type="curve" smooth="yes"/>
			<point x="88" y="-5"/>
			<point x="103" y="6"/>
			<point x="109" y="21" type="curve" smooth="yes"/>
			<point x="368" y="616" type="line" smooth="yes"/>
			<point x="371" y="622"/>
			<point x="374" y="624"/>
			<point x="379" y="624" type="curve" smooth="yes"/>
			<point x="733" y="624" type="line" smooth="yes"/>
			<point x="754" y="624"/>
			<point x="771" y="641"/>
			<point x="771" y="662" type="curve" smooth="yes"/>
			<point x="771" y="683"/>
			<point x="754" y="700"/>
		</contour>
		<contour>
			<point x="174" y="209" type="line"/>
			<point x="468" y="209" type="line"/>
			<point x="468" y="283" type="line"/>
			<point x="174" y="283" type="line"/>
		</contour>
		<contour>
			<point x="712" y="402" type="curve" smooth="yes"/>
			<point x="436" y="402" type="line"/>
			<point x="436" y="326" type="line"/>
			<point x="712" y="326" type="line" smooth="yes"/>
			<point x="733" y="326"/>
			<point x="750" y="343"/>
			<point x="750" y="364" type="curve" smooth="yes"/>
			<point x="750" y="385"/>
			<point x="733" y="402"/>
		</contour>
		<contour>
			<point x="760" y="76" type="curve" smooth="yes"/>
			<point x="476" y="76" type="line"/>
			<point x="476" y="638" type="line"/>
			<point x="394" y="638" type="line"/>
			<point x="394" y="41" type="line" smooth="yes"/>
			<point x="394" y="18"/>
			<point x="412" y="0"/>
			<point x="435" y="0" type="curve" smooth="yes"/>
			<point x="760" y="0" type="line" smooth="yes"/>
			<point x="781" y="0"/>
			<point x="798" y="17"/>
			<point x="798" y="38" type="curve" smooth="yes"/>
			<point x="798" y="59"/>
			<point x="781" y="76"/>
		</contour>
	</outline>
</glyph>
<glyph name="Eth" format="2">
	<advance width="698"/>
	<unicode hex="00D0"/>
	<outline>
		<contour>
			<point x="334" y="409" type="curve" smooth="yes"/>
			<point x="69" y="409" type="line" smooth="yes"/>
			<point x="48" y="409"/>
			<point x="30" y="392"/>
			<point x="30" y="370" type="curve" smooth="yes"/>
			<point x="30" y="348"/>
			<point x="48" y="331"/>
			<point x="69" y="331" type="curve" smooth="yes"/>
			<point x="334" y="331" type="line" smooth="yes"/>
			<point x="355" y="331"/>
			<point x="373" y="348"/>
			<point x="373" y="370" type="curve" smooth="yes"/>
			<point x="373" y="392"/>
			<point x="355" y="409"/>
		</contour>
		<component base="D" xOffset="51"/>
	</outline>
</glyph>
<glyph name="multiply" format="2">
	<advance width="472"/>
	<unicode hex="00D7"/>
	<outline>
		<contour>
			<point x="419" y="536" type="move"/>
			<point x="53" y="170" type="line"/>
		</contour>
		<contour>
			<point x="419" y="170" type="move"/>
			<point x="53" y="536" type="line"/>
		</contour>
	</outline>
</glyph>
<glyph name="Oslash" format="2">
	<advance width="709"/>
	<unicode hex="00D8"/>
	<anchor x="355" y="0" name="bottom"/>
	<anchor x="355" y="700" name="top"/>
	<outline>
		<contour>
			<point x="350" y="-14" type="curve" smooth="yes" name="💚"/>
			<point x="526" y="-14"/>
			<point x="634" y="130"/>
			<point x="634" y="350" type="curve" smooth="yes"/>
			<point x="634" y="571"/>
			<point x="516" y="715"/>
			<point x="350" y="715" type="curve" smooth="yes"/>
			<point x="184" y="715"/>
			<point x="66" y="571"/>
			<point x="66" y="350" type="curve" smooth="yes"/>
			<point x="66" y="130"/>
			<point x="174" y="-14"/>
		</contour>
		<contour>
			<point x="350" y="61" type="curve" smooth="yes"/>
			<point x="224" y="61"/>
			<point x="148" y="179"/>
			<point x="148" y="350" type="curve" smooth="yes"/>
			<point x="148" y="521"/>
			<point x="224" y="640"/>
			<point x="350" y="640" type="curve" smooth="yes"/>
			<point x="476" y="640"/>
			<point x="552" y="521"/>
			<point x="552" y="350" type="curve" smooth="yes"/>
			<point x="552" y="179"/>
			<point x="476" y="61"/>
		</contour>
		<contour>
			<point x="624" y="730" type="move"/>
			<point x="75" y="-16" type="line"/>
		</contour>
	</outline>
</glyph>
<glyph name="germandbls" format="2">
	<advance width="541"/>
	<unicode hex="00DF"/>
	<outline>
		<contour>
			<point x="152" y="534" type="curve" smooth="yes"/>
			<point x="152" y="111" type="line"/>
			<point x="152" y="66" type="line" smooth="yes"/>
			<point x="152" y="16"/>
			<point x="127" y="-8"/>
			<point x="95" y="-8" type="curve" smooth="yes"/>
			<point x="82" y="-8" type="line" smooth="yes"/>
			<point x="49" y="-8"/>
			<point x="30" y="9"/>
			<point x="30" y="32" type="curve" smooth="yes"/>
			<point x="30" y="53"/>
			<point x="46" y="72"/>
			<point x="65" y="72" type="curve" smooth="yes"/>
			<point x="72" y="72"/>
			<point x="72" y="82"/>
			<point x="72" y="101" type="curve" smooth="yes"/>
			<point x="72" y="534" type="line" smooth="yes"/>
			<point x="72" y="693"/>
			<point x="194" y="721"/>
			<point x="257" y="721" type="curve" smooth="yes"/>
			<point x="382" y="721"/>
			<point x="443" y="627"/>
			<point x="443" y="556" type="curve" smooth="yes"/>
			<point x="443" y="491"/>
			<point x="412" y="450"/>
			<point x="381" y="422" type="curve" smooth="yes"/>
			<point x="357" y="401"/>
			<point x="335" y="389"/>
			<point x="335" y="360" type="curve" smooth="yes"/>
			<point x="335" y="333"/>
			<point x="356" y="315"/>
			<point x="400" y="286" type="curve" smooth="yes"/>
			<point x="442" y="257"/>
			<point x="506" y="219"/>
			<point x="506" y="133" type="curve" smooth="yes"/>
			<point x="506" y="55"/>
			<point x="457" y="-17"/>
			<point x="343" y="-17" type="curve" smooth="yes"/>
			<point x="282" y="-17"/>
			<point x="215" y="2"/>
			<point x="215" y="44" type="curve" smooth="yes"/>
			<point x="215" y="65"/>
			<point x="232" y="83"/>
			<point x="251" y="83" type="curve" smooth="yes"/>
			<point x="260" y="83"/>
			<point x="273" y="79"/>
			<point x="280" y="74" type="curve" smooth="yes"/>
			<point x="291" y="67"/>
			<point x="306" y="63"/>
			<point x="343" y="63" type="curve" smooth="yes"/>
			<point x="406" y="63"/>
			<point x="426" y="92"/>
			<point x="426" y="133" type="curve" smooth="yes"/>
			<point x="426" y="169"/>
			<point x="405" y="187"/>
			<point x="363" y="214" type="curve" smooth="yes"/>
			<point x="307" y="252"/>
			<point x="255" y="287"/>
			<point x="255" y="365" type="curve" smooth="yes"/>
			<point x="261" y="423"/>
			<point x="296" y="454"/>
			<point x="327" y="482" type="curve" smooth="yes"/>
			<point x="358" y="509"/>
			<point x="363" y="528"/>
			<point x="363" y="556" type="curve" smooth="yes"/>
			<point x="363" y="600"/>
			<point x="320" y="641"/>
			<point x="257" y="641" type="curve" smooth="yes"/>
			<point x="206" y="641"/>
			<point x="152" y="628"/>
		</contour>
	</outline>
</glyph>
<glyph name="ae" format="2">
	<advance width="830"/>
	<unicode hex="00E6"/>
	<anchor x="415" y="0" name="bottom"/>
	<anchor x="435" y="515" name="top"/>
	<outline>
		<contour>
			<point x="215" y="-15" type="curve" smooth="yes"/>
			<point x="286" y="-15"/>
			<point x="355" y="17"/>
			<point x="399" y="81" type="curve"/>
			<point x="414" y="81" type="line"/>
			<point x="458" y="17"/>
			<point x="529" y="-15"/>
			<point x="600" y="-15" type="curve" smooth="yes"/>
			<point x="685" y="-15"/>
			<point x="750" y="32"/>
			<point x="782" y="80" type="curve" smooth="yes"/>
			<point x="811" y="123"/>
			<point x="787" y="155"/>
			<point x="761" y="155" type="curve" smooth="yes"/>
			<point x="737" y="155"/>
			<point x="726" y="134"/>
			<point x="719" y="123" type="curve" smooth="yes"/>
			<point x="701" y="94"/>
			<point x="659" y="62"/>
			<point x="598" y="62" type="curve" smooth="yes"/>
			<point x="520" y="62"/>
			<point x="449" y="115"/>
			<point x="449" y="261" type="curve" smooth="yes"/>
			<point x="449" y="280" type="line"/>
			<point x="455" y="390"/>
			<point x="508" y="453"/>
			<point x="596" y="453" type="curve" smooth="yes"/>
			<point x="688" y="453"/>
			<point x="715" y="394"/>
			<point x="720" y="313" type="curve"/>
			<point x="435" y="313" type="line"/>
			<point x="434" y="242" type="line"/>
			<point x="738" y="237" type="line" smooth="yes"/>
			<point x="776" y="236"/>
			<point x="796" y="258"/>
			<point x="795" y="296" type="curve" smooth="yes"/>
			<point x="793" y="449"/>
			<point x="721" y="530"/>
			<point x="599" y="530" type="curve" smooth="yes"/>
			<point x="523" y="530"/>
			<point x="463" y="502"/>
			<point x="424" y="451" type="curve"/>
			<point x="398" y="498"/>
			<point x="349" y="530"/>
			<point x="261" y="530" type="curve" smooth="yes"/>
			<point x="151" y="530"/>
			<point x="95" y="462"/>
			<point x="78" y="424" type="curve" smooth="yes"/>
			<point x="67" y="400"/>
			<point x="77" y="368"/>
			<point x="112" y="368" type="curve" smooth="yes"/>
			<point x="131" y="368"/>
			<point x="141" y="377"/>
			<point x="151" y="395" type="curve" smooth="yes"/>
			<point x="164" y="418"/>
			<point x="196" y="453"/>
			<point x="262" y="453" type="curve" smooth="yes"/>
			<point x="342" y="453"/>
			<point x="367" y="411"/>
			<point x="367" y="369" type="curve" smooth="yes"/>
			<point x="367" y="322"/>
			<point x="326" y="305"/>
			<point x="231" y="304" type="curve" smooth="yes"/>
			<point x="98" y="303"/>
			<point x="35" y="220"/>
			<point x="35" y="138" type="curve" smooth="yes"/>
			<point x="35" y="58"/>
			<point x="95" y="-15"/>
		</contour>
		<contour>
			<point x="220" y="62" type="curve" smooth="yes"/>
			<point x="139" y="61"/>
			<point x="115" y="109"/>
			<point x="115" y="143" type="curve" smooth="yes"/>
			<point x="115" y="184"/>
			<point x="150" y="229"/>
			<point x="232" y="229" type="curve" smooth="yes"/>
			<point x="295" y="229"/>
			<point x="347" y="256"/>
			<point x="366" y="276" type="curve"/>
			<point x="369" y="281"/>
			<point x="369" y="277"/>
			<point x="369" y="276" type="curve" smooth="yes"/>
			<point x="369" y="170" type="line" smooth="yes"/>
			<point x="369" y="98"/>
			<point x="300" y="63"/>
		</contour>
	</outline>
</glyph>
<glyph name="divide" format="2">
	<advance width="515"/>
	<unicode hex="00F7"/>
	<outline>
		<contour>
			<point x="262" y="547" type="move"/>
			<point x="262" y="466" type="line"/>
		</contour>
		<contour>
			<point x="44" y="359" type="move"/>
			<point x="471" y="359" type="line"/>
		</contour>
		<contour>
			<point x="262" y="254" type="move"/>
			<point x="262" y="173" type="line"/>
		</contour>
	</outline>
</glyph>
<glyph name="oslash" format="2">
	<advance width="536"/>
	<unicode hex="00F8"/>
	<outline>
		<contour>
			<point x="466" y="549" type="move"/>
			<point x="70" y="-9" type="line"/>
		</contour>
		<component base="o" xOffset="-5"/>
	</outline>
</glyph>
<glyph name="thorn" format="2">
	<advance width="600"/>
	<unicode hex="00FE"/>
	<outline>
		<contour>
			<point x="142" y="92" type="line"/>
			<point x="141" y="427" type="line"/>
			<point x="150" y="427" type="line"/>
			<point x="150" y="690" type="line" smooth="yes"/>
			<point x="150" y="712"/>
			<point x="132" y="730"/>
			<point x="110" y="730" type="curve" smooth="yes"/>
			<point x="88" y="730"/>
			<point x="70" y="712"/>
			<point x="70" y="690" type="curve" smooth="yes"/>
			<point x="70" y="-139" type="line" smooth="yes"/>
			<point x="70" y="-162"/>
			<point x="88" y="-180"/>
			<point x="110" y="-180" type="curve" smooth="yes"/>
			<point x="132" y="-180"/>
			<point x="150" y="-162"/>
			<point x="150" y="-139" type="curve" smooth="yes"/>
			<point x="150" y="92" type="line"/>
		</contour>
		<contour>
			<point x="450" y="257" type="curve" smooth="yes"/>
			<point x="450" y="134"/>
			<point x="393" y="62"/>
			<point x="297" y="62" type="curve" smooth="yes"/>
			<point x="201" y="62"/>
			<point x="150" y="129"/>
			<point x="150" y="257" type="curve" smooth="yes"/>
			<point x="150" y="385"/>
			<point x="201" y="452"/>
			<point x="295" y="453" type="curve" smooth="yes"/>
			<point x="396" y="454"/>
			<point x="450" y="382"/>
		</contour>
		<contour>
			<point x="134" y="441" type="curve"/>
			<point x="133" y="66" type="line"/>
			<point x="175" y="11"/>
			<point x="238" y="-15"/>
			<point x="312" y="-15" type="curve" smooth="yes"/>
			<point x="451" y="-15"/>
			<point x="530" y="113"/>
			<point x="530" y="257" type="curve" smooth="yes"/>
			<point x="530" y="406"/>
			<point x="456" y="530"/>
			<point x="313" y="530" type="curve" smooth="yes"/>
			<point x="238" y="530"/>
			<point x="177" y="495"/>
		</contour>
	</outline>
</glyph>
<glyph name="aogonek" format="2">
	<advance width="484"/>
	<unicode hex="0105"/>
	<anchor x="389" y="8" name="_ogonek"/>
	<outline>
		<contour>
			<point x="120" y="143" type="curve" smooth="yes"/>
			<point x="120" y="184"/>
			<point x="155" y="229"/>
			<point x="237" y="229" type="curve" smooth="yes"/>
			<point x="300" y="229"/>
			<point x="352" y="256"/>
			<point x="371" y="276" type="curve"/>
			<point x="374" y="281"/>
			<point x="374" y="277"/>
			<point x="374" y="276" type="curve" smooth="yes"/>
			<point x="374" y="254" type="line"/>
			<point x="374" y="170" type="line" smooth="yes"/>
			<point x="374" y="98"/>
			<point x="305" y="63"/>
			<point x="225" y="62" type="curve" smooth="yes"/>
			<point x="144" y="61"/>
			<point x="120" y="109"/>
		</contour>
		<contour>
			<point x="381" y="68" type="curve"/>
			<point x="381" y="52" type="line"/>
			<point x="381" y="28" type="line" smooth="yes"/>
			<point x="381" y="6"/>
			<point x="395" y="-10"/>
			<point x="417" y="-10" type="curve" smooth="yes"/>
			<point x="439" y="-10"/>
			<point x="454" y="6"/>
			<point x="454" y="28" type="curve" smooth="yes"/>
			<point x="454" y="335" type="line" smooth="yes"/>
			<point x="454" y="435"/>
			<point x="417" y="530"/>
			<point x="266" y="530" type="curve" smooth="yes"/>
			<point x="156" y="530"/>
			<point x="100" y="462"/>
			<point x="83" y="424" type="curve" smooth="yes"/>
			<point x="72" y="400"/>
			<point x="82" y="368"/>
			<point x="117" y="368" type="curve" smooth="yes"/>
			<point x="136" y="368"/>
			<point x="146" y="377"/>
			<point x="156" y="395" type="curve" smooth="yes"/>
			<point x="169" y="418"/>
			<point x="201" y="453"/>
			<point x="267" y="453" type="curve" smooth="yes"/>
			<point x="347" y="453"/>
			<point x="372" y="411"/>
			<point x="372" y="369" type="curve" smooth="yes"/>
			<point x="372" y="322"/>
			<point x="331" y="305"/>
			<point x="236" y="304" type="curve" smooth="yes"/>
			<point x="103" y="303"/>
			<point x="40" y="220"/>
			<point x="40" y="138" type="curve" smooth="yes"/>
			<point x="40" y="58"/>
			<point x="100" y="-13"/>
			<point x="212" y="-15" type="curve" smooth="yes"/>
			<point x="273" y="-16"/>
			<point x="340" y="0"/>
			<point x="378" y="68" type="curve"/>
			<point x="380" y="72"/>
			<point x="381" y="71"/>
		</contour>
		<contour>
			<point x="385" y="64" type="move"/>
		</contour>
		<contour>
			<point x="346" y="-185" type="curve" smooth="yes"/>
			<point x="401" y="-185"/>
			<point x="454" y="-154"/>
			<point x="454" y="-127" type="curve" smooth="yes"/>
			<point x="454" y="-111"/>
			<point x="446" y="-102"/>
			<point x="432" y="-102" type="curve" smooth="yes"/>
			<point x="422" y="-102"/>
			<point x="411" y="-108"/>
			<point x="402" y="-120" type="curve" smooth="yes"/>
			<point x="392" y="-133"/>
			<point x="379" y="-140"/>
			<point x="368" y="-140" type="curve" smooth="yes"/>
			<point x="348" y="-140"/>
			<point x="335" y="-129"/>
			<point x="335" y="-109" type="curve" smooth="yes"/>
			<point x="335" y="-78"/>
			<point x="373" y="-31"/>
			<point x="435" y="-6" type="curve"/>
			<point x="445" y="36" type="line"/>
			<point x="439" y="42" type="line"/>
			<point x="421" y="34"/>
			<point x="381" y="47"/>
			<point x="381" y="28" type="curve" smooth="yes"/>
			<point x="381" y="18"/>
			<point x="380" y="14"/>
			<point x="369" y="8" type="curve" smooth="yes"/>
			<point x="306" y="-26"/>
			<point x="253" y="-71"/>
			<point x="253" y="-119" type="curve" smooth="yes"/>
			<point x="253" y="-161"/>
			<point x="289" y="-185"/>
		</contour>
	</outline>
</glyph>
<glyph name="dcroat" format="2">
	<advance width="600"/>
	<unicode hex="0111"/>
	<outline>
		<contour>
			<point x="115" y="258" type="curve" smooth="yes"/>
			<point x="115" y="381"/>
			<point x="172" y="453"/>
			<point x="268" y="453" type="curve" smooth="yes"/>
			<point x="364" y="453"/>
			<point x="415" y="386"/>
			<point x="415" y="258" type="curve" smooth="yes"/>
			<point x="415" y="130"/>
			<point x="364" y="63"/>
			<point x="270" y="62" type="curve" smooth="yes"/>
			<point x="169" y="61"/>
			<point x="115" y="133"/>
		</contour>
		<contour>
			<point x="35" y="258" type="curve" smooth="yes"/>
			<point x="35" y="114"/>
			<point x="110" y="-14"/>
			<point x="248" y="-15" type="curve" smooth="yes"/>
			<point x="320" y="-15"/>
			<point x="388" y="20"/>
			<point x="431" y="84" type="curve"/>
			<point x="415" y="102" type="line"/>
			<point x="415" y="31" type="line" smooth="yes"/>
			<point x="415" y="8"/>
			<point x="433" y="-10"/>
			<point x="455" y="-10" type="curve" smooth="yes"/>
			<point x="477" y="-10"/>
			<point x="495" y="8"/>
			<point x="495" y="31" type="curve" smooth="yes"/>
			<point x="495" y="690" type="line" smooth="yes"/>
			<point x="495" y="712"/>
			<point x="477" y="730"/>
			<point x="455" y="730" type="curve" smooth="yes"/>
			<point x="433" y="730"/>
			<point x="415" y="712"/>
			<point x="415" y="690" type="curve" smooth="yes"/>
			<point x="415" y="427" type="line"/>
			<point x="432" y="443" type="line"/>
			<point x="402" y="491"/>
			<point x="329" y="530"/>
			<point x="258" y="530" type="curve" smooth="yes"/>
			<point x="119" y="530"/>
			<point x="35" y="402"/>
		</contour>
		<contour>
			<point x="231" y="618" type="move"/>
			<point x="589" y="618" type="line"/>
		</contour>
	</outline>
</glyph>
<glyph name="Eogonek" format="2">
	<advance width="564"/>
	<unicode hex="0118"/>
	<outline>
		<component base="E"/>
		<contour>
			<point x="447" y="-98" type="curve" smooth="yes"/>
			<point x="432" y="-113"/>
			<point x="424" y="-121"/>
			<point x="408" y="-121" type="curve" smooth="yes"/>
			<point x="388" y="-121"/>
			<point x="384" y="-109"/>
			<point x="384" y="-101" type="curve" smooth="yes"/>
			<point x="384" y="-60"/>
			<point x="504" y="-34"/>
			<point x="504" y="35" type="curve" smooth="yes"/>
			<point x="504" y="36" type="line"/>
			<point x="430" y="45" type="line"/>
			<point x="428" y="23" type="line" smooth="yes"/>
			<point x="425" y="-7"/>
			<point x="314" y="-31"/>
			<point x="314" y="-109" type="curve" smooth="yes"/>
			<point x="314" y="-160"/>
			<point x="359" y="-183"/>
			<point x="406" y="-185" type="curve" smooth="yes"/>
			<point x="432" y="-186"/>
			<point x="468" y="-181"/>
			<point x="498" y="-146" type="curve" smooth="yes"/>
			<point x="504" y="-139"/>
			<point x="508" y="-131"/>
			<point x="508" y="-121" type="curve" smooth="yes"/>
			<point x="508" y="-101"/>
			<point x="494" y="-87"/>
			<point x="474" y="-87" type="curve" smooth="yes"/>
			<point x="463" y="-87"/>
			<point x="454" y="-91"/>
		</contour>
	</outline>
</glyph>
<glyph name="eogonek" format="2">
	<advance width="528"/>
	<unicode hex="0119"/>
	<anchor x="386" y="10" name="_ogonek"/>
	<outline>
		<component base="e"/>
		<contour>
			<point x="343" y="-185" type="curve" smooth="yes"/>
			<point x="398" y="-185"/>
			<point x="451" y="-154"/>
			<point x="451" y="-127" type="curve" smooth="yes"/>
			<point x="451" y="-111"/>
			<point x="443" y="-102"/>
			<point x="429" y="-102" type="curve" smooth="yes"/>
			<point x="419" y="-102"/>
			<point x="408" y="-108"/>
			<point x="399" y="-120" type="curve" smooth="yes"/>
			<point x="389" y="-133"/>
			<point x="376" y="-140"/>
			<point x="365" y="-140" type="curve" smooth="yes"/>
			<point x="345" y="-140"/>
			<point x="332" y="-129"/>
			<point x="332" y="-109" type="curve" smooth="yes"/>
			<point x="332" y="-61"/>
			<point x="370" y="3"/>
			<point x="422" y="46" type="curve"/>
			<point x="404" y="44" type="line"/>
			<point x="316" y="3"/>
			<point x="250" y="-58"/>
			<point x="250" y="-119" type="curve" smooth="yes"/>
			<point x="250" y="-161"/>
			<point x="286" y="-185"/>
		</contour>
	</outline>
</glyph>
<glyph name="iogonek" format="2">
	<advance width="295"/>
	<unicode hex="012F"/>
	<outline>
		<component base="idotless" xOffset="64"/>
		<component base="dotaccentcomb" xOffset="85"/>
		<contour>
			<point x="143" y="-185" type="curve" smooth="yes"/>
			<point x="202" y="-185"/>
			<point x="245" y="-154"/>
			<point x="245" y="-127" type="curve" smooth="yes"/>
			<point x="245" y="-111"/>
			<point x="237" y="-102"/>
			<point x="223" y="-102" type="curve" smooth="yes"/>
			<point x="213" y="-102"/>
			<point x="202" y="-108"/>
			<point x="193" y="-120" type="curve" smooth="yes"/>
			<point x="183" y="-133"/>
			<point x="170" y="-140"/>
			<point x="159" y="-140" type="curve" smooth="yes"/>
			<point x="145" y="-140"/>
			<point x="132" y="-129"/>
			<point x="132" y="-109" type="curve" smooth="yes"/>
			<point x="132" y="-78"/>
			<point x="165" y="-28"/>
			<point x="198" y="-3" type="curve"/>
			<point x="203" y="36" type="line"/>
			<point x="197" y="42" type="line"/>
			<point x="179" y="34"/>
			<point x="134" y="47"/>
			<point x="134" y="28" type="curve" smooth="yes"/>
			<point x="134" y="18"/>
			<point x="132" y="18"/>
			<point x="122" y="8" type="curve" smooth="yes"/>
			<point x="88" y="-26"/>
			<point x="50" y="-71"/>
			<point x="50" y="-119" type="curve" smooth="yes"/>
			<point x="50" y="-161"/>
			<point x="86" y="-185"/>
		</contour>
	</outline>
</glyph>
<glyph name="OE" format="2">
	<advance width="944"/>
	<unicode hex="0152"/>
	<anchor x="472" y="0" name="bottom"/>
	<anchor x="472" y="700" name="top"/>
	<outline>
		<contour>
			<point x="507" y="534" type="curve"/>
			<point x="507" y="657" type="line"/>
			<point x="462" y="695"/>
			<point x="406" y="715"/>
			<point x="344" y="715" type="curve" smooth="yes"/>
			<point x="178" y="715"/>
			<point x="60" y="571"/>
			<point x="60" y="350" type="curve" smooth="yes"/>
			<point x="60" y="130"/>
			<point x="168" y="-14"/>
			<point x="344" y="-14" type="curve"/>
			<point x="408" y="-14"/>
			<point x="463" y="5"/>
			<point x="507" y="40" type="curve"/>
			<point x="507" y="166" type="line"/>
			<point x="473" y="100"/>
			<point x="417" y="61"/>
			<point x="344" y="61" type="curve" smooth="yes"/>
			<point x="218" y="61"/>
			<point x="142" y="179"/>
			<point x="142" y="350" type="curve" smooth="yes"/>
			<point x="142" y="521"/>
			<point x="218" y="640"/>
			<point x="344" y="640" type="curve" smooth="yes"/>
			<point x="417" y="640"/>
			<point x="473" y="600"/>
		</contour>
		<contour>
			<point x="532" y="0" type="line"/>
			<point x="876" y="0" type="line" smooth="yes"/>
			<point x="897" y="0"/>
			<point x="914" y="17"/>
			<point x="914" y="38" type="curve" smooth="yes"/>
			<point x="914" y="59"/>
			<point x="897" y="76"/>
			<point x="876" y="76" type="curve" smooth="yes"/>
			<point x="532" y="76" type="line"/>
		</contour>
		<contour>
			<point x="531" y="0" type="curve"/>
			<point x="572" y="0" type="line"/>
			<point x="572" y="700" type="line"/>
			<point x="531" y="700" type="line"/>
			<point x="508" y="700"/>
			<point x="490" y="682"/>
			<point x="490" y="659" type="curve" smooth="yes"/>
			<point x="490" y="41" type="line" smooth="yes"/>
			<point x="490" y="18"/>
			<point x="508" y="0"/>
		</contour>
		<contour>
			<point x="532" y="326" type="line"/>
			<point x="828" y="326" type="line" smooth="yes"/>
			<point x="849" y="326"/>
			<point x="866" y="343"/>
			<point x="866" y="364" type="curve" smooth="yes"/>
			<point x="866" y="385"/>
			<point x="849" y="402"/>
			<point x="828" y="402" type="curve" smooth="yes"/>
			<point x="532" y="402" type="line"/>
		</contour>
		<contour>
			<point x="532" y="624" type="line"/>
			<point x="849" y="624" type="line" smooth="yes"/>
			<point x="870" y="624"/>
			<point x="887" y="641"/>
			<point x="887" y="662" type="curve" smooth="yes"/>
			<point x="887" y="683"/>
			<point x="870" y="700"/>
			<point x="849" y="700" type="curve" smooth="yes"/>
			<point x="532" y="700" type="line"/>
		</contour>
	</outline>
</glyph>
<glyph name="oe" format="2">
	<advance width="899"/>
	<unicode hex="0153"/>
	<outline>
		<contour>
			<point x="421" y="259" type="curve"/>
			<point x="421" y="136"/>
			<point x="368" y="62"/>
			<point x="268" y="62" type="curve" smooth="yes"/>
			<point x="168" y="62"/>
			<point x="115" y="136"/>
			<point x="115" y="259" type="curve" smooth="yes"/>
			<point x="115" y="378"/>
			<point x="168" y="453"/>
			<point x="268" y="453" type="curve" smooth="yes"/>
			<point x="368" y="453"/>
			<point x="421" y="378"/>
		</contour>
		<contour>
			<point x="501" y="259" type="curve" smooth="yes"/>
			<point x="501" y="413"/>
			<point x="411" y="530"/>
			<point x="268" y="530" type="curve" smooth="yes"/>
			<point x="125" y="530"/>
			<point x="35" y="413"/>
			<point x="35" y="259" type="curve" smooth="yes"/>
			<point x="35" y="101"/>
			<point x="125" y="-15"/>
			<point x="268" y="-15" type="curve" smooth="yes"/>
			<point x="411" y="-15"/>
			<point x="501" y="101"/>
		</contour>
		<contour>
			<point x="652" y="-15" type="curve" smooth="yes"/>
			<point x="737" y="-15"/>
			<point x="802" y="32"/>
			<point x="834" y="80" type="curve" smooth="yes"/>
			<point x="863" y="123"/>
			<point x="839" y="155"/>
			<point x="813" y="155" type="curve" smooth="yes"/>
			<point x="789" y="155"/>
			<point x="778" y="134"/>
			<point x="771" y="123" type="curve" smooth="yes"/>
			<point x="753" y="94"/>
			<point x="711" y="62"/>
			<point x="650" y="62" type="curve" smooth="yes"/>
			<point x="573" y="62"/>
			<point x="501" y="115"/>
			<point x="501" y="260" type="curve" smooth="yes"/>
			<point x="501" y="386"/>
			<point x="561" y="453"/>
			<point x="648" y="453" type="curve" smooth="yes"/>
			<point x="743" y="453"/>
			<point x="794" y="373"/>
			<point x="795" y="282" type="curve"/>
			<point x="824" y="307" type="line"/>
			<point x="485" y="307" type="line"/>
			<point x="485" y="234" type="line"/>
			<point x="812" y="234" type="line" smooth="yes"/>
			<point x="850" y="234"/>
			<point x="869" y="255"/>
			<point x="869" y="293" type="curve" smooth="yes"/>
			<point x="869" y="422"/>
			<point x="781" y="530"/>
			<point x="651" y="530" type="curve" smooth="yes"/>
			<point x="520" y="530"/>
			<point x="421" y="420"/>
			<point x="421" y="255" type="curve" smooth="yes"/>
			<point x="421" y="76"/>
			<point x="532" y="-15"/>
		</contour>
	</outline>
</glyph>
<glyph name="tcaron" format="2">
	<advance width="340"/>
	<unicode hex="0165"/>
	<anchor x="197" y="770" name="_top"/>
	<outline>
		<component base="t"/>
		<contour>
			<point x="309" y="603" type="curve" smooth="yes"/>
			<point x="337" y="716" type="line" smooth="yes"/>
			<point x="344" y="746"/>
			<point x="339" y="780"/>
			<point x="299" y="780" type="curve" smooth="yes"/>
			<point x="275" y="780"/>
			<point x="262" y="767"/>
			<point x="256" y="728" type="curve" smooth="yes"/>
			<point x="237" y="612" type="line" smooth="yes"/>
			<point x="233" y="589"/>
			<point x="248" y="566"/>
			<point x="271" y="566" type="curve" smooth="yes"/>
			<point x="289" y="566"/>
			<point x="303" y="580"/>
		</contour>
	</outline>
</glyph>
<glyph name="Tbar" format="2">
	<advance width="561"/>
	<unicode hex="0166"/>
	<outline>
		<component base="T"/>
		<contour>
			<point x="113" y="370" type="move"/>
			<point x="448" y="370" type="line"/>
		</contour>
	</outline>
</glyph>
<glyph name="tbar" format="2">
	<advance width="351"/>
	<unicode hex="0167"/>
	<outline>
		<contour>
			<point x="70" y="442" type="curve" smooth="yes"/>
			<point x="271" y="442" type="line" smooth="yes"/>
			<point x="293" y="442"/>
			<point x="311" y="459"/>
			<point x="311" y="479" type="curve" smooth="yes"/>
			<point x="311" y="499"/>
			<point x="293" y="515"/>
			<point x="271" y="515" type="curve" smooth="yes"/>
			<point x="70" y="515" type="line" smooth="yes"/>
			<point x="48" y="515"/>
			<point x="30" y="499"/>
			<point x="30" y="479" type="curve" smooth="yes"/>
			<point x="30" y="458"/>
			<point x="48" y="442"/>
		</contour>
		<contour>
			<point x="282" y="21" type="curve" smooth="yes"/>
			<point x="291" y="31"/>
			<point x="295" y="40"/>
			<point x="295" y="54" type="curve" smooth="yes"/>
			<point x="295" y="73"/>
			<point x="279" y="91"/>
			<point x="257" y="91" type="curve" smooth="yes"/>
			<point x="245" y="91"/>
			<point x="235" y="86"/>
			<point x="229" y="81" type="curve" smooth="yes"/>
			<point x="219" y="72"/>
			<point x="210" y="71"/>
			<point x="203" y="71" type="curve" smooth="yes"/>
			<point x="182" y="71"/>
			<point x="177" y="91"/>
			<point x="177" y="117" type="curve" smooth="yes"/>
			<point x="177" y="580" type="line" smooth="yes"/>
			<point x="177" y="602"/>
			<point x="159" y="620"/>
			<point x="137" y="620" type="curve" smooth="yes"/>
			<point x="115" y="620"/>
			<point x="97" y="602"/>
			<point x="97" y="580" type="curve" smooth="yes"/>
			<point x="97" y="117" type="line" smooth="yes"/>
			<point x="97" y="30"/>
			<point x="144" y="-9"/>
			<point x="206" y="-9" type="curve" smooth="yes"/>
			<point x="232" y="-9"/>
			<point x="263" y="0"/>
		</contour>
		<contour>
			<point x="70" y="242" type="curve" smooth="yes"/>
			<point x="271" y="242" type="line" smooth="yes"/>
			<point x="293" y="242"/>
			<point x="311" y="259"/>
			<point x="311" y="279" type="curve" smooth="yes"/>
			<point x="311" y="299"/>
			<point x="293" y="315"/>
			<point x="271" y="315" type="curve" smooth="yes"/>
			<point x="70" y="315" type="line" smooth="yes"/>
			<point x="48" y="315"/>
			<point x="30" y="299"/>
			<point x="30" y="279" type="curve" smooth="yes"/>
			<point x="30" y="258"/>
			<point x="48" y="242"/>
		</contour>
	</outline>
</glyph>
<glyph name="uogonek" format="2">
	<advance width="559"/>
	<unicode hex="0173"/>
	<outline>
		<component base="u"/>
		<contour>
			<point x="428" y="-96" type="curve" smooth="yes"/>
			<point x="413" y="-111"/>
			<point x="405" y="-119"/>
			<point x="389" y="-119" type="curve" smooth="yes"/>
			<point x="369" y="-119"/>
			<point x="365" y="-107"/>
			<point x="365" y="-99" type="curve" smooth="yes"/>
			<point x="365" y="-58"/>
			<point x="477" y="-32"/>
			<point x="477" y="28" type="curve" smooth="yes"/>
			<point x="477" y="106" type="line"/>
			<point x="397" y="106" type="line"/>
			<point x="397" y="23" type="line" smooth="yes"/>
			<point x="397" y="-7"/>
			<point x="295" y="-30"/>
			<point x="295" y="-107" type="curve" smooth="yes"/>
			<point x="295" y="-158"/>
			<point x="340" y="-181"/>
			<point x="387" y="-183" type="curve" smooth="yes"/>
			<point x="413" y="-184"/>
			<point x="449" y="-179"/>
			<point x="479" y="-144" type="curve" smooth="yes"/>
			<point x="485" y="-137"/>
			<point x="489" y="-129"/>
			<point x="489" y="-119" type="curve" smooth="yes"/>
			<point x="489" y="-99"/>
			<point x="475" y="-85"/>
			<point x="455" y="-85" type="curve" smooth="yes"/>
			<point x="444" y="-85"/>
			<point x="435" y="-89"/>
		</contour>
	</outline>
</glyph>
<glyph name="Schwa" format="2">
	<advance width="681"/>
	<unicode hex="018F"/>
	<outline>
		<contour>
			<point x="578" y="344" type="move"/>
			<point x="121" y="344" type="line" smooth="yes"/>
			<point x="109" y="344"/>
			<point x="100" y="336"/>
			<point x="100" y="324" type="curve" smooth="yes"/>
			<point x="98" y="198"/>
			<point x="154" y="25"/>
			<point x="350" y="25" type="curve" smooth="yes"/>
			<point x="502" y="25"/>
			<point x="581" y="164"/>
			<point x="581" y="361" type="curve" smooth="yes"/>
			<point x="581" y="400"/>
			<point x="565" y="675"/>
			<point x="339" y="675" type="curve" smooth="yes"/>
			<point x="230" y="675"/>
			<point x="159" y="603"/>
			<point x="130" y="530" type="curve"/>
		</contour>
	</outline>
</glyph>
<glyph name="florin" format="2">
	<advance width="636"/>
	<unicode hex="0192"/>
	<anchor x="944" y="88" name="bottom"/>
	<anchor x="1115" y="108" name="ogonek"/>
	<anchor x="955" y="490" name="top"/>
	<outline>
		<contour>
			<point x="61" y="-2" type="curve"/>
			<point x="81" y="-7"/>
			<point x="104" y="-14"/>
			<point x="138" y="-14" type="curve"/>
			<point x="264" y="-14"/>
			<point x="314" y="84"/>
			<point x="330" y="192" type="curve"/>
			<point x="341" y="274"/>
			<point x="378" y="485"/>
			<point x="391" y="565" type="curve"/>
			<point x="401" y="620"/>
			<point x="450" y="637"/>
			<point x="494" y="637" type="curve"/>
			<point x="511" y="637"/>
			<point x="532" y="634"/>
			<point x="556" y="627" type="curve"/>
			<point x="581" y="621"/>
			<point x="606" y="640"/>
			<point x="606" y="666" type="curve"/>
			<point x="606" y="684"/>
			<point x="593" y="700"/>
			<point x="576" y="705" type="curve"/>
			<point x="548" y="712"/>
			<point x="517" y="717"/>
			<point x="494" y="717" type="curve"/>
			<point x="432" y="717"/>
			<point x="330" y="683"/>
			<point x="313" y="577" type="curve"/>
			<point x="300" y="499"/>
			<point x="263" y="286"/>
			<point x="250" y="204" type="curve"/>
			<point x="237" y="113"/>
			<point x="213" y="66"/>
			<point x="138" y="66" type="curve"/>
			<point x="116" y="66"/>
			<point x="103" y="71"/>
			<point x="79" y="76" type="curve"/>
			<point x="54" y="82"/>
			<point x="30" y="63"/>
			<point x="30" y="37" type="curve"/>
			<point x="30" y="18"/>
			<point x="43" y="2"/>
		</contour>
		<contour>
			<point x="511" y="412" type="curve"/>
			<point x="130" y="412" type="line"/>
			<point x="108" y="412"/>
			<point x="90" y="394"/>
			<point x="90" y="372" type="curve"/>
			<point x="90" y="350"/>
			<point x="108" y="332"/>
			<point x="130" y="332" type="curve"/>
			<point x="511" y="332" type="line"/>
			<point x="533" y="332"/>
			<point x="551" y="350"/>
			<point x="551" y="372" type="curve"/>
			<point x="551" y="394"/>
			<point x="533" y="412"/>
		</contour>
	</outline>
</glyph>
<glyph name="Ohorn" format="2">
	<advance width="688"/>
	<unicode hex="01A0"/>
	<anchor x="344" y="0" name="bottom"/>
	<anchor x="344" y="700" name="top"/>
	<outline>
		<contour>
			<point x="344" y="-14" type="curve"/>
			<point x="168" y="-14"/>
			<point x="60" y="130"/>
			<point x="60" y="350" type="curve" smooth="yes"/>
			<point x="60" y="571"/>
			<point x="178" y="715"/>
			<point x="344" y="715" type="curve" smooth="yes"/>
			<point x="510" y="715"/>
			<point x="628" y="571"/>
			<point x="628" y="350" type="curve" smooth="yes"/>
			<point x="628" y="130"/>
			<point x="520" y="-14"/>
		</contour>
		<contour>
			<point x="344" y="640" type="curve" smooth="yes"/>
			<point x="218" y="640"/>
			<point x="142" y="521"/>
			<point x="142" y="350" type="curve" smooth="yes"/>
			<point x="142" y="179"/>
			<point x="218" y="61"/>
			<point x="344" y="61" type="curve" smooth="yes"/>
			<point x="470" y="61"/>
			<point x="546" y="179"/>
			<point x="546" y="350" type="curve" smooth="yes"/>
			<point x="546" y="521"/>
			<point x="470" y="640"/>
		</contour>
		<contour>
			<point x="495" y="813" type="curve"/>
			<point x="495" y="837"/>
			<point x="509" y="851"/>
			<point x="533" y="851" type="curve" smooth="yes"/>
			<point x="553" y="851"/>
			<point x="567" y="835"/>
			<point x="567" y="813" type="curve" smooth="yes"/>
			<point x="567" y="743"/>
			<point x="500" y="665"/>
			<point x="435" y="665" type="curve" smooth="yes"/>
			<point x="347" y="665" type="line"/>
			<point x="348" y="715" type="line"/>
			<point x="387" y="715" type="line" smooth="yes"/>
			<point x="447" y="715"/>
			<point x="495" y="760"/>
		</contour>
	</outline>
</glyph>
<glyph name="ohorn" format="2">
	<advance width="546"/>
	<unicode hex="01A1"/>
	<anchor x="275" y="0" name="bottom"/>
	<anchor x="275" y="515" name="top"/>
	<outline>
		<contour>
			<point x="426" y="259" type="curve"/>
			<point x="426" y="136"/>
			<point x="373" y="62"/>
			<point x="273" y="62" type="curve" smooth="yes"/>
			<point x="173" y="62"/>
			<point x="120" y="136"/>
			<point x="120" y="259" type="curve" smooth="yes"/>
			<point x="120" y="378"/>
			<point x="173" y="453"/>
			<point x="273" y="453" type="curve" smooth="yes"/>
			<point x="373" y="453"/>
			<point x="426" y="378"/>
		</contour>
		<contour>
			<point x="506" y="259" type="curve" smooth="yes"/>
			<point x="506" y="413"/>
			<point x="416" y="530"/>
			<point x="273" y="530" type="curve" smooth="yes"/>
			<point x="130" y="530"/>
			<point x="40" y="413"/>
			<point x="40" y="259" type="curve" smooth="yes"/>
			<point x="40" y="101"/>
			<point x="130" y="-15"/>
			<point x="273" y="-15" type="curve" smooth="yes"/>
			<point x="416" y="-15"/>
			<point x="506" y="101"/>
		</contour>
		<contour>
			<point x="433" y="618" type="curve" smooth="yes"/>
			<point x="433" y="577"/>
			<point x="405" y="525"/>
			<point x="323" y="525" type="curve"/>
			<point x="323" y="467" type="line"/>
			<point x="457" y="467"/>
			<point x="505" y="560"/>
			<point x="505" y="613" type="curve" smooth="yes"/>
			<point x="505" y="640"/>
			<point x="491" y="656"/>
			<point x="468" y="656" type="curve" smooth="yes"/>
			<point x="447" y="656"/>
			<point x="433" y="642"/>
		</contour>
	</outline>
</glyph>
<glyph name="oogonek" format="2">
	<advance width="546"/>
	<unicode hex="01EB"/>
	<outline>
		<component base="o"/>
		<contour>
			<point x="349" y="-185" type="curve" smooth="yes"/>
			<point x="404" y="-185"/>
			<point x="457" y="-154"/>
			<point x="457" y="-127" type="curve" smooth="yes"/>
			<point x="457" y="-111"/>
			<point x="449" y="-102"/>
			<point x="435" y="-102" type="curve" smooth="yes"/>
			<point x="425" y="-102"/>
			<point x="414" y="-108"/>
			<point x="405" y="-120" type="curve" smooth="yes"/>
			<point x="395" y="-133"/>
			<point x="382" y="-140"/>
			<point x="371" y="-140" type="curve" smooth="yes"/>
			<point x="351" y="-140"/>
			<point x="338" y="-129"/>
			<point x="338" y="-109" type="curve" smooth="yes"/>
			<point x="338" y="-61"/>
			<point x="376" y="3"/>
			<point x="428" y="46" type="curve"/>
			<point x="410" y="44" type="line"/>
			<point x="322" y="3"/>
			<point x="256" y="-58"/>
			<point x="256" y="-119" type="curve" smooth="yes"/>
			<point x="256" y="-161"/>
			<point x="292" y="-185"/>
		</contour>
	</outline>
</glyph>
<glyph name="jdotless" format="2">
	<advance width="233"/>
	<unicode hex="0237"/>
	<anchor x="129" y="-170" name="bottom"/>
	<anchor x="129" y="515" name="top"/>
	<outline>
		<contour>
			<point x="-17" y="-155" type="curve" smooth="yes"/>
			<point x="2" y="-176"/>
			<point x="33" y="-185"/>
			<point x="59" y="-185" type="curve" smooth="yes"/>
			<point x="121" y="-185"/>
			<point x="168" y="-146"/>
			<point x="168" y="-59" type="curve" smooth="yes"/>
			<point x="168" y="485" type="line" smooth="yes"/>
			<point x="168" y="507"/>
			<point x="150" y="525"/>
			<point x="128" y="525" type="curve" smooth="yes"/>
			<point x="106" y="525"/>
			<point x="88" y="507"/>
			<point x="88" y="485" type="curve" smooth="yes"/>
			<point x="88" y="-59" type="line" smooth="yes"/>
			<point x="88" y="-88"/>
			<point x="85" y="-105"/>
			<point x="62" y="-105" type="curve" smooth="yes"/>
			<point x="55" y="-105"/>
			<point x="46" y="-104"/>
			<point x="36" y="-95" type="curve" smooth="yes"/>
			<point x="30" y="-90"/>
			<point x="20" y="-85"/>
			<point x="8" y="-85" type="curve" smooth="yes"/>
			<point x="-14" y="-85"/>
			<point x="-30" y="-103"/>
			<point x="-30" y="-122" type="curve" smooth="yes"/>
			<point x="-30" y="-136"/>
			<point x="-26" y="-145"/>
		</contour>
	</outline>
</glyph>
<glyph name="brevecomb" format="2">
	<advance width="0"/>
	<unicode hex="0306"/>
	<anchor x="207" y="515" name="_top"/>
	<anchor x="207" y="768" name="top"/>
	<outline>
		<contour>
			<point x="301" y="754" type="curve" smooth="yes"/>
			<point x="288" y="699"/>
			<point x="260" y="661"/>
			<point x="207" y="661" type="curve" smooth="yes"/>
			<point x="154" y="661"/>
			<point x="126" y="699"/>
			<point x="113" y="755" type="curve" smooth="yes"/>
			<point x="109" y="771"/>
			<point x="94" y="783"/>
			<point x="77" y="783" type="curve" smooth="yes"/>
			<point x="53" y="783"/>
			<point x="35" y="761"/>
			<point x="41" y="737" type="curve" smooth="yes"/>
			<point x="59" y="663"/>
			<point x="113" y="587"/>
			<point x="207" y="587" type="curve" smooth="yes"/>
			<point x="301" y="587"/>
			<point x="355" y="663"/>
			<point x="373" y="736" type="curve" smooth="yes"/>
			<point x="379" y="760"/>
			<point x="361" y="782"/>
			<point x="337" y="782" type="curve" smooth="yes"/>
			<point x="320" y="782"/>
			<point x="305" y="770"/>
		</contour>
	</outline>
</glyph>
<glyph name="cedillacomb" format="2">
	<advance width="0"/>
	<unicode hex="0327"/>
	<anchor x="156" y="0" name="_bottom"/>
	<anchor x="156" y="-200" name="bottom"/>
	<outline>
		<contour>
			<point x="140" y="-200" type="curve" smooth="yes"/>
			<point x="190" y="-200"/>
			<point x="268" y="-175"/>
			<point x="268" y="-108" type="curve" smooth="yes"/>
			<point x="268" y="-62"/>
			<point x="224" y="-35"/>
			<point x="179" y="-35" type="curve" smooth="yes"/>
			<point x="169" y="-35"/>
			<point x="152" y="-37"/>
			<point x="144" y="-40" type="curve" smooth="yes"/>
			<point x="142" y="-41"/>
			<point x="140" y="-40"/>
			<point x="142" y="-38" type="curve" smooth="yes"/>
			<point x="183" y="11" type="line"/>
			<point x="126" y="38" type="line"/>
			<point x="126" y="19" type="line"/>
			<point x="107" y="-2"/>
			<point x="69" y="-48"/>
			<point x="69" y="-65" type="curve" smooth="yes"/>
			<point x="69" y="-71"/>
			<point x="73" y="-81"/>
			<point x="86" y="-81" type="curve" smooth="yes"/>
			<point x="92" y="-81"/>
			<point x="98" y="-79"/>
			<point x="104" y="-78" type="curve" smooth="yes"/>
			<point x="113" y="-76"/>
			<point x="121" y="-75"/>
			<point x="135" y="-75" type="curve" smooth="yes"/>
			<point x="159" y="-75"/>
			<point x="186" y="-88"/>
			<point x="186" y="-114" type="curve" smooth="yes"/>
			<point x="186" y="-150"/>
			<point x="155" y="-161"/>
			<point x="135" y="-161" type="curve" smooth="yes"/>
			<point x="116" y="-161"/>
			<point x="101" y="-156"/>
			<point x="82" y="-145" type="curve" smooth="yes"/>
			<point x="57" y="-131"/>
			<point x="43" y="-149"/>
			<point x="43" y="-164" type="curve" smooth="yes"/>
			<point x="43" y="-192"/>
			<point x="111" y="-200"/>
		</contour>
	</outline>
</glyph>
<glyph name="ogonekcomb" format="2">
	<advance width="0"/>
	<unicode hex="0328"/>
	<outline>
		<contour>
			<point x="183" y="-96" type="curve" smooth="yes"/>
			<point x="168" y="-111"/>
			<point x="154" y="-119"/>
			<point x="137" y="-119" type="curve" smooth="yes"/>
			<point x="120" y="-119"/>
			<point x="110" y="-112"/>
			<point x="110" y="-99" type="curve" smooth="yes"/>
			<point x="110" y="-53"/>
			<point x="222" y="-39"/>
			<point x="222" y="28" type="curve" smooth="yes"/>
			<point x="222" y="106" type="line"/>
			<point x="149" y="106" type="line"/>
			<point x="149" y="23" type="line" smooth="yes"/>
			<point x="149" y="-6"/>
			<point x="37" y="-29"/>
			<point x="37" y="-108" type="curve" smooth="yes"/>
			<point x="37" y="-155"/>
			<point x="76" y="-183"/>
			<point x="138" y="-183" type="curve" smooth="yes"/>
			<point x="178" y="-183"/>
			<point x="212" y="-170"/>
			<point x="234" y="-144" type="curve" smooth="yes"/>
			<point x="240" y="-137"/>
			<point x="244" y="-129"/>
			<point x="244" y="-119" type="curve" smooth="yes"/>
			<point x="244" y="-99"/>
			<point x="230" y="-85"/>
			<point x="210" y="-85" type="curve" smooth="yes"/>
			<point x="199" y="-85"/>
			<point x="190" y="-89"/>
		</contour>
	</outline>
</glyph>
<glyph name="strokeshortcomb" format="2">
	<advance width="0"/>
	<unicode hex="0335"/>
	<anchor x="212" y="370" name="_center"/>
	<outline>
		<contour>
			<point x="344" y="409" type="curve" smooth="yes"/>
			<point x="79" y="409" type="line" smooth="yes"/>
			<point x="58" y="409"/>
			<point x="40" y="392"/>
			<point x="40" y="370" type="curve" smooth="yes"/>
			<point x="40" y="348"/>
			<point x="58" y="331"/>
			<point x="79" y="331" type="curve" smooth="yes"/>
			<point x="344" y="331" type="line" smooth="yes"/>
			<point x="365" y="331"/>
			<point x="383" y="348"/>
			<point x="383" y="370" type="curve" smooth="yes"/>
			<point x="383" y="392"/>
			<point x="365" y="409"/>
		</contour>
	</outline>
</glyph>
<glyph name="Delta" format="2">
	<advance width="635"/>
	<unicode hex="0394"/>
	<outline>
		<contour>
			<point x="72" y="64" type="curve" smooth="yes"/>
			<point x="302" y="663" type="line" smooth="yes"/>
			<point x="308" y="680"/>
			<point x="321" y="680"/>
			<point x="328" y="663" type="curve" smooth="yes"/>
			<point x="563" y="64" type="line" smooth="yes"/>
			<point x="569" y="49"/>
			<point x="562" y="40"/>
			<point x="547" y="40" type="curve" smooth="yes"/>
			<point x="88" y="40" type="line" smooth="yes"/>
			<point x="73" y="40"/>
			<point x="66" y="49"/>
		</contour>
	</outline>
</glyph>
<glyph name="Omega" format="2">
	<advance width="754"/>
	<unicode hex="03A9"/>
	<outline>
		<contour>
			<point x="109" y="45" type="move"/>
			<point x="286" y="45" type="line" smooth="yes"/>
			<point x="289" y="45"/>
			<point x="291" y="47"/>
			<point x="291" y="50" type="curve" smooth="yes"/>
			<point x="291" y="63" type="line" smooth="yes"/>
			<point x="291" y="65"/>
			<point x="290" y="67"/>
			<point x="288" y="69" type="curve" smooth="yes"/>
			<point x="218" y="139"/>
			<point x="128" y="205"/>
			<point x="128" y="386" type="curve" smooth="yes"/>
			<point x="128" y="569"/>
			<point x="237" y="677"/>
			<point x="377" y="677" type="curve" smooth="yes"/>
			<point x="517" y="677"/>
			<point x="626" y="569"/>
			<point x="626" y="386" type="curve" smooth="yes"/>
			<point x="626" y="205"/>
			<point x="536" y="139"/>
			<point x="466" y="69" type="curve" smooth="yes"/>
			<point x="464" y="67"/>
			<point x="463" y="65"/>
			<point x="463" y="63" type="curve" smooth="yes"/>
			<point x="463" y="50" type="line" smooth="yes"/>
			<point x="463" y="47"/>
			<point x="465" y="45"/>
			<point x="468" y="45" type="curve" smooth="yes"/>
			<point x="645" y="45" type="line"/>
		</contour>
	</outline>
</glyph>
<glyph name="Germandbls" format="2">
	<advance width="632"/>
	<unicode hex="1E9E"/>
	<outline>
		<contour>
			<point x="302" y="624" type="curve" smooth="yes"/>
			<point x="461" y="624" type="line"/>
			<point x="445" y="651" type="line"/>
			<point x="311" y="413" type="line" smooth="yes"/>
			<point x="288" y="372"/>
			<point x="293" y="342"/>
			<point x="340" y="328" type="curve" smooth="yes"/>
			<point x="432" y="301"/>
			<point x="516" y="289"/>
			<point x="516" y="188" type="curve" smooth="yes"/>
			<point x="516" y="107"/>
			<point x="462" y="65"/>
			<point x="384" y="65" type="curve" smooth="yes"/>
			<point x="346" y="65"/>
			<point x="306" y="78"/>
			<point x="288" y="84" type="curve" smooth="yes"/>
			<point x="257" y="94"/>
			<point x="225" y="80"/>
			<point x="225" y="47" type="curve" smooth="yes"/>
			<point x="225" y="32"/>
			<point x="234" y="18"/>
			<point x="248" y="12" type="curve" smooth="yes"/>
			<point x="268" y="3"/>
			<point x="332" y="-15"/>
			<point x="388" y="-15" type="curve" smooth="yes"/>
			<point x="524" y="-15"/>
			<point x="597" y="80"/>
			<point x="597" y="196" type="curve" smooth="yes"/>
			<point x="597" y="322"/>
			<point x="496" y="373"/>
			<point x="369" y="398" type="curve"/>
			<point x="378" y="366" type="line"/>
			<point x="525" y="624" type="line" smooth="yes"/>
			<point x="548" y="664"/>
			<point x="527" y="700"/>
			<point x="491" y="700" type="curve" smooth="yes"/>
			<point x="295" y="700" type="line" smooth="yes"/>
			<point x="172" y="700"/>
			<point x="80" y="606"/>
			<point x="80" y="485" type="curve" smooth="yes"/>
			<point x="80" y="35" type="line" smooth="yes"/>
			<point x="80" y="13"/>
			<point x="99" y="-5"/>
			<point x="121" y="-5" type="curve" smooth="yes"/>
			<point x="144" y="-5"/>
			<point x="162" y="13"/>
			<point x="162" y="35" type="curve" smooth="yes"/>
			<point x="162" y="464" type="line" smooth="yes"/>
			<point x="162" y="547"/>
			<point x="199" y="624"/>
		</contour>
	</outline>
</glyph>
<glyph name="Ohorntilde" format="2">
	<advance width="688"/>
	<unicode hex="1EE0"/>
	<anchor x="344" y="0" name="bottom"/>
	<anchor x="344" y="700" name="top"/>
	<outline>
		<contour>
			<point x="344" y="-14" type="curve"/>
			<point x="168" y="-14"/>
			<point x="60" y="130"/>
			<point x="60" y="350" type="curve" smooth="yes"/>
			<point x="60" y="571"/>
			<point x="178" y="715"/>
			<point x="344" y="715" type="curve" smooth="yes"/>
			<point x="510" y="715"/>
			<point x="628" y="571"/>
			<point x="628" y="350" type="curve" smooth="yes"/>
			<point x="628" y="130"/>
			<point x="520" y="-14"/>
		</contour>
		<contour>
			<point x="344" y="640" type="curve" smooth="yes"/>
			<point x="218" y="640"/>
			<point x="142" y="521"/>
			<point x="142" y="350" type="curve" smooth="yes"/>
			<point x="142" y="179"/>
			<point x="218" y="61"/>
			<point x="344" y="61" type="curve" smooth="yes"/>
			<point x="470" y="61"/>
			<point x="546" y="179"/>
			<point x="546" y="350" type="curve" smooth="yes"/>
			<point x="546" y="521"/>
			<point x="470" y="640"/>
		</contour>
		<contour>
			<point x="545" y="813" type="curve"/>
			<point x="545" y="837"/>
			<point x="559" y="851"/>
			<point x="583" y="851" type="curve" smooth="yes"/>
			<point x="603" y="851"/>
			<point x="617" y="835"/>
			<point x="617" y="813" type="curve" smooth="yes"/>
			<point x="617" y="743"/>
			<point x="550" y="665"/>
			<point x="485" y="665" type="curve" smooth="yes"/>
			<point x="347" y="665" type="line"/>
			<point x="348" y="715" type="line"/>
			<point x="437" y="715" type="line" smooth="yes"/>
			<point x="497" y="715"/>
			<point x="545" y="760"/>
		</contour>
		<component base="tildecomb.loclVIT" xOffset="123" yOffset="185"/>
	</outline>
</glyph>
<glyph name="endash" format="2">
	<advance width="588"/>
	<unicode hex="2013"/>
	<outline>
		<contour>
			<point x="544" y="258" type="move"/>
			<point x="44" y="258" type="line"/>
		</contour>
	</outline>
</glyph>
<glyph name="emdash" format="2">
	<advance width="887"/>
	<unicode hex="2014"/>
	<outline>
		<contour>
			<point x="843" y="258" type="move"/>
			<point x="44" y="258" type="line"/>
		</contour>
	</outline>
</glyph>
<glyph name="quoteleft" format="2">
	<advance width="203"/>
	<unicode hex="2018"/>
	<outline>
		<contour>
			<point x="173" y="677" type="curve" smooth="yes"/>
			<point x="173" y="668"/>
			<point x="168" y="656"/>
			<point x="162" y="648" type="curve" smooth="yes"/>
			<point x="126" y="599" type="line" smooth="yes"/>
			<point x="120" y="591"/>
			<point x="122" y="589"/>
			<point x="126" y="588" type="curve" smooth="yes"/>
			<point x="141" y="583"/>
			<point x="151" y="563"/>
			<point x="151" y="539" type="curve" smooth="yes"/>
			<point x="151" y="505"/>
			<point x="128" y="482"/>
			<point x="94" y="482" type="curve" smooth="yes"/>
			<point x="59" y="482"/>
			<point x="40" y="508"/>
			<point x="40" y="546" type="curve" smooth="yes"/>
			<point x="40" y="573"/>
			<point x="56" y="611"/>
			<point x="95" y="691" type="curve" smooth="yes"/>
			<point x="102" y="705"/>
			<point x="116" y="714"/>
			<point x="132" y="714" type="curve" smooth="yes"/>
			<point x="155" y="714"/>
			<point x="173" y="696"/>
		</contour>
	</outline>
</glyph>
<glyph name="quoteright" format="2">
	<advance width="203"/>
	<unicode hex="2019"/>
	<outline>
		<contour>
			<point x="71" y="482" type="curve" smooth="yes"/>
			<point x="87" y="482"/>
			<point x="101" y="491"/>
			<point x="108" y="505" type="curve" smooth="yes"/>
			<point x="147" y="585"/>
			<point x="163" y="623"/>
			<point x="163" y="650" type="curve" smooth="yes"/>
			<point x="163" y="688"/>
			<point x="144" y="714"/>
			<point x="109" y="714" type="curve" smooth="yes"/>
			<point x="75" y="714"/>
			<point x="52" y="691"/>
			<point x="52" y="657" type="curve" smooth="yes"/>
			<point x="52" y="633"/>
			<point x="68" y="613"/>
			<point x="83" y="608" type="curve" smooth="yes"/>
			<point x="87" y="607"/>
			<point x="90" y="605"/>
			<point x="83" y="597" type="curve" smooth="yes"/>
			<point x="41" y="548" type="line" smooth="yes"/>
			<point x="34" y="540"/>
			<point x="30" y="528"/>
			<point x="30" y="519" type="curve" smooth="yes"/>
			<point x="30" y="500"/>
			<point x="48" y="482"/>
		</contour>
	</outline>
</glyph>
<glyph name="bullet" format="2">
	<advance width="258"/>
	<unicode hex="2022"/>
	<outline>
		<contour>
			<point x="129" y="249" type="curve" smooth="yes" name="💚"/>
			<point x="78" y="249"/>
			<point x="40" y="291"/>
			<point x="40" y="342" type="curve" smooth="yes"/>
			<point x="40" y="395"/>
			<point x="78" y="435"/>
			<point x="129" y="435" type="curve" smooth="yes"/>
			<point x="182" y="435"/>
			<point x="218" y="395"/>
			<point x="218" y="342" type="curve" smooth="yes"/>
			<point x="218" y="291"/>
			<point x="182" y="249"/>
		</contour>
	</outline>
</glyph>
<glyph name="guilsinglleft" format="2">
	<advance width="305"/>
	<unicode hex="2039"/>
	<outline>
		<contour>
			<point x="253" y="132" type="curve" smooth="yes"/>
			<point x="94" y="307" type="line"/>
			<point x="94" y="252" type="line"/>
			<point x="243" y="417" type="line" smooth="yes"/>
			<point x="255" y="431"/>
			<point x="265" y="436"/>
			<point x="265" y="453" type="curve" smooth="yes"/>
			<point x="265" y="474"/>
			<point x="248" y="491"/>
			<point x="228" y="491" type="curve" smooth="yes"/>
			<point x="221" y="491"/>
			<point x="213" y="489"/>
			<point x="202" y="477" type="curve" smooth="yes"/>
			<point x="52" y="310" type="line" smooth="yes"/>
			<point x="45" y="302"/>
			<point x="40" y="293"/>
			<point x="40" y="281" type="curve" smooth="yes"/>
			<point x="40" y="267"/>
			<point x="46" y="257"/>
			<point x="53" y="249" type="curve" smooth="yes"/>
			<point x="203" y="85" type="line" smooth="yes"/>
			<point x="212" y="76"/>
			<point x="219" y="68"/>
			<point x="233" y="68" type="curve" smooth="yes"/>
			<point x="253" y="68"/>
			<point x="265" y="84"/>
			<point x="265" y="103" type="curve" smooth="yes"/>
			<point x="265" y="117"/>
			<point x="259" y="125"/>
		</contour>
	</outline>
</glyph>
<glyph name="fraction" format="2">
	<advance width="213"/>
	<unicode hex="2044"/>
	<outline>
		<contour>
			<point x="-96" y="2" type="curve"/>
			<point x="360" y="658" type="line"/>
			<point x="363" y="664"/>
			<point x="366" y="669"/>
			<point x="366" y="676" type="curve" smooth="yes"/>
			<point x="366" y="695"/>
			<point x="353" y="708"/>
			<point x="334" y="708" type="curve" smooth="yes"/>
			<point x="323" y="708"/>
			<point x="313" y="703"/>
			<point x="309" y="695" type="curve"/>
			<point x="-147" y="39" type="line"/>
			<point x="-150" y="33"/>
			<point x="-153" y="28"/>
			<point x="-153" y="21" type="curve" smooth="yes"/>
			<point x="-153" y="2"/>
			<point x="-140" y="-11"/>
			<point x="-121" y="-11" type="curve" smooth="yes"/>
			<point x="-110" y="-11"/>
			<point x="-100" y="-6"/>
		</contour>
	</outline>
</glyph>
<glyph name="dong" format="2">
	<advance width="572"/>
	<unicode hex="20AB"/>
	<outline>
		<contour>
			<point x="171" y="598" type="move"/>
			<point x="529" y="598" type="line"/>
		</contour>
		<contour>
			<point x="56" y="32" type="move"/>
			<point x="445" y="32" type="line"/>
		</contour>
		<contour>
			<point x="40" y="308" type="curve" smooth="yes"/>
			<point x="40" y="191"/>
			<point x="114" y="98"/>
			<point x="217" y="98" type="curve" smooth="yes"/>
			<point x="316" y="98"/>
			<point x="421" y="209"/>
			<point x="421" y="302" type="curve" smooth="yes"/>
			<point x="421" y="391"/>
			<point x="335" y="514"/>
			<point x="223" y="514" type="curve" smooth="yes"/>
			<point x="116" y="514"/>
			<point x="40" y="424"/>
		</contour>
		<contour>
			<point x="116" y="308" type="curve" smooth="yes"/>
			<point x="116" y="391"/>
			<point x="156" y="442"/>
			<point x="223" y="442" type="curve" smooth="yes"/>
			<point x="296" y="442"/>
			<point x="345" y="401"/>
			<point x="346" y="302" type="curve" smooth="yes"/>
			<point x="347" y="205"/>
			<point x="294" y="169"/>
			<point x="232" y="169" type="curve" smooth="yes"/>
			<point x="156" y="169"/>
			<point x="116" y="222"/>
		</contour>
		<contour>
			<point x="383" y="696" type="move"/>
			<point x="383" y="103" type="line"/>
		</contour>
	</outline>
</glyph>
<glyph name="euro" format="2">
	<advance width="620"/>
	<unicode hex="20AC"/>
	<outline>
		<contour>
			<point x="59" y="276" type="move"/>
			<point x="478" y="276" type="line"/>
		</contour>
		<contour>
			<point x="59" y="423" type="move"/>
			<point x="513" y="423" type="line"/>
		</contour>
		<contour>
			<point x="513" y="19" type="curve" smooth="yes"/>
			<point x="528" y="29"/>
			<point x="540" y="45"/>
			<point x="540" y="61" type="curve" smooth="yes"/>
			<point x="540" y="80"/>
			<point x="525" y="94"/>
			<point x="506" y="94" type="curve" smooth="yes"/>
			<point x="497" y="94"/>
			<point x="486" y="90"/>
			<point x="476" y="82" type="curve" smooth="yes"/>
			<point x="457" y="67"/>
			<point x="435" y="63"/>
			<point x="402" y="63" type="curve" smooth="yes"/>
			<point x="283" y="63"/>
			<point x="234" y="159"/>
			<point x="234" y="346" type="curve" smooth="yes"/>
			<point x="234" y="532"/>
			<point x="298" y="637"/>
			<point x="399" y="637" type="curve" smooth="yes"/>
			<point x="427" y="637"/>
			<point x="454" y="631"/>
			<point x="476" y="612" type="curve" smooth="yes"/>
			<point x="485" y="605"/>
			<point x="494" y="601"/>
			<point x="504" y="601" type="curve" smooth="yes"/>
			<point x="522" y="601"/>
			<point x="538" y="615"/>
			<point x="538" y="641" type="curve" smooth="yes"/>
			<point x="538" y="656"/>
			<point x="530" y="671"/>
			<point x="513" y="682" type="curve" smooth="yes"/>
			<point x="482" y="702"/>
			<point x="443" y="713"/>
			<point x="401" y="713" type="curve" smooth="yes"/>
			<point x="259" y="713"/>
			<point x="152" y="572"/>
			<point x="152" y="348" type="curve" smooth="yes"/>
			<point x="152" y="122"/>
			<point x="245" y="-12"/>
			<point x="398" y="-12" type="curve" smooth="yes"/>
			<point x="446" y="-12"/>
			<point x="481" y="-3"/>
		</contour>
	</outline>
</glyph>
<glyph name="kip" format="2">
	<advance width="654"/>
	<unicode hex="20AD"/>
	<outline>
		<contour>
			<point x="191" y="694" type="move"/>
			<point x="191" y="-10" type="line"/>
		</contour>
		<contour>
			<point x="43" y="361" type="move"/>
			<point x="605" y="361" type="line"/>
		</contour>
		<contour>
			<point x="579" y="685" type="move"/>
			<point x="299" y="343" type="line"/>
		</contour>
		<contour>
			<point x="299" y="377" type="move"/>
			<point x="598" y="0" type="line"/>
		</contour>
	</outline>
</glyph>
<glyph name="rupeeIndian" format="2">
	<advance width="650"/>
	<unicode hex="20B9"/>
	<outline>
		<contour>
			<point x="46" y="515" type="move"/>
			<point x="574" y="515" type="line"/>
		</contour>
		<contour>
			<point x="83" y="330" type="line"/>
			<point x="257" y="330" type="line" smooth="yes"/>
			<point x="367" y="330"/>
			<point x="453" y="404"/>
			<point x="453" y="513" type="curve" smooth="yes"/>
			<point x="453" y="623"/>
			<point x="366" y="700"/>
			<point x="250" y="700" type="curve" smooth="yes"/>
			<point x="224" y="700" type="line"/>
			<point x="224" y="624" type="line"/>
			<point x="256" y="624" type="line" smooth="yes"/>
			<point x="325" y="624"/>
			<point x="372" y="578"/>
			<point x="372" y="513" type="curve" smooth="yes"/>
			<point x="372" y="450"/>
			<point x="329" y="406"/>
			<point x="265" y="406" type="curve" smooth="yes"/>
			<point x="83" y="406" type="line"/>
		</contour>
		<contour>
			<point x="388" y="-7" type="curve" smooth="yes"/>
			<point x="411" y="-7"/>
			<point x="429" y="9"/>
			<point x="429" y="33" type="curve" smooth="yes"/>
			<point x="429" y="43"/>
			<point x="427" y="51"/>
			<point x="419" y="59" type="curve" smooth="yes"/>
			<point x="138" y="352" type="line"/>
			<point x="49" y="346" type="line"/>
			<point x="352" y="13" type="line" smooth="yes"/>
			<point x="362" y="2"/>
			<point x="373" y="-7"/>
		</contour>
		<contour>
			<point x="46" y="662" type="move"/>
			<point x="574" y="662" type="line"/>
		</contour>
		<contour>
			<point x="46" y="368" type="move"/>
			<point x="280" y="368" type="line"/>
		</contour>
	</outline>
</glyph>
<glyph name="manat" format="2">
	<advance width="620"/>
	<unicode hex="20BC"/>
	<outline>
		<contour>
			<point x="354" y="36" type="curve" smooth="yes"/>
			<point x="354" y="680" type="line" smooth="yes"/>
			<point x="354" y="702"/>
			<point x="336" y="720"/>
			<point x="314" y="720" type="curve" smooth="yes"/>
			<point x="292" y="720"/>
			<point x="274" y="702"/>
			<point x="274" y="680" type="curve" smooth="yes"/>
			<point x="274" y="36" type="line" smooth="yes"/>
			<point x="274" y="14"/>
			<point x="292" y="-4"/>
			<point x="314" y="-4" type="curve" smooth="yes"/>
			<point x="336" y="-4"/>
			<point x="354" y="14"/>
		</contour>
		<contour>
			<point x="310" y="506" type="curve" smooth="yes"/>
			<point x="469" y="506"/>
			<point x="510" y="414"/>
			<point x="510" y="161" type="curve" smooth="yes"/>
			<point x="510" y="40" type="line" smooth="yes"/>
			<point x="510" y="18"/>
			<point x="528" y="0"/>
			<point x="550" y="0" type="curve" smooth="yes"/>
			<point x="572" y="0"/>
			<point x="590" y="18"/>
			<point x="590" y="40" type="curve" smooth="yes"/>
			<point x="590" y="178" type="line" smooth="yes"/>
			<point x="590" y="444"/>
			<point x="524" y="586"/>
			<point x="309" y="586" type="curve" smooth="yes"/>
			<point x="96" y="586"/>
			<point x="30" y="444"/>
			<point x="30" y="178" type="curve" smooth="yes"/>
			<point x="30" y="40" type="line" smooth="yes"/>
			<point x="30" y="18"/>
			<point x="48" y="0"/>
			<point x="70" y="0" type="curve" smooth="yes"/>
			<point x="92" y="0"/>
			<point x="110" y="18"/>
			<point x="110" y="40" type="curve" smooth="yes"/>
			<point x="110" y="161" type="line" smooth="yes"/>
			<point x="110" y="414"/>
			<point x="151" y="506"/>
		</contour>
	</outline>
</glyph>
<glyph name="product" format="2">
	<advance width="665"/>
	<unicode hex="220F"/>
	<outline>
		<contour>
			<point x="587" y="699" type="curve"/>
			<point x="78" y="699" type="line"/>
			<point x="56" y="699"/>
			<point x="38" y="681"/>
			<point x="38" y="659" type="curve"/>
			<point x="38" y="637"/>
			<point x="56" y="619"/>
			<point x="78" y="619" type="curve"/>
			<point x="587" y="619" type="line"/>
			<point x="609" y="619"/>
			<point x="627" y="637"/>
			<point x="627" y="659" type="curve"/>
			<point x="627" y="681"/>
			<point x="609" y="699"/>
		</contour>
		<contour>
			<point x="229" y="-119" type="curve" smooth="yes"/>
			<point x="229" y="660" type="line"/>
			<point x="149" y="660" type="line"/>
			<point x="149" y="-119" type="line" smooth="yes"/>
			<point x="149" y="-141"/>
			<point x="166" y="-159"/>
			<point x="189" y="-159" type="curve" smooth="yes"/>
			<point x="211" y="-159"/>
			<point x="229" y="-141"/>
		</contour>
		<contour>
			<point x="523" y="-119" type="curve" smooth="yes"/>
			<point x="523" y="660" type="line"/>
			<point x="443" y="660" type="line"/>
			<point x="443" y="-119" type="line" smooth="yes"/>
			<point x="443" y="-141"/>
			<point x="460" y="-159"/>
			<point x="483" y="-159" type="curve" smooth="yes"/>
			<point x="505" y="-159"/>
			<point x="523" y="-141"/>
		</contour>
	</outline>
</glyph>
<glyph name="summation" format="2">
	<advance width="592"/>
	<unicode hex="2211"/>
	<outline>
		<contour>
			<point x="489" y="-90" type="curve"/>
			<point x="118" y="-90" type="line"/>
			<point x="138" y="-127" type="line"/>
			<point x="387" y="233" type="line"/>
			<point x="403" y="257"/>
			<point x="402" y="285"/>
			<point x="387" y="308" type="curve"/>
			<point x="143" y="659" type="line"/>
			<point x="119" y="621" type="line"/>
			<point x="492" y="621" type="line"/>
			<point x="514" y="621"/>
			<point x="532" y="639"/>
			<point x="532" y="661" type="curve"/>
			<point x="532" y="683"/>
			<point x="514" y="701"/>
			<point x="492" y="701" type="curve"/>
			<point x="119" y="701" type="line"/>
			<point x="69" y="701"/>
			<point x="44" y="653"/>
			<point x="72" y="613" type="curve"/>
			<point x="321" y="255" type="line"/>
			<point x="321" y="284" type="line"/>
			<point x="72" y="-83" type="line"/>
			<point x="45" y="-124"/>
			<point x="69" y="-170"/>
			<point x="118" y="-170" type="curve"/>
			<point x="489" y="-170" type="line"/>
			<point x="511" y="-170"/>
			<point x="529" y="-152"/>
			<point x="529" y="-130" type="curve"/>
			<point x="529" y="-108"/>
			<point x="511" y="-90"/>
		</contour>
	</outline>
</glyph>
<glyph name="minus" format="2">
	<advance width="536"/>
	<unicode hex="2212"/>
	<outline>
		<contour>
			<point x="457" y="398" type="curve" smooth="yes"/>
			<point x="99" y="398" type="line" smooth="yes"/>
			<point x="78" y="398"/>
			<point x="60" y="381"/>
			<point x="60" y="359" type="curve" smooth="yes"/>
			<point x="60" y="337"/>
			<point x="78" y="320"/>
			<point x="99" y="320" type="curve" smooth="yes"/>
			<point x="457" y="320" type="line" smooth="yes"/>
			<point x="478" y="320"/>
			<point x="496" y="337"/>
			<point x="496" y="359" type="curve" smooth="yes"/>
			<point x="496" y="381"/>
			<point x="478" y="398"/>
		</contour>
	</outline>
</glyph>
<glyph name="divisionslash" format="2">
	<advance width="448"/>
	<unicode hex="2215"/>
	<outline>
		<contour>
			<point x="93" y="20" type="curve" smooth="yes"/>
			<point x="423" y="645" type="line" smooth="yes"/>
			<point x="436" y="668"/>
			<point x="421" y="702"/>
			<point x="389" y="702" type="curve" smooth="yes"/>
			<point x="374" y="702"/>
			<point x="361" y="694"/>
			<point x="355" y="681" type="curve" smooth="yes"/>
			<point x="25" y="56" type="line" smooth="yes"/>
			<point x="12" y="33"/>
			<point x="27" y="-1"/>
			<point x="59" y="-1" type="curve" smooth="yes"/>
			<point x="74" y="-1"/>
			<point x="87" y="7"/>
		</contour>
	</outline>
</glyph>
<glyph name="radical" format="2">
	<advance width="491"/>
	<unicode hex="221A"/>
	<outline>
		<contour>
			<point x="45" y="245" type="curve" smooth="yes"/>
			<point x="156" y="-112" type="line" smooth="yes"/>
			<point x="171" y="-159"/>
			<point x="194" y="-175"/>
			<point x="223" y="-175" type="curve" smooth="yes"/>
			<point x="255" y="-175"/>
			<point x="280" y="-155"/>
			<point x="291" y="-106" type="curve" smooth="yes"/>
			<point x="459" y="637" type="line"/>
			<point x="459" y="636"/>
			<point x="447" y="623"/>
			<point x="445" y="623" type="curve"/>
			<point x="604" y="623" type="line" smooth="yes"/>
			<point x="624" y="623"/>
			<point x="641" y="640"/>
			<point x="641" y="662" type="curve" smooth="yes"/>
			<point x="641" y="683"/>
			<point x="624" y="700"/>
			<point x="604" y="700" type="curve" smooth="yes"/>
			<point x="442" y="700" type="line" smooth="yes"/>
			<point x="413" y="700"/>
			<point x="390" y="683"/>
			<point x="384" y="655" type="curve" smooth="yes"/>
			<point x="211" y="-122" type="line"/>
			<point x="239" y="-122" type="line"/>
			<point x="122" y="265" type="line" smooth="yes"/>
			<point x="118" y="281"/>
			<point x="104" y="292"/>
			<point x="84" y="292" type="curve" smooth="yes"/>
			<point x="55" y="292"/>
			<point x="38" y="268"/>
		</contour>
	</outline>
</glyph>
<glyph name="infinity" format="2">
	<advance width="898"/>
	<unicode hex="221E"/>
	<outline>
		<contour>
			<point x="232" y="454" type="curve" smooth="yes"/>
			<point x="145" y="454"/>
			<point x="80" y="388"/>
			<point x="80" y="302" type="curve" smooth="yes"/>
			<point x="80" y="208"/>
			<point x="138" y="138"/>
			<point x="216" y="138" type="curve" smooth="yes"/>
			<point x="423" y="138"/>
			<point x="498" y="458"/>
			<point x="665" y="458" type="curve" smooth="yes"/>
			<point x="752" y="458"/>
			<point x="818" y="392"/>
			<point x="818" y="302" type="curve" smooth="yes"/>
			<point x="818" y="211"/>
			<point x="751" y="142"/>
			<point x="661" y="142" type="curve" smooth="yes"/>
			<point x="494" y="142"/>
			<point x="388" y="454"/>
		</contour>
	</outline>
</glyph>
<glyph name="integral" format="2">
	<advance width="561"/>
	<unicode hex="222B"/>
	<outline>
		<contour>
			<point x="100" y="-170" type="curve" smooth="yes" name="💚"/>
			<point x="147" y="-170" type="line" smooth="yes" name="💚"/>
			<point x="207" y="-170"/>
			<point x="263" y="-123"/>
			<point x="277" y="-31" type="curve" smooth="yes" name="💚"/>
			<point x="363" y="535" type="line" smooth="yes" name="💚"/>
			<point x="372" y="594"/>
			<point x="382" y="620"/>
			<point x="397" y="620" type="curve" smooth="yes" name="💚"/>
			<point x="461" y="620" type="line" smooth="yes" name="💚"/>
			<point x="483" y="620"/>
			<point x="501" y="638"/>
			<point x="501" y="660" type="curve" smooth="yes" name="💚"/>
			<point x="501" y="682"/>
			<point x="483" y="700"/>
			<point x="461" y="700" type="curve" smooth="yes" name="💚"/>
			<point x="397" y="700" type="line" smooth="yes" name="💚"/>
			<point x="328" y="700"/>
			<point x="296" y="627"/>
			<point x="283" y="547" type="curve" smooth="yes" name="💚"/>
			<point x="197" y="-19" type="line" smooth="yes" name="💚"/>
			<point x="189" y="-76"/>
			<point x="172" y="-90"/>
			<point x="147" y="-90" type="curve" smooth="yes" name="💚"/>
			<point x="100" y="-90" type="line" smooth="yes" name="💚"/>
			<point x="78" y="-90"/>
			<point x="60" y="-108"/>
			<point x="60" y="-130" type="curve" smooth="yes" name="💚"/>
			<point x="60" y="-152"/>
			<point x="78" y="-170"/>
		</contour>
	</outline>
</glyph>
<glyph name="approxequal" format="2">
	<advance width="548"/>
	<unicode hex="2248"/>
	<outline>
		<contour>
			<point x="384" y="392" type="curve" smooth="yes"/>
			<point x="432" y="392"/>
			<point x="482" y="416"/>
			<point x="505" y="475" type="curve" smooth="yes"/>
			<point x="507" y="479"/>
			<point x="508" y="483"/>
			<point x="508" y="488" type="curve" smooth="yes"/>
			<point x="508" y="508"/>
			<point x="492" y="524"/>
			<point x="472" y="524" type="curve" smooth="yes"/>
			<point x="457" y="524"/>
			<point x="444" y="515"/>
			<point x="439" y="501" type="curve" smooth="yes"/>
			<point x="430" y="480"/>
			<point x="410" y="464"/>
			<point x="383" y="464" type="curve" smooth="yes"/>
			<point x="346" y="464"/>
			<point x="315" y="479"/>
			<point x="278" y="496" type="curve" smooth="yes"/>
			<point x="245" y="512"/>
			<point x="205" y="530"/>
			<point x="163" y="530" type="curve" smooth="yes"/>
			<point x="115" y="530"/>
			<point x="66" y="506"/>
			<point x="43" y="447" type="curve" smooth="yes"/>
			<point x="41" y="443"/>
			<point x="40" y="439"/>
			<point x="40" y="434" type="curve" smooth="yes"/>
			<point x="40" y="414"/>
			<point x="56" y="398"/>
			<point x="76" y="398" type="curve" smooth="yes"/>
			<point x="91" y="398"/>
			<point x="104" y="407"/>
			<point x="109" y="421" type="curve" smooth="yes"/>
			<point x="118" y="442"/>
			<point x="138" y="458"/>
			<point x="165" y="458" type="curve" smooth="yes"/>
			<point x="189" y="458"/>
			<point x="214" y="447"/>
			<point x="248" y="431" type="curve" smooth="yes"/>
			<point x="284" y="414"/>
			<point x="331" y="392"/>
		</contour>
		<contour>
			<point x="384" y="200" type="curve" smooth="yes"/>
			<point x="432" y="200"/>
			<point x="482" y="224"/>
			<point x="505" y="283" type="curve" smooth="yes"/>
			<point x="507" y="287"/>
			<point x="508" y="291"/>
			<point x="508" y="296" type="curve" smooth="yes"/>
			<point x="508" y="316"/>
			<point x="492" y="332"/>
			<point x="472" y="332" type="curve" smooth="yes"/>
			<point x="457" y="332"/>
			<point x="444" y="323"/>
			<point x="439" y="309" type="curve" smooth="yes"/>
			<point x="430" y="288"/>
			<point x="410" y="272"/>
			<point x="383" y="272" type="curve" smooth="yes"/>
			<point x="346" y="272"/>
			<point x="315" y="287"/>
			<point x="278" y="304" type="curve" smooth="yes"/>
			<point x="245" y="320"/>
			<point x="205" y="338"/>
			<point x="163" y="338" type="curve" smooth="yes"/>
			<point x="115" y="338"/>
			<point x="66" y="314"/>
			<point x="43" y="255" type="curve" smooth="yes"/>
			<point x="41" y="251"/>
			<point x="40" y="247"/>
			<point x="40" y="242" type="curve" smooth="yes"/>
			<point x="40" y="222"/>
			<point x="56" y="206"/>
			<point x="76" y="206" type="curve" smooth="yes"/>
			<point x="91" y="206"/>
			<point x="104" y="215"/>
			<point x="109" y="229" type="curve" smooth="yes"/>
			<point x="118" y="250"/>
			<point x="138" y="266"/>
			<point x="165" y="266" type="curve" smooth="yes"/>
			<point x="189" y="266"/>
			<point x="214" y="255"/>
			<point x="248" y="239" type="curve" smooth="yes"/>
			<point x="284" y="222"/>
			<point x="331" y="200"/>
		</contour>
	</outline>
</glyph>
<glyph name="notequal" format="2">
	<advance width="559"/>
	<unicode hex="2260"/>
	<outline>
		<contour>
			<point x="44" y="263" type="move"/>
			<point x="511" y="263" type="line"/>
		</contour>
		<contour>
			<point x="48" y="453" type="move"/>
			<point x="515" y="453" type="line"/>
		</contour>
		<contour>
			<point x="163" y="97" type="move"/>
			<point x="386" y="615" type="line"/>
		</contour>
	</outline>
</glyph>
<glyph name="greaterequal" format="2">
	<advance width="535"/>
	<unicode hex="2265"/>
	<outline>
		<contour>
			<point x="44" y="108" type="move"/>
			<point x="491" y="108" type="line"/>
		</contour>
		<contour>
			<point x="459" y="457" type="line"/>
			<point x="65" y="282" type="line" smooth="yes"/>
			<point x="52" y="276"/>
			<point x="43" y="263"/>
			<point x="43" y="248" type="curve" smooth="yes"/>
			<point x="43" y="227"/>
			<point x="60" y="208"/>
			<point x="81" y="208" type="curve" smooth="yes"/>
			<point x="87" y="208"/>
			<point x="92" y="210"/>
			<point x="97" y="212" type="curve" smooth="yes"/>
			<point x="465" y="386" type="line" smooth="yes"/>
			<point x="480" y="393"/>
			<point x="493" y="409"/>
			<point x="493" y="430" type="curve" smooth="yes"/>
			<point x="493" y="450"/>
			<point x="484" y="464"/>
			<point x="465" y="473" type="curve" smooth="yes"/>
			<point x="97" y="647" type="line" smooth="yes"/>
			<point x="92" y="649"/>
			<point x="87" y="651"/>
			<point x="81" y="651" type="curve" smooth="yes"/>
			<point x="60" y="651"/>
			<point x="43" y="634"/>
			<point x="43" y="613" type="curve" smooth="yes"/>
			<point x="43" y="596"/>
			<point x="52" y="583"/>
			<point x="65" y="577" type="curve" smooth="yes"/>
			<point x="459" y="402" type="line"/>
		</contour>
	</outline>
</glyph>
<glyph name="dottedCircle" format="2">
	<advance width="989"/>
	<unicode hex="25CC"/>
	<outline>
		<contour>
			<point x="494" y="-75" type="curve" smooth="yes"/>
			<point x="734" y="-75"/>
			<point x="929" y="120"/>
			<point x="929" y="360" type="curve" smooth="yes"/>
			<point x="929" y="599"/>
			<point x="734" y="794"/>
			<point x="494" y="794" type="curve" smooth="yes"/>
			<point x="255" y="794"/>
			<point x="60" y="599"/>
			<point x="60" y="360" type="curve" smooth="yes"/>
			<point x="60" y="120"/>
			<point x="255" y="-75"/>
		</contour>
		<contour>
			<point x="494" y="-35" type="curve" smooth="yes"/>
			<point x="272" y="-35"/>
			<point x="100" y="137"/>
			<point x="100" y="360" type="curve" smooth="yes"/>
			<point x="100" y="582"/>
			<point x="272" y="754"/>
			<point x="494" y="754" type="curve" smooth="yes"/>
			<point x="717" y="754"/>
			<point x="889" y="582"/>
			<point x="889" y="360" type="curve" smooth="yes"/>
			<point x="889" y="137"/>
			<point x="717" y="-35"/>
		</contour>
	</outline>
</glyph>
<glyph name="leftanglebracket-math" format="2">
	<advance width="295"/>
	<unicode hex="27E8"/>
	<outline>
		<contour>
			<point x="272" y="-125" type="curve" smooth="yes"/>
			<point x="110" y="303" type="line"/>
			<point x="109" y="306"/>
			<point x="109" y="306"/>
			<point x="110" y="309" type="curve"/>
			<point x="272" y="737" type="line" smooth="yes"/>
			<point x="282" y="762"/>
			<point x="264" y="791"/>
			<point x="235" y="791" type="curve" smooth="yes"/>
			<point x="218" y="791"/>
			<point x="203" y="780"/>
			<point x="198" y="765" type="curve" smooth="yes"/>
			<point x="36" y="339" type="line" smooth="yes"/>
			<point x="28" y="319"/>
			<point x="28" y="293"/>
			<point x="36" y="273" type="curve" smooth="yes"/>
			<point x="198" y="-153" type="line" smooth="yes"/>
			<point x="203" y="-168"/>
			<point x="218" y="-179"/>
			<point x="235" y="-179" type="curve" smooth="yes"/>
			<point x="264" y="-179"/>
			<point x="282" y="-150"/>
		</contour>
	</outline>
</glyph>
<glyph name="fi" format="2">
	<advance width="543"/>
	<unicode hex="FB01"/>
	<outline>
		<contour>
			<point x="127" y="-10" type="curve" smooth="yes"/>
			<point x="149" y="-10"/>
			<point x="167" y="8"/>
			<point x="167" y="30" type="curve" smooth="yes"/>
			<point x="167" y="579" type="line" smooth="yes"/>
			<point x="167" y="635"/>
			<point x="182" y="655"/>
			<point x="203" y="655" type="curve" smooth="yes"/>
			<point x="210" y="655"/>
			<point x="219" y="654"/>
			<point x="229" y="645" type="curve" smooth="yes"/>
			<point x="235" y="640"/>
			<point x="245" y="635"/>
			<point x="257" y="635" type="curve" smooth="yes"/>
			<point x="279" y="635"/>
			<point x="295" y="653"/>
			<point x="295" y="674" type="curve" smooth="yes"/>
			<point x="295" y="709"/>
			<point x="248" y="735"/>
			<point x="204" y="735" type="curve" smooth="yes"/>
			<point x="148" y="735"/>
			<point x="87" y="694"/>
			<point x="87" y="579" type="curve" smooth="yes"/>
			<point x="87" y="30" type="line" smooth="yes"/>
			<point x="87" y="8"/>
			<point x="105" y="-10"/>
		</contour>
		<contour>
			<point x="60" y="442" type="curve" smooth="yes"/>
			<point x="251" y="442" type="line" smooth="yes"/>
			<point x="273" y="442"/>
			<point x="291" y="458"/>
			<point x="291" y="478" type="curve" smooth="yes"/>
			<point x="291" y="498"/>
			<point x="273" y="515"/>
			<point x="251" y="515" type="curve" smooth="yes"/>
			<point x="60" y="515" type="line" smooth="yes"/>
			<point x="38" y="515"/>
			<point x="20" y="499"/>
			<point x="20" y="478" type="curve" smooth="yes"/>
			<point x="20" y="458"/>
			<point x="38" y="442"/>
		</contour>
		<contour>
			<point x="418" y="-11" type="curve" smooth="yes"/>
			<point x="440" y="-11"/>
			<point x="458" y="7"/>
			<point x="458" y="29" type="curve" smooth="yes"/>
			<point x="458" y="484" type="line" smooth="yes"/>
			<point x="458" y="506"/>
			<point x="440" y="524"/>
			<point x="418" y="524" type="curve" smooth="yes"/>
			<point x="395" y="524"/>
			<point x="378" y="506"/>
			<point x="378" y="484" type="curve" smooth="yes"/>
			<point x="378" y="29" type="line" smooth="yes"/>
			<point x="378" y="7"/>
			<point x="395" y="-11"/>
		</contour>
		<contour>
			<point x="423" y="587" type="curve" smooth="yes"/>
			<point x="393" y="587"/>
			<point x="374" y="607"/>
			<point x="374" y="644" type="curve" smooth="yes"/>
			<point x="374" y="680"/>
			<point x="393" y="700"/>
			<point x="423" y="700" type="curve" smooth="yes"/>
			<point x="453" y="700"/>
			<point x="473" y="680"/>
			<point x="473" y="644" type="curve" smooth="yes"/>
			<point x="473" y="607"/>
			<point x="453" y="587"/>
		</contour>
	</outline>
</glyph>
